<?xml version="1.0" encoding="UTF-8" standalone="no"?>
<!DOCTYPE svg PUBLIC "-//W3C//DTD SVG 1.1//EN"
 "http://www.w3.org/Graphics/SVG/1.1/DTD/svg11.dtd">
<!-- Generated by graphviz version 2.44.0 (0)
 -->
<!-- Title: G Pages: 1 -->
<svg width="685pt" height="260pt"
 viewBox="0.00 0.00 685.04 260.00" xmlns="http://www.w3.org/2000/svg" xmlns:xlink="http://www.w3.org/1999/xlink">
<g id="graph0" class="graph" transform="scale(1 1) rotate(0) translate(4 256)">
<title>G</title>
<polygon fill="white" stroke="transparent" points="-4,4 -4,-256 681.04,-256 681.04,4 -4,4"/>
<!-- RootDecisionHub -->
<g id="node1" class="node DecisionHub">
<title>RootDecisionHub</title>
<ellipse fill="none" stroke="black" cx="278.19" cy="-234" rx="87.18" ry="18"/>
<text text-anchor="middle" x="278.19" y="-230.3" font-family="Times-Roman" font-size="14.00">RootDecisionHub</text>
</g>
<!-- ProducerA -->
<g id="node2" class="node GaudiAlgorithm">
<title>ProducerA</title>
<ellipse fill="none" stroke="black" cx="57.19" cy="-162" rx="57.39" ry="18"/>
<text text-anchor="middle" x="57.19" y="-158.3" font-family="Times-Roman" font-size="14.00">ProducerA</text>
</g>
<!-- RootDecisionHub&#45;&gt;ProducerA -->
<g id="edge1" class="edge">
<title>RootDecisionHub&#45;&gt;ProducerA</title>
<path fill="none" stroke="black" d="M232.67,-218.58C195.67,-206.86 143.59,-190.37 105.79,-178.39"/>
<polygon fill="black" stroke="black" points="106.61,-174.98 96.02,-175.3 104.49,-181.65 106.61,-174.98"/>
</g>
<!-- TransformerB -->
<g id="node3" class="node GaudiAlgorithm">
<title>TransformerB</title>
<ellipse fill="none" stroke="black" cx="204.19" cy="-162" rx="71.49" ry="18"/>
<text text-anchor="middle" x="204.19" y="-158.3" font-family="Times-Roman" font-size="14.00">TransformerB</text>
</g>
<!-- RootDecisionHub&#45;&gt;TransformerB -->
<g id="edge2" class="edge">
<title>RootDecisionHub&#45;&gt;TransformerB</title>
<path fill="none" stroke="black" d="M260.28,-216.05C250.94,-207.22 239.37,-196.27 229.16,-186.62"/>
<polygon fill="black" stroke="black" points="231.36,-183.88 221.69,-179.55 226.55,-188.96 231.36,-183.88"/>
</g>
<!-- Sequencer -->
<g id="node4" class="node DecisionHub">
<title>Sequencer</title>
<ellipse fill="none" stroke="black" cx="353.19" cy="-162" rx="59.29" ry="18"/>
<text text-anchor="middle" x="353.19" y="-158.3" font-family="Times-Roman" font-size="14.00">Sequencer</text>
</g>
<!-- RootDecisionHub&#45;&gt;Sequencer -->
<g id="edge3" class="edge">
<title>RootDecisionHub&#45;&gt;Sequencer</title>
<path fill="none" stroke="black" d="M296.35,-216.05C305.89,-207.16 317.72,-196.11 328.11,-186.41"/>
<polygon fill="black" stroke="black" points="330.8,-188.69 335.72,-179.31 326.02,-183.57 330.8,-188.69"/>
</g>
<!-- TransformerG -->
<g id="node10" class="node GaudiAlgorithm">
<title>TransformerG</title>
<ellipse fill="none" stroke="black" cx="502.19" cy="-162" rx="72.29" ry="18"/>
<text text-anchor="middle" x="502.19" y="-158.3" font-family="Times-Roman" font-size="14.00">TransformerG</text>
</g>
<!-- RootDecisionHub&#45;&gt;TransformerG -->
<g id="edge4" class="edge">
<title>RootDecisionHub&#45;&gt;TransformerG</title>
<path fill="none" stroke="black" d="M324.07,-218.67C360.37,-207.32 411.12,-191.46 449.17,-179.57"/>
<polygon fill="black" stroke="black" points="450.55,-182.81 459.05,-176.48 448.46,-176.13 450.55,-182.81"/>
</g>
<!-- TransformerC -->
<g id="node5" class="node GaudiAlgorithm">
<title>TransformerC</title>
<ellipse fill="none" stroke="black" cx="191.19" cy="-90" rx="71.49" ry="18"/>
<text text-anchor="middle" x="191.19" y="-86.3" font-family="Times-Roman" font-size="14.00">TransformerC</text>
</g>
<!-- Sequencer&#45;&gt;TransformerC -->
<g id="edge5" class="edge">
<title>Sequencer&#45;&gt;TransformerC</title>
<path fill="none" stroke="black" d="M320.41,-146.83C295.77,-136.19 261.76,-121.49 234.81,-109.85"/>
<polygon fill="black" stroke="black" points="236.17,-106.62 225.61,-105.87 233.4,-113.05 236.17,-106.62"/>
</g>
<!-- TransformerD -->
<g id="node6" class="node GaudiAlgorithm">
<title>TransformerD</title>
<ellipse fill="none" stroke="black" cx="353.19" cy="-90" rx="72.29" ry="18"/>
<text text-anchor="middle" x="353.19" y="-86.3" font-family="Times-Roman" font-size="14.00">TransformerD</text>
</g>
<!-- Sequencer&#45;&gt;TransformerD -->
<g id="edge6" class="edge">
<title>Sequencer&#45;&gt;TransformerD</title>
<path fill="none" stroke="black" d="M353.19,-143.7C353.19,-135.98 353.19,-126.71 353.19,-118.11"/>
<polygon fill="black" stroke="black" points="356.7,-118.1 353.19,-108.1 349.7,-118.1 356.7,-118.1"/>
</g>
<!-- InnerSequencer -->
<g id="node7" class="node DecisionHub">
<title>InnerSequencer</title>
<ellipse fill="none" stroke="black" cx="526.19" cy="-90" rx="83.39" ry="18"/>
<text text-anchor="middle" x="526.19" y="-86.3" font-family="Times-Roman" font-size="14.00">InnerSequencer</text>
</g>
<!-- Sequencer&#45;&gt;InnerSequencer -->
<g id="edge7" class="edge">
<title>Sequencer&#45;&gt;InnerSequencer</title>
<path fill="none" stroke="black" d="M387.37,-147.17C413.65,-136.54 450.24,-121.73 479.26,-109.99"/>
<polygon fill="black" stroke="black" points="480.83,-113.13 488.79,-106.14 478.21,-106.64 480.83,-113.13"/>
</g>
<!-- TransformerE -->
<g id="node8" class="node GaudiAlgorithm">
<title>TransformerE</title>
<ellipse fill="none" stroke="black" cx="446.19" cy="-18" rx="71.49" ry="18"/>
<text text-anchor="middle" x="446.19" y="-14.3" font-family="Times-Roman" font-size="14.00">TransformerE</text>
</g>
<!-- InnerSequencer&#45;&gt;TransformerE -->
<g id="edge8" class="edge">
<title>InnerSequencer&#45;&gt;TransformerE</title>
<path fill="none" stroke="black" d="M507.24,-72.41C496.87,-63.34 483.88,-51.97 472.55,-42.06"/>
<polygon fill="black" stroke="black" points="474.85,-39.42 465.02,-35.47 470.24,-44.69 474.85,-39.42"/>
</g>
<!-- TransformerF -->
<g id="node9" class="node GaudiAlgorithm">
<title>TransformerF</title>
<ellipse fill="none" stroke="black" cx="606.19" cy="-18" rx="70.69" ry="18"/>
<text text-anchor="middle" x="606.19" y="-14.3" font-family="Times-Roman" font-size="14.00">TransformerF</text>
</g>
<!-- InnerSequencer&#45;&gt;TransformerF -->
<g id="edge9" class="edge">
<title>InnerSequencer&#45;&gt;TransformerF</title>
<path fill="none" stroke="black" d="M545.15,-72.41C555.52,-63.34 568.51,-51.97 579.84,-42.06"/>
<polygon fill="black" stroke="black" points="582.15,-44.69 587.37,-35.47 577.54,-39.42 582.15,-44.69"/>
</g>
</g>
</svg>
