<?xml version="1.0" encoding="UTF-8" standalone="no"?>
<!DOCTYPE svg PUBLIC "-//W3C//DTD SVG 1.1//EN"
 "http://www.w3.org/Graphics/SVG/1.1/DTD/svg11.dtd">
<!-- Generated by graphviz version 2.44.0 (0)
 -->
<!-- Title: G Pages: 1 -->
<svg width="314pt" height="836pt"
 viewBox="0.00 0.00 314.29 836.00" xmlns="http://www.w3.org/2000/svg" xmlns:xlink="http://www.w3.org/1999/xlink">
<g id="graph0" class="graph" transform="scale(1 1) rotate(0) translate(4 832)">
<title>G</title>
<polygon fill="white" stroke="transparent" points="-4,4 -4,-832 310.29,-832 310.29,4 -4,4"/>
<!-- ProducerA -->
<g id="node1" class="node MicroProducer">
<title>ProducerA</title>
<ellipse fill="none" stroke="black" cx="153.14" cy="-810" rx="57.39" ry="18"/>
<text text-anchor="middle" x="153.14" y="-806.3" font-family="Times-Roman" font-size="14.00">ProducerA</text>
</g>
<!-- A -->
<g id="node2" class="node">
<title>A</title>
<ellipse fill="none" stroke="black" cx="153.14" cy="-738" rx="27" ry="18"/>
<text text-anchor="middle" x="153.14" y="-734.3" font-family="Times-Roman" font-size="14.00">A</text>
</g>
<!-- ProducerA&#45;&gt;A -->
<g id="edge1" class="edge">
<title>ProducerA&#45;&gt;A</title>
<path fill="none" stroke="black" d="M153.14,-791.7C153.14,-783.98 153.14,-774.71 153.14,-766.11"/>
<polygon fill="black" stroke="black" points="156.64,-766.1 153.14,-756.1 149.64,-766.1 156.64,-766.1"/>
</g>
<!-- TransformerB -->
<g id="node3" class="node MicroTransformer">
<title>TransformerB</title>
<ellipse fill="none" stroke="black" cx="153.14" cy="-666" rx="71.49" ry="18"/>
<text text-anchor="middle" x="153.14" y="-662.3" font-family="Times-Roman" font-size="14.00">TransformerB</text>
</g>
<!-- A&#45;&gt;TransformerB -->
<g id="edge2" class="edge">
<title>A&#45;&gt;TransformerB</title>
<path fill="none" stroke="black" d="M153.14,-719.7C153.14,-711.98 153.14,-702.71 153.14,-694.11"/>
<polygon fill="black" stroke="black" points="156.64,-694.1 153.14,-684.1 149.64,-694.1 156.64,-694.1"/>
</g>
<!-- B -->
<g id="node4" class="node">
<title>B</title>
<ellipse fill="none" stroke="black" cx="153.14" cy="-594" rx="27" ry="18"/>
<text text-anchor="middle" x="153.14" y="-590.3" font-family="Times-Roman" font-size="14.00">B</text>
</g>
<!-- TransformerB&#45;&gt;B -->
<g id="edge3" class="edge">
<title>TransformerB&#45;&gt;B</title>
<path fill="none" stroke="black" d="M153.14,-647.7C153.14,-639.98 153.14,-630.71 153.14,-622.11"/>
<polygon fill="black" stroke="black" points="156.64,-622.1 153.14,-612.1 149.64,-622.1 156.64,-622.1"/>
</g>
<!-- TransformerC -->
<g id="node5" class="node MicroTransformer">
<title>TransformerC</title>
<ellipse fill="none" stroke="black" cx="72.14" cy="-522" rx="71.49" ry="18"/>
<text text-anchor="middle" x="72.14" y="-518.3" font-family="Times-Roman" font-size="14.00">TransformerC</text>
</g>
<!-- B&#45;&gt;TransformerC -->
<g id="edge4" class="edge">
<title>B&#45;&gt;TransformerC</title>
<path fill="none" stroke="black" d="M137.14,-579.17C126.22,-569.73 111.5,-557.01 98.82,-546.06"/>
<polygon fill="black" stroke="black" points="101.1,-543.4 91.25,-539.51 96.53,-548.7 101.1,-543.4"/>
</g>
<!-- TransformerG -->
<g id="node13" class="node MicroTransformer">
<title>TransformerG</title>
<ellipse fill="none" stroke="black" cx="234.14" cy="-522" rx="72.29" ry="18"/>
<text text-anchor="middle" x="234.14" y="-518.3" font-family="Times-Roman" font-size="14.00">TransformerG</text>
</g>
<!-- B&#45;&gt;TransformerG -->
<g id="edge5" class="edge">
<title>B&#45;&gt;TransformerG</title>
<path fill="none" stroke="black" d="M169.15,-579.17C180.07,-569.73 194.79,-557.01 207.47,-546.06"/>
<polygon fill="black" stroke="black" points="209.76,-548.7 215.04,-539.51 205.18,-543.4 209.76,-548.7"/>
</g>
<!-- C -->
<g id="node6" class="node">
<title>C</title>
<ellipse fill="none" stroke="black" cx="72.14" cy="-450" rx="27" ry="18"/>
<text text-anchor="middle" x="72.14" y="-446.3" font-family="Times-Roman" font-size="14.00">C</text>
</g>
<!-- TransformerC&#45;&gt;C -->
<g id="edge6" class="edge">
<title>TransformerC&#45;&gt;C</title>
<path fill="none" stroke="black" d="M72.14,-503.7C72.14,-495.98 72.14,-486.71 72.14,-478.11"/>
<polygon fill="black" stroke="black" points="75.64,-478.1 72.14,-468.1 68.64,-478.1 75.64,-478.1"/>
</g>
<!-- TransformerD -->
<g id="node7" class="node MicroTransformer">
<title>TransformerD</title>
<ellipse fill="none" stroke="black" cx="72.14" cy="-378" rx="72.29" ry="18"/>
<text text-anchor="middle" x="72.14" y="-374.3" font-family="Times-Roman" font-size="14.00">TransformerD</text>
</g>
<!-- C&#45;&gt;TransformerD -->
<g id="edge7" class="edge">
<title>C&#45;&gt;TransformerD</title>
<path fill="none" stroke="black" d="M72.14,-431.7C72.14,-423.98 72.14,-414.71 72.14,-406.11"/>
<polygon fill="black" stroke="black" points="75.64,-406.1 72.14,-396.1 68.64,-406.1 75.64,-406.1"/>
</g>
<!-- D -->
<g id="node8" class="node">
<title>D</title>
<ellipse fill="none" stroke="black" cx="72.14" cy="-306" rx="27" ry="18"/>
<text text-anchor="middle" x="72.14" y="-302.3" font-family="Times-Roman" font-size="14.00">D</text>
</g>
<!-- TransformerD&#45;&gt;D -->
<g id="edge8" class="edge">
<title>TransformerD&#45;&gt;D</title>
<path fill="none" stroke="black" d="M72.14,-359.7C72.14,-351.98 72.14,-342.71 72.14,-334.11"/>
<polygon fill="black" stroke="black" points="75.64,-334.1 72.14,-324.1 68.64,-334.1 75.64,-334.1"/>
</g>
<!-- TransformerE -->
<g id="node9" class="node MicroTransformer">
<title>TransformerE</title>
<ellipse fill="none" stroke="black" cx="72.14" cy="-234" rx="71.49" ry="18"/>
<text text-anchor="middle" x="72.14" y="-230.3" font-family="Times-Roman" font-size="14.00">TransformerE</text>
</g>
<!-- D&#45;&gt;TransformerE -->
<g id="edge9" class="edge">
<title>D&#45;&gt;TransformerE</title>
<path fill="none" stroke="black" d="M72.14,-287.7C72.14,-279.98 72.14,-270.71 72.14,-262.11"/>
<polygon fill="black" stroke="black" points="75.64,-262.1 72.14,-252.1 68.64,-262.1 75.64,-262.1"/>
</g>
<!-- E -->
<g id="node10" class="node">
<title>E</title>
<ellipse fill="none" stroke="black" cx="72.14" cy="-162" rx="27" ry="18"/>
<text text-anchor="middle" x="72.14" y="-158.3" font-family="Times-Roman" font-size="14.00">E</text>
</g>
<!-- TransformerE&#45;&gt;E -->
<g id="edge10" class="edge">
<title>TransformerE&#45;&gt;E</title>
<path fill="none" stroke="black" d="M72.14,-215.7C72.14,-207.98 72.14,-198.71 72.14,-190.11"/>
<polygon fill="black" stroke="black" points="75.64,-190.1 72.14,-180.1 68.64,-190.1 75.64,-190.1"/>
</g>
<!-- TransformerF -->
<g id="node11" class="node MicroTransformer">
<title>TransformerF</title>
<ellipse fill="none" stroke="black" cx="72.14" cy="-90" rx="70.69" ry="18"/>
<text text-anchor="middle" x="72.14" y="-86.3" font-family="Times-Roman" font-size="14.00">TransformerF</text>
</g>
<!-- E&#45;&gt;TransformerF -->
<g id="edge11" class="edge">
<title>E&#45;&gt;TransformerF</title>
<path fill="none" stroke="black" d="M72.14,-143.7C72.14,-135.98 72.14,-126.71 72.14,-118.11"/>
<polygon fill="black" stroke="black" points="75.64,-118.1 72.14,-108.1 68.64,-118.1 75.64,-118.1"/>
</g>
<!-- F -->
<g id="node12" class="node">
<title>F</title>
<ellipse fill="none" stroke="black" cx="72.14" cy="-18" rx="27" ry="18"/>
<text text-anchor="middle" x="72.14" y="-14.3" font-family="Times-Roman" font-size="14.00">F</text>
</g>
<!-- TransformerF&#45;&gt;F -->
<g id="edge12" class="edge">
<title>TransformerF&#45;&gt;F</title>
<path fill="none" stroke="black" d="M72.14,-71.7C72.14,-63.98 72.14,-54.71 72.14,-46.11"/>
<polygon fill="black" stroke="black" points="75.64,-46.1 72.14,-36.1 68.64,-46.1 75.64,-46.1"/>
</g>
<!-- G -->
<g id="node14" class="node">
<title>G</title>
<ellipse fill="none" stroke="black" cx="234.14" cy="-450" rx="27" ry="18"/>
<text text-anchor="middle" x="234.14" y="-446.3" font-family="Times-Roman" font-size="14.00">G</text>
</g>
<!-- TransformerG&#45;&gt;G -->
<g id="edge13" class="edge">
<title>TransformerG&#45;&gt;G</title>
<path fill="none" stroke="black" d="M234.14,-503.7C234.14,-495.98 234.14,-486.71 234.14,-478.11"/>
<polygon fill="black" stroke="black" points="237.64,-478.1 234.14,-468.1 230.64,-478.1 237.64,-478.1"/>
</g>
</g>
</svg>
