<?xml version="1.0" encoding="UTF-8" standalone="no"?>
<!DOCTYPE svg PUBLIC "-//W3C//DTD SVG 1.1//EN"
 "http://www.w3.org/Graphics/SVG/1.1/DTD/svg11.dtd">
<!-- Generated by graphviz version 2.44.0 (0)
 -->
<!-- Title: G Pages: 1 -->
<svg width="912pt" height="116pt"
 viewBox="0.00 0.00 912.24 116.00" xmlns="http://www.w3.org/2000/svg" xmlns:xlink="http://www.w3.org/1999/xlink">
<g id="graph0" class="graph" transform="scale(1 1) rotate(0) translate(4 112)">
<title>G</title>
<polygon fill="white" stroke="transparent" points="-4,4 -4,-112 908.24,-112 908.24,4 -4,4"/>
<!-- RootDecisionHub -->
<g id="node1" class="node">
<title>RootDecisionHub</title>
<ellipse fill="none" stroke="black" cx="445.19" cy="-90" rx="87.18" ry="18"/>
<text text-anchor="middle" x="445.19" y="-86.3" font-family="Times-Roman" font-size="14.00">RootDecisionHub</text>
</g>
<!-- ProducerA -->
<g id="node2" class="node CPUCruncher">
<title>ProducerA</title>
<ellipse fill="none" stroke="black" cx="57.19" cy="-18" rx="57.39" ry="18"/>
<text text-anchor="middle" x="57.19" y="-14.3" font-family="Times-Roman" font-size="14.00">ProducerA</text>
</g>
<!-- RootDecisionHub&#45;&gt;ProducerA -->
<g id="edge1" class="edge">
<title>RootDecisionHub&#45;&gt;ProducerA</title>
<path fill="none" stroke="black" d="M375.37,-79.22C310.13,-69.66 210.17,-53.97 124.19,-36 119.26,-34.97 114.13,-33.82 109.02,-32.61"/>
<polygon fill="black" stroke="black" points="109.78,-29.2 99.24,-30.25 108.14,-36 109.78,-29.2"/>
</g>
<!-- TransformerA -->
<g id="node3" class="node CPUCruncher">
<title>TransformerA</title>
<ellipse fill="none" stroke="black" cx="204.19" cy="-18" rx="71.49" ry="18"/>
<text text-anchor="middle" x="204.19" y="-14.3" font-family="Times-Roman" font-size="14.00">TransformerA</text>
</g>
<!-- RootDecisionHub&#45;&gt;TransformerA -->
<g id="edge2" class="edge">
<title>RootDecisionHub&#45;&gt;TransformerA</title>
<path fill="none" stroke="black" d="M397,-75C357.07,-63.4 300.33,-46.92 258.74,-34.84"/>
<polygon fill="black" stroke="black" points="259.63,-31.46 249.05,-32.03 257.67,-38.18 259.63,-31.46"/>
</g>
<!-- TransformerB -->
<g id="node4" class="node CPUCruncher">
<title>TransformerB</title>
<ellipse fill="none" stroke="black" cx="365.19" cy="-18" rx="71.49" ry="18"/>
<text text-anchor="middle" x="365.19" y="-14.3" font-family="Times-Roman" font-size="14.00">TransformerB</text>
</g>
<!-- RootDecisionHub&#45;&gt;TransformerB -->
<g id="edge3" class="edge">
<title>RootDecisionHub&#45;&gt;TransformerB</title>
<path fill="none" stroke="black" d="M426.24,-72.41C415.87,-63.34 402.88,-51.97 391.55,-42.06"/>
<polygon fill="black" stroke="black" points="393.85,-39.42 384.02,-35.47 389.24,-44.69 393.85,-39.42"/>
</g>
<!-- TransformerC -->
<g id="node5" class="node CPUCruncher">
<title>TransformerC</title>
<ellipse fill="none" stroke="black" cx="526.19" cy="-18" rx="71.49" ry="18"/>
<text text-anchor="middle" x="526.19" y="-14.3" font-family="Times-Roman" font-size="14.00">TransformerC</text>
</g>
<!-- RootDecisionHub&#45;&gt;TransformerC -->
<g id="edge4" class="edge">
<title>RootDecisionHub&#45;&gt;TransformerC</title>
<path fill="none" stroke="black" d="M464.39,-72.41C474.88,-63.34 488.04,-51.97 499.51,-42.06"/>
<polygon fill="black" stroke="black" points="501.86,-44.66 507.14,-35.47 497.28,-39.36 501.86,-44.66"/>
</g>
<!-- TransformerD -->
<g id="node6" class="node CPUCruncher">
<title>TransformerD</title>
<ellipse fill="none" stroke="black" cx="688.19" cy="-18" rx="72.29" ry="18"/>
<text text-anchor="middle" x="688.19" y="-14.3" font-family="Times-Roman" font-size="14.00">TransformerD</text>
</g>
<!-- RootDecisionHub&#45;&gt;TransformerD -->
<g id="edge5" class="edge">
<title>RootDecisionHub&#45;&gt;TransformerD</title>
<path fill="none" stroke="black" d="M493.79,-75C534.05,-63.4 591.26,-46.92 633.2,-34.84"/>
<polygon fill="black" stroke="black" points="634.33,-38.16 642.97,-32.03 632.39,-31.43 634.33,-38.16"/>
</g>
<!-- ConsumerE -->
<g id="node7" class="node CPUCruncher">
<title>ConsumerE</title>
<ellipse fill="none" stroke="black" cx="841.19" cy="-18" rx="63.09" ry="18"/>
<text text-anchor="middle" x="841.19" y="-14.3" font-family="Times-Roman" font-size="14.00">ConsumerE</text>
</g>
<!-- RootDecisionHub&#45;&gt;ConsumerE -->
<g id="edge6" class="edge">
<title>RootDecisionHub&#45;&gt;ConsumerE</title>
<path fill="none" stroke="black" d="M514.66,-79.07C580.43,-69.33 681.86,-53.43 769.19,-36 774.47,-34.95 779.94,-33.78 785.41,-32.57"/>
<polygon fill="black" stroke="black" points="786.22,-35.98 795.21,-30.36 784.68,-29.15 786.22,-35.98"/>
</g>
</g>
</svg>
