<?xml version="1.0" encoding="UTF-8" standalone="no"?>
<!DOCTYPE svg PUBLIC "-//W3C//DTD SVG 1.1//EN"
 "http://www.w3.org/Graphics/SVG/1.1/DTD/svg11.dtd">
<!-- Generated by graphviz version 2.44.0 (0)
 -->
<!-- Title: G Pages: 1 -->
<svg width="725pt" height="116pt"
 viewBox="0.00 0.00 724.50 116.00" xmlns="http://www.w3.org/2000/svg" xmlns:xlink="http://www.w3.org/1999/xlink">
<g id="graph0" class="graph" transform="scale(1 1) rotate(0) translate(4 112)">
<title>G</title>
<polygon fill="white" stroke="transparent" points="-4,4 -4,-112 720.5,-112 720.5,4 -4,4"/>
<!-- RootDecisionHub -->
<g id="node1" class="node">
<title>RootDecisionHub</title>
<polygon fill="none" stroke="black" points="353,-108 229.67,-90 353,-72 476.33,-90 353,-108"/>
<text text-anchor="middle" x="353" y="-86.3" font-family="Times-Roman" font-size="14.00">RootDecisionHub</text>
</g>
<!-- ProducerA -->
<g id="node2" class="node CPUCruncher">
<title>ProducerA</title>
<polygon fill="none" stroke="black" points="88,-36 0,-36 0,0 88,0 88,-36"/>
<text text-anchor="middle" x="44" y="-14.3" font-family="Times-Roman" font-size="14.00">ProducerA</text>
</g>
<!-- RootDecisionHub&#45;&gt;ProducerA -->
<g id="edge1" class="edge">
<title>RootDecisionHub&#45;&gt;ProducerA</title>
<path fill="none" stroke="black" d="M299.67,-79.67C249.85,-70.57 173.28,-55.6 98.24,-36.19"/>
<polygon fill="black" stroke="black" points="98.7,-32.69 88.14,-33.55 96.93,-39.46 98.7,-32.69"/>
</g>
<!-- TransformerA -->
<g id="node3" class="node CPUCruncher">
<title>TransformerA</title>
<polygon fill="none" stroke="black" points="216,-36 106,-36 106,0 216,0 216,-36"/>
<text text-anchor="middle" x="161" y="-14.3" font-family="Times-Roman" font-size="14.00">TransformerA</text>
</g>
<!-- RootDecisionHub&#45;&gt;TransformerA -->
<g id="edge2" class="edge">
<title>RootDecisionHub&#45;&gt;TransformerA</title>
<path fill="none" stroke="black" d="M319.56,-76.81C291.39,-66.54 250.51,-51.63 217.31,-39.53"/>
<polygon fill="black" stroke="black" points="218.32,-36.17 207.72,-36.03 215.92,-42.75 218.32,-36.17"/>
</g>
<!-- TransformerB -->
<g id="node4" class="node CPUCruncher">
<title>TransformerB</title>
<polygon fill="none" stroke="black" points="344,-36 234,-36 234,0 344,0 344,-36"/>
<text text-anchor="middle" x="289" y="-14.3" font-family="Times-Roman" font-size="14.00">TransformerB</text>
</g>
<!-- RootDecisionHub&#45;&gt;TransformerB -->
<g id="edge3" class="edge">
<title>RootDecisionHub&#45;&gt;TransformerB</title>
<path fill="none" stroke="black" d="M339.11,-73.81C331.03,-64.97 320.64,-53.61 311.42,-43.52"/>
<polygon fill="black" stroke="black" points="313.99,-41.15 304.66,-36.13 308.82,-45.87 313.99,-41.15"/>
</g>
<!-- TransformerC -->
<g id="node5" class="node CPUCruncher">
<title>TransformerC</title>
<polygon fill="none" stroke="black" points="472,-36 362,-36 362,0 472,0 472,-36"/>
<text text-anchor="middle" x="417" y="-14.3" font-family="Times-Roman" font-size="14.00">TransformerC</text>
</g>
<!-- RootDecisionHub&#45;&gt;TransformerC -->
<g id="edge4" class="edge">
<title>RootDecisionHub&#45;&gt;TransformerC</title>
<path fill="none" stroke="black" d="M366.89,-73.81C374.97,-64.97 385.36,-53.61 394.58,-43.52"/>
<polygon fill="black" stroke="black" points="397.18,-45.87 401.34,-36.13 392.01,-41.15 397.18,-45.87"/>
</g>
<!-- TransformerD -->
<g id="node6" class="node CPUCruncher">
<title>TransformerD</title>
<polygon fill="none" stroke="black" points="601.5,-36 490.5,-36 490.5,0 601.5,0 601.5,-36"/>
<text text-anchor="middle" x="546" y="-14.3" font-family="Times-Roman" font-size="14.00">TransformerD</text>
</g>
<!-- RootDecisionHub&#45;&gt;TransformerD -->
<g id="edge5" class="edge">
<title>RootDecisionHub&#45;&gt;TransformerD</title>
<path fill="none" stroke="black" d="M386.62,-76.81C414.93,-66.54 456.03,-51.63 489.4,-39.53"/>
<polygon fill="black" stroke="black" points="490.83,-42.73 499.03,-36.03 488.44,-36.15 490.83,-42.73"/>
</g>
<!-- ConsumerE -->
<g id="node7" class="node CPUCruncher">
<title>ConsumerE</title>
<polygon fill="none" stroke="black" points="716.5,-36 619.5,-36 619.5,0 716.5,0 716.5,-36"/>
<text text-anchor="middle" x="668" y="-14.3" font-family="Times-Roman" font-size="14.00">ConsumerE</text>
</g>
<!-- RootDecisionHub&#45;&gt;ConsumerE -->
<g id="edge6" class="edge">
<title>RootDecisionHub&#45;&gt;ConsumerE</title>
<path fill="none" stroke="black" d="M405.68,-79.57C455.89,-70.27 533.77,-55.04 609.55,-36.27"/>
<polygon fill="black" stroke="black" points="610.41,-39.66 619.26,-33.84 608.71,-32.87 610.41,-39.66"/>
</g>
</g>
</svg>
