<?xml version="1.0" encoding="UTF-8" standalone="no"?>
<!DOCTYPE svg PUBLIC "-//W3C//DTD SVG 1.1//EN"
 "http://www.w3.org/Graphics/SVG/1.1/DTD/svg11.dtd">
<!-- Generated by graphviz version 2.44.0 (0)
 -->
<!-- Title: G Pages: 1 -->
<svg width="119pt" height="764pt"
 viewBox="0.00 0.00 119.00 764.00" xmlns="http://www.w3.org/2000/svg" xmlns:xlink="http://www.w3.org/1999/xlink">
<g id="graph0" class="graph" transform="scale(1 1) rotate(0) translate(4 760)">
<title>G</title>
<polygon fill="white" stroke="transparent" points="-4,4 -4,-760 115,-760 115,4 -4,4"/>
<!-- ProducerA -->
<g id="node1" class="node CPUCruncher">
<title>ProducerA</title>
<polygon fill="none" stroke="black" points="99.5,-756 11.5,-756 11.5,-720 99.5,-720 99.5,-756"/>
<text text-anchor="middle" x="55.5" y="-734.3" font-family="Times-Roman" font-size="14.00">ProducerA</text>
</g>
<!-- a -->
<g id="node2" class="node">
<title>a</title>
<ellipse fill="none" stroke="black" cx="55.5" cy="-666" rx="27" ry="18"/>
<text text-anchor="middle" x="55.5" y="-662.3" font-family="Times-Roman" font-size="14.00">a</text>
</g>
<!-- ProducerA&#45;&gt;a -->
<g id="edge1" class="edge">
<title>ProducerA&#45;&gt;a</title>
<path fill="none" stroke="black" d="M55.5,-719.7C55.5,-711.98 55.5,-702.71 55.5,-694.11"/>
<polygon fill="black" stroke="black" points="59,-694.1 55.5,-684.1 52,-694.1 59,-694.1"/>
</g>
<!-- TransformerA -->
<g id="node3" class="node CPUCruncher">
<title>TransformerA</title>
<polygon fill="none" stroke="black" points="110.5,-612 0.5,-612 0.5,-576 110.5,-576 110.5,-612"/>
<text text-anchor="middle" x="55.5" y="-590.3" font-family="Times-Roman" font-size="14.00">TransformerA</text>
</g>
<!-- a&#45;&gt;TransformerA -->
<g id="edge2" class="edge">
<title>a&#45;&gt;TransformerA</title>
<path fill="none" stroke="black" d="M55.5,-647.7C55.5,-639.98 55.5,-630.71 55.5,-622.11"/>
<polygon fill="black" stroke="black" points="59,-622.1 55.5,-612.1 52,-622.1 59,-622.1"/>
</g>
<!-- b -->
<g id="node4" class="node">
<title>b</title>
<ellipse fill="none" stroke="black" cx="55.5" cy="-522" rx="27" ry="18"/>
<text text-anchor="middle" x="55.5" y="-518.3" font-family="Times-Roman" font-size="14.00">b</text>
</g>
<!-- TransformerA&#45;&gt;b -->
<g id="edge3" class="edge">
<title>TransformerA&#45;&gt;b</title>
<path fill="none" stroke="black" d="M55.5,-575.7C55.5,-567.98 55.5,-558.71 55.5,-550.11"/>
<polygon fill="black" stroke="black" points="59,-550.1 55.5,-540.1 52,-550.1 59,-550.1"/>
</g>
<!-- TransformerB -->
<g id="node5" class="node CPUCruncher">
<title>TransformerB</title>
<polygon fill="none" stroke="black" points="110.5,-468 0.5,-468 0.5,-432 110.5,-432 110.5,-468"/>
<text text-anchor="middle" x="55.5" y="-446.3" font-family="Times-Roman" font-size="14.00">TransformerB</text>
</g>
<!-- b&#45;&gt;TransformerB -->
<g id="edge4" class="edge">
<title>b&#45;&gt;TransformerB</title>
<path fill="none" stroke="black" d="M55.5,-503.7C55.5,-495.98 55.5,-486.71 55.5,-478.11"/>
<polygon fill="black" stroke="black" points="59,-478.1 55.5,-468.1 52,-478.1 59,-478.1"/>
</g>
<!-- c -->
<g id="node6" class="node">
<title>c</title>
<ellipse fill="none" stroke="black" cx="55.5" cy="-378" rx="27" ry="18"/>
<text text-anchor="middle" x="55.5" y="-374.3" font-family="Times-Roman" font-size="14.00">c</text>
</g>
<!-- TransformerB&#45;&gt;c -->
<g id="edge5" class="edge">
<title>TransformerB&#45;&gt;c</title>
<path fill="none" stroke="black" d="M55.5,-431.7C55.5,-423.98 55.5,-414.71 55.5,-406.11"/>
<polygon fill="black" stroke="black" points="59,-406.1 55.5,-396.1 52,-406.1 59,-406.1"/>
</g>
<!-- TransformerC -->
<g id="node7" class="node CPUCruncher">
<title>TransformerC</title>
<polygon fill="none" stroke="black" points="110.5,-324 0.5,-324 0.5,-288 110.5,-288 110.5,-324"/>
<text text-anchor="middle" x="55.5" y="-302.3" font-family="Times-Roman" font-size="14.00">TransformerC</text>
</g>
<!-- c&#45;&gt;TransformerC -->
<g id="edge6" class="edge">
<title>c&#45;&gt;TransformerC</title>
<path fill="none" stroke="black" d="M55.5,-359.7C55.5,-351.98 55.5,-342.71 55.5,-334.11"/>
<polygon fill="black" stroke="black" points="59,-334.1 55.5,-324.1 52,-334.1 59,-334.1"/>
</g>
<!-- d -->
<g id="node8" class="node">
<title>d</title>
<ellipse fill="none" stroke="black" cx="55.5" cy="-234" rx="27" ry="18"/>
<text text-anchor="middle" x="55.5" y="-230.3" font-family="Times-Roman" font-size="14.00">d</text>
</g>
<!-- TransformerC&#45;&gt;d -->
<g id="edge7" class="edge">
<title>TransformerC&#45;&gt;d</title>
<path fill="none" stroke="black" d="M55.5,-287.7C55.5,-279.98 55.5,-270.71 55.5,-262.11"/>
<polygon fill="black" stroke="black" points="59,-262.1 55.5,-252.1 52,-262.1 59,-262.1"/>
</g>
<!-- TransformerD -->
<g id="node9" class="node CPUCruncher">
<title>TransformerD</title>
<polygon fill="none" stroke="black" points="111,-180 0,-180 0,-144 111,-144 111,-180"/>
<text text-anchor="middle" x="55.5" y="-158.3" font-family="Times-Roman" font-size="14.00">TransformerD</text>
</g>
<!-- d&#45;&gt;TransformerD -->
<g id="edge8" class="edge">
<title>d&#45;&gt;TransformerD</title>
<path fill="none" stroke="black" d="M55.5,-215.7C55.5,-207.98 55.5,-198.71 55.5,-190.11"/>
<polygon fill="black" stroke="black" points="59,-190.1 55.5,-180.1 52,-190.1 59,-190.1"/>
</g>
<!-- e -->
<g id="node10" class="node">
<title>e</title>
<ellipse fill="none" stroke="black" cx="55.5" cy="-90" rx="27" ry="18"/>
<text text-anchor="middle" x="55.5" y="-86.3" font-family="Times-Roman" font-size="14.00">e</text>
</g>
<!-- TransformerD&#45;&gt;e -->
<g id="edge9" class="edge">
<title>TransformerD&#45;&gt;e</title>
<path fill="none" stroke="black" d="M55.5,-143.7C55.5,-135.98 55.5,-126.71 55.5,-118.11"/>
<polygon fill="black" stroke="black" points="59,-118.1 55.5,-108.1 52,-118.1 59,-118.1"/>
</g>
<!-- ConsumerE -->
<g id="node11" class="node CPUCruncher">
<title>ConsumerE</title>
<polygon fill="none" stroke="black" points="104,-36 7,-36 7,0 104,0 104,-36"/>
<text text-anchor="middle" x="55.5" y="-14.3" font-family="Times-Roman" font-size="14.00">ConsumerE</text>
</g>
<!-- e&#45;&gt;ConsumerE -->
<g id="edge10" class="edge">
<title>e&#45;&gt;ConsumerE</title>
<path fill="none" stroke="black" d="M55.5,-71.7C55.5,-63.98 55.5,-54.71 55.5,-46.11"/>
<polygon fill="black" stroke="black" points="59,-46.1 55.5,-36.1 52,-46.1 59,-46.1"/>
</g>
</g>
</svg>
