<?xml version="1.0" encoding="UTF-8" standalone="no"?>
<!DOCTYPE svg PUBLIC "-//W3C//DTD SVG 1.1//EN"
 "http://www.w3.org/Graphics/SVG/1.1/DTD/svg11.dtd">
<!-- Generated by graphviz version 2.44.0 (0)
 -->
<!-- Pages: 1 -->
<svg width="1184pt" height="1070pt"
 viewBox="0.00 0.00 1183.86 1070.00" xmlns="http://www.w3.org/2000/svg" xmlns:xlink="http://www.w3.org/1999/xlink">
<g id="graph0" class="graph" transform="scale(1 1) rotate(0) translate(4 1066)">
<polygon fill="white" stroke="transparent" points="-4,4 -4,-1066 1179.86,-1066 1179.86,4 -4,4"/>
<!-- RootDecisionHub -->
<g id="node1" class="node">
<title>RootDecisionHub</title>
<polygon fill="none" stroke="black" points="123.17,-522 -0.17,-504 123.17,-486 246.5,-504 123.17,-522"/>
<text text-anchor="middle" x="123.17" y="-500.3" font-family="Times-Roman" font-size="14.00">RootDecisionHub</text>
</g>
<!-- k4FWCore__Sequencer -->
<g id="node2" class="node">
<title>k4FWCore__Sequencer</title>
<polygon fill="none" stroke="black" points="443.19,-522 282.48,-504 443.19,-486 603.89,-504 443.19,-522"/>
<text text-anchor="middle" x="443.19" y="-500.3" font-family="Times-Roman" font-size="14.00">k4FWCore__Sequencer</text>
</g>
<!-- RootDecisionHub&#45;&gt;k4FWCore__Sequencer -->
<g id="edge1" class="edge">
<title>RootDecisionHub&#45;&gt;k4FWCore__Sequencer</title>
<path fill="none" stroke="black" d="M246.67,-504C255.09,-504 263.66,-504 272.28,-504"/>
<polygon fill="black" stroke="black" points="272.4,-507.5 282.4,-504 272.4,-500.5 272.4,-507.5"/>
</g>
<!-- k4FWCore__Algs -->
<g id="node3" class="node">
<title>k4FWCore__Algs</title>
<polygon fill="none" stroke="black" points="760.45,-549 640.13,-531 760.45,-513 880.77,-531 760.45,-549"/>
<text text-anchor="middle" x="760.45" y="-527.3" font-family="Times-Roman" font-size="14.00">k4FWCore__Algs</text>
</g>
<!-- k4FWCore__Sequencer&#45;&gt;k4FWCore__Algs -->
<g id="edge2" class="edge">
<title>k4FWCore__Sequencer&#45;&gt;k4FWCore__Algs</title>
<path fill="none" stroke="black" d="M534.95,-511.77C578.48,-515.5 630.37,-519.95 673.28,-523.62"/>
<polygon fill="black" stroke="black" points="673.16,-527.12 683.43,-524.49 673.76,-520.15 673.16,-527.12"/>
</g>
<!-- k4FWCore__Writer -->
<g id="node24" class="node">
<title>k4FWCore__Writer</title>
<polygon fill="none" stroke="black" points="831.95,-495 688.95,-495 688.95,-459 831.95,-459 831.95,-495"/>
<text text-anchor="middle" x="760.45" y="-473.3" font-family="Times-Roman" font-size="14.00">k4FWCore__Writer</text>
</g>
<!-- k4FWCore__Sequencer&#45;&gt;k4FWCore__Writer -->
<g id="edge3" class="edge">
<title>k4FWCore__Sequencer&#45;&gt;k4FWCore__Writer</title>
<path fill="none" stroke="black" d="M534.95,-496.23C580.35,-492.34 634.82,-487.67 678.75,-483.91"/>
<polygon fill="black" stroke="black" points="679.14,-487.39 688.81,-483.05 678.55,-480.42 679.14,-487.39"/>
</g>
<!-- k4FWCore__Reader -->
<g id="node4" class="node">
<title>k4FWCore__Reader</title>
<polygon fill="none" stroke="black" points="1120.86,-1062 971.86,-1062 971.86,-1026 1120.86,-1026 1120.86,-1062"/>
<text text-anchor="middle" x="1046.36" y="-1040.3" font-family="Times-Roman" font-size="14.00">k4FWCore__Reader</text>
</g>
<!-- k4FWCore__Algs&#45;&gt;k4FWCore__Reader -->
<g id="edge4" class="edge">
<title>k4FWCore__Algs&#45;&gt;k4FWCore__Reader</title>
<path fill="none" stroke="black" d="M761.22,-548.9C761.35,-620.15 771.85,-886.13 916.86,-1017 929.26,-1028.19 945.09,-1035.19 961.38,-1039.48"/>
<polygon fill="black" stroke="black" points="961.02,-1042.99 971.55,-1041.81 962.58,-1036.16 961.02,-1042.99"/>
</g>
<!-- CreateTracksFromGenParticles -->
<g id="node5" class="node">
<title>CreateTracksFromGenParticles</title>
<polygon fill="none" stroke="black" points="1158.86,-1008 933.86,-1008 933.86,-972 1158.86,-972 1158.86,-1008"/>
<text text-anchor="middle" x="1046.36" y="-986.3" font-family="Times-Roman" font-size="14.00">CreateTracksFromGenParticles</text>
</g>
<!-- k4FWCore__Algs&#45;&gt;CreateTracksFromGenParticles -->
<g id="edge5" class="edge">
<title>k4FWCore__Algs&#45;&gt;CreateTracksFromGenParticles</title>
<path fill="none" stroke="black" d="M762.04,-549.19C765.25,-615.86 785.8,-848.91 916.86,-963 919.44,-965.25 922.16,-967.32 924.99,-969.24"/>
<polygon fill="black" stroke="black" points="923.42,-972.38 933.8,-974.52 927.03,-966.38 923.42,-972.38"/>
</g>
<!-- CreatePositionedECalBarrelCells -->
<g id="node6" class="node">
<title>CreatePositionedECalBarrelCells</title>
<polygon fill="none" stroke="black" points="1164.86,-954 927.86,-954 927.86,-918 1164.86,-918 1164.86,-954"/>
<text text-anchor="middle" x="1046.36" y="-932.3" font-family="Times-Roman" font-size="14.00">CreatePositionedECalBarrelCells</text>
</g>
<!-- k4FWCore__Algs&#45;&gt;CreatePositionedECalBarrelCells -->
<g id="edge6" class="edge">
<title>k4FWCore__Algs&#45;&gt;CreatePositionedECalBarrelCells</title>
<path fill="none" stroke="black" d="M763.02,-548.62C769.4,-609.27 799.04,-810.98 916.86,-909 918.24,-910.15 919.67,-911.26 921.12,-912.32"/>
<polygon fill="black" stroke="black" points="919.51,-915.45 929.8,-917.95 923.31,-909.57 919.51,-915.45"/>
</g>
<!-- CreatePositionedECalEndcapCells -->
<g id="node7" class="node">
<title>CreatePositionedECalEndcapCells</title>
<polygon fill="none" stroke="black" points="1170.36,-900 922.36,-900 922.36,-864 1170.36,-864 1170.36,-900"/>
<text text-anchor="middle" x="1046.36" y="-878.3" font-family="Times-Roman" font-size="14.00">CreatePositionedECalEndcapCells</text>
</g>
<!-- k4FWCore__Algs&#45;&gt;CreatePositionedECalEndcapCells -->
<g id="edge7" class="edge">
<title>k4FWCore__Algs&#45;&gt;CreatePositionedECalEndcapCells</title>
<path fill="none" stroke="black" d="M764.35,-548.8C774.33,-603.94 812.56,-773.16 916.86,-855 918.47,-856.27 920.13,-857.48 921.83,-858.63"/>
<polygon fill="black" stroke="black" points="920.28,-861.79 930.64,-863.99 923.91,-855.8 920.28,-861.79"/>
</g>
<!-- CreatePositionedHCalBarrelCells -->
<g id="node8" class="node">
<title>CreatePositionedHCalBarrelCells</title>
<polygon fill="none" stroke="black" points="1165.86,-846 926.86,-846 926.86,-810 1165.86,-810 1165.86,-846"/>
<text text-anchor="middle" x="1046.36" y="-824.3" font-family="Times-Roman" font-size="14.00">CreatePositionedHCalBarrelCells</text>
</g>
<!-- k4FWCore__Algs&#45;&gt;CreatePositionedHCalBarrelCells -->
<g id="edge8" class="edge">
<title>k4FWCore__Algs&#45;&gt;CreatePositionedHCalBarrelCells</title>
<path fill="none" stroke="black" d="M765.99,-548.25C779.68,-596.66 825.37,-734.6 916.86,-801 918.73,-802.36 920.66,-803.65 922.63,-804.89"/>
<polygon fill="black" stroke="black" points="921.13,-808.06 931.56,-809.9 924.56,-801.95 921.13,-808.06"/>
</g>
<!-- ReSegmentationHCalBarrel -->
<g id="node9" class="node">
<title>ReSegmentationHCalBarrel</title>
<polygon fill="none" stroke="black" points="1147.86,-792 944.86,-792 944.86,-756 1147.86,-756 1147.86,-792"/>
<text text-anchor="middle" x="1046.36" y="-770.3" font-family="Times-Roman" font-size="14.00">ReSegmentationHCalBarrel</text>
</g>
<!-- k4FWCore__Algs&#45;&gt;ReSegmentationHCalBarrel -->
<g id="edge9" class="edge">
<title>k4FWCore__Algs&#45;&gt;ReSegmentationHCalBarrel</title>
<path fill="none" stroke="black" d="M768.44,-548.06C786.34,-589.47 838.07,-695.71 916.86,-747 922.57,-750.72 928.7,-753.94 935.07,-756.72"/>
<polygon fill="black" stroke="black" points="933.98,-760.05 944.56,-760.5 936.57,-753.55 933.98,-760.05"/>
</g>
<!-- CreatePositionedHCalBarrelCells2 -->
<g id="node10" class="node">
<title>CreatePositionedHCalBarrelCells2</title>
<polygon fill="none" stroke="black" points="1170.36,-738 922.36,-738 922.36,-702 1170.36,-702 1170.36,-738"/>
<text text-anchor="middle" x="1046.36" y="-716.3" font-family="Times-Roman" font-size="14.00">CreatePositionedHCalBarrelCells2</text>
</g>
<!-- k4FWCore__Algs&#45;&gt;CreatePositionedHCalBarrelCells2 -->
<g id="edge10" class="edge">
<title>k4FWCore__Algs&#45;&gt;CreatePositionedHCalBarrelCells2</title>
<path fill="none" stroke="black" d="M772.05,-547.42C794.45,-580.66 850.06,-655.93 916.86,-693 919.99,-694.74 923.23,-696.37 926.54,-697.89"/>
<polygon fill="black" stroke="black" points="925.47,-701.24 936.05,-701.91 928.2,-694.79 925.47,-701.24"/>
</g>
<!-- CreatePositionedHCalEndcapCells -->
<g id="node11" class="node">
<title>CreatePositionedHCalEndcapCells</title>
<polygon fill="none" stroke="black" points="1171.36,-684 921.36,-684 921.36,-648 1171.36,-648 1171.36,-684"/>
<text text-anchor="middle" x="1046.36" y="-662.3" font-family="Times-Roman" font-size="14.00">CreatePositionedHCalEndcapCells</text>
</g>
<!-- k4FWCore__Algs&#45;&gt;CreatePositionedHCalEndcapCells -->
<g id="edge11" class="edge">
<title>k4FWCore__Algs&#45;&gt;CreatePositionedHCalEndcapCells</title>
<path fill="none" stroke="black" d="M778.68,-546.53C805.96,-570.23 861.65,-615.19 916.86,-639 921.64,-641.06 926.59,-642.97 931.65,-644.74"/>
<polygon fill="black" stroke="black" points="930.88,-648.17 941.48,-647.97 933.07,-641.52 930.88,-648.17"/>
</g>
<!-- ReSegmentationHCalEndcap -->
<g id="node12" class="node">
<title>ReSegmentationHCalEndcap</title>
<polygon fill="none" stroke="black" points="1153.86,-630 938.86,-630 938.86,-594 1153.86,-594 1153.86,-630"/>
<text text-anchor="middle" x="1046.36" y="-608.3" font-family="Times-Roman" font-size="14.00">ReSegmentationHCalEndcap</text>
</g>
<!-- k4FWCore__Algs&#45;&gt;ReSegmentationHCalEndcap -->
<g id="edge12" class="edge">
<title>k4FWCore__Algs&#45;&gt;ReSegmentationHCalEndcap</title>
<path fill="none" stroke="black" d="M794.71,-543.94C825.92,-555.75 874.06,-573.12 916.86,-585 925.16,-587.3 933.81,-589.52 942.52,-591.61"/>
<polygon fill="black" stroke="black" points="941.83,-595.05 952.37,-593.93 943.44,-588.23 941.83,-595.05"/>
</g>
<!-- CreatePositionedHCalEndcapCells2 -->
<g id="node13" class="node">
<title>CreatePositionedHCalEndcapCells2</title>
<polygon fill="none" stroke="black" points="1175.86,-576 916.86,-576 916.86,-540 1175.86,-540 1175.86,-576"/>
<text text-anchor="middle" x="1046.36" y="-554.3" font-family="Times-Roman" font-size="14.00">CreatePositionedHCalEndcapCells2</text>
</g>
<!-- k4FWCore__Algs&#45;&gt;CreatePositionedHCalEndcapCells2 -->
<g id="edge13" class="edge">
<title>k4FWCore__Algs&#45;&gt;CreatePositionedHCalEndcapCells2</title>
<path fill="none" stroke="black" d="M834.56,-537.95C856.58,-540.05 881.52,-542.42 906.34,-544.78"/>
<polygon fill="black" stroke="black" points="906.3,-548.29 916.58,-545.75 906.96,-541.32 906.3,-548.29"/>
</g>
<!-- CreateEmptyCaloCells -->
<g id="node14" class="node">
<title>CreateEmptyCaloCells</title>
<polygon fill="none" stroke="black" points="1131.36,-522 961.36,-522 961.36,-486 1131.36,-486 1131.36,-522"/>
<text text-anchor="middle" x="1046.36" y="-500.3" font-family="Times-Roman" font-size="14.00">CreateEmptyCaloCells</text>
</g>
<!-- k4FWCore__Algs&#45;&gt;CreateEmptyCaloCells -->
<g id="edge14" class="edge">
<title>k4FWCore__Algs&#45;&gt;CreateEmptyCaloCells</title>
<path fill="none" stroke="black" d="M834.56,-524.05C870.08,-520.67 913.19,-516.57 951.14,-512.96"/>
<polygon fill="black" stroke="black" points="951.56,-516.44 961.18,-512.01 950.89,-509.47 951.56,-516.44"/>
</g>
<!-- CreateEMBCaloClusters -->
<g id="node15" class="node">
<title>CreateEMBCaloClusters</title>
<polygon fill="none" stroke="black" points="1135.86,-468 956.86,-468 956.86,-432 1135.86,-432 1135.86,-468"/>
<text text-anchor="middle" x="1046.36" y="-446.3" font-family="Times-Roman" font-size="14.00">CreateEMBCaloClusters</text>
</g>
<!-- k4FWCore__Algs&#45;&gt;CreateEMBCaloClusters -->
<g id="edge15" class="edge">
<title>k4FWCore__Algs&#45;&gt;CreateEMBCaloClusters</title>
<path fill="none" stroke="black" d="M822.9,-522.25C842.03,-518.19 862.82,-512.34 880.86,-504 899.01,-495.61 898.64,-485.25 916.86,-477 926.3,-472.72 936.44,-469.11 946.74,-466.07"/>
<polygon fill="black" stroke="black" points="947.94,-469.37 956.64,-463.32 946.06,-462.62 947.94,-469.37"/>
</g>
<!-- AugmentEMBCaloClusters -->
<g id="node16" class="node">
<title>AugmentEMBCaloClusters</title>
<polygon fill="none" stroke="black" points="1144.86,-414 947.86,-414 947.86,-378 1144.86,-378 1144.86,-414"/>
<text text-anchor="middle" x="1046.36" y="-392.3" font-family="Times-Roman" font-size="14.00">AugmentEMBCaloClusters</text>
</g>
<!-- k4FWCore__Algs&#45;&gt;AugmentEMBCaloClusters -->
<g id="edge16" class="edge">
<title>k4FWCore__Algs&#45;&gt;AugmentEMBCaloClusters</title>
<path fill="none" stroke="black" d="M838.26,-524.6C853.6,-520.45 868.7,-513.98 880.86,-504 911.31,-479 886.22,-447.77 916.86,-423 923.42,-417.7 930.77,-413.36 938.55,-409.82"/>
<polygon fill="black" stroke="black" points="939.91,-413.05 947.85,-406.03 937.26,-406.57 939.91,-413.05"/>
</g>
<!-- CalibrateEMBCaloClusters -->
<g id="node17" class="node">
<title>CalibrateEMBCaloClusters</title>
<polygon fill="none" stroke="black" points="1144.36,-360 948.36,-360 948.36,-324 1144.36,-324 1144.36,-360"/>
<text text-anchor="middle" x="1046.36" y="-338.3" font-family="Times-Roman" font-size="14.00">CalibrateEMBCaloClusters</text>
</g>
<!-- k4FWCore__Algs&#45;&gt;CalibrateEMBCaloClusters -->
<g id="edge17" class="edge">
<title>k4FWCore__Algs&#45;&gt;CalibrateEMBCaloClusters</title>
<path fill="none" stroke="black" d="M842.29,-525.2C856.55,-520.92 870.22,-514.24 880.86,-504 925.6,-460.94 871.79,-411.72 916.86,-369 923.35,-362.85 930.87,-357.95 938.95,-354.06"/>
<polygon fill="black" stroke="black" points="940.46,-357.22 948.29,-350.08 937.71,-350.78 940.46,-357.22"/>
</g>
<!-- CreateEMECCaloClusters -->
<g id="node18" class="node">
<title>CreateEMECCaloClusters</title>
<polygon fill="none" stroke="black" points="1140.36,-306 952.36,-306 952.36,-270 1140.36,-270 1140.36,-306"/>
<text text-anchor="middle" x="1046.36" y="-284.3" font-family="Times-Roman" font-size="14.00">CreateEMECCaloClusters</text>
</g>
<!-- k4FWCore__Algs&#45;&gt;CreateEMECCaloClusters -->
<g id="edge18" class="edge">
<title>k4FWCore__Algs&#45;&gt;CreateEMECCaloClusters</title>
<path fill="none" stroke="black" d="M844.11,-525.42C857.87,-521.07 870.89,-514.32 880.86,-504 940.28,-442.51 856.97,-376.03 916.86,-315 924.24,-307.48 933.14,-301.79 942.78,-297.53"/>
<polygon fill="black" stroke="black" points="944.17,-300.74 952.22,-293.86 941.63,-294.22 944.17,-300.74"/>
</g>
<!-- CreateCaloClusters -->
<g id="node19" class="node">
<title>CreateCaloClusters</title>
<polygon fill="none" stroke="black" points="1120.86,-252 971.86,-252 971.86,-216 1120.86,-216 1120.86,-252"/>
<text text-anchor="middle" x="1046.36" y="-230.3" font-family="Times-Roman" font-size="14.00">CreateCaloClusters</text>
</g>
<!-- k4FWCore__Algs&#45;&gt;CreateCaloClusters -->
<g id="edge19" class="edge">
<title>k4FWCore__Algs&#45;&gt;CreateCaloClusters</title>
<path fill="none" stroke="black" d="M845.07,-525.55C858.57,-521.16 871.25,-514.36 880.86,-504 955.1,-423.95 842.01,-340.48 916.86,-261 928.75,-248.38 944.92,-240.87 961.77,-236.56"/>
<polygon fill="black" stroke="black" points="962.73,-239.93 971.75,-234.37 961.23,-233.09 962.73,-239.93"/>
</g>
<!-- CreateEMBCaloTopoClusters -->
<g id="node20" class="node">
<title>CreateEMBCaloTopoClusters</title>
<polygon fill="none" stroke="black" points="1151.36,-198 941.36,-198 941.36,-162 1151.36,-162 1151.36,-198"/>
<text text-anchor="middle" x="1046.36" y="-176.3" font-family="Times-Roman" font-size="14.00">CreateEMBCaloTopoClusters</text>
</g>
<!-- k4FWCore__Algs&#45;&gt;CreateEMBCaloTopoClusters -->
<g id="edge20" class="edge">
<title>k4FWCore__Algs&#45;&gt;CreateEMBCaloTopoClusters</title>
<path fill="none" stroke="black" d="M845.6,-525.66C858.97,-521.25 871.46,-514.41 880.86,-504 969.98,-405.32 826.99,-305 916.86,-207 921.36,-202.09 926.5,-197.96 932.09,-194.47"/>
<polygon fill="black" stroke="black" points="934.08,-197.37 941.2,-189.53 930.74,-191.22 934.08,-197.37"/>
</g>
<!-- AugmentEMBCaloTopoClusters -->
<g id="node21" class="node">
<title>AugmentEMBCaloTopoClusters</title>
<polygon fill="none" stroke="black" points="1160.86,-144 931.86,-144 931.86,-108 1160.86,-108 1160.86,-144"/>
<text text-anchor="middle" x="1046.36" y="-122.3" font-family="Times-Roman" font-size="14.00">AugmentEMBCaloTopoClusters</text>
</g>
<!-- k4FWCore__Algs&#45;&gt;AugmentEMBCaloTopoClusters -->
<g id="edge21" class="edge">
<title>k4FWCore__Algs&#45;&gt;AugmentEMBCaloTopoClusters</title>
<path fill="none" stroke="black" d="M846.07,-525.7C859.3,-521.27 871.62,-514.42 880.86,-504 984.89,-386.65 811.94,-269.55 916.86,-153 918.9,-150.74 921.07,-148.64 923.36,-146.69"/>
<polygon fill="black" stroke="black" points="925.61,-149.38 931.58,-140.63 921.45,-143.75 925.61,-149.38"/>
</g>
<!-- CalibrateEMBCaloTopoClusters -->
<g id="node22" class="node">
<title>CalibrateEMBCaloTopoClusters</title>
<polygon fill="none" stroke="black" points="1159.86,-90 932.86,-90 932.86,-54 1159.86,-54 1159.86,-90"/>
<text text-anchor="middle" x="1046.36" y="-68.3" font-family="Times-Roman" font-size="14.00">CalibrateEMBCaloTopoClusters</text>
</g>
<!-- k4FWCore__Algs&#45;&gt;CalibrateEMBCaloTopoClusters -->
<g id="edge22" class="edge">
<title>k4FWCore__Algs&#45;&gt;CalibrateEMBCaloTopoClusters</title>
<path fill="none" stroke="black" d="M846.18,-525.81C859.4,-521.36 871.69,-514.48 880.86,-504 940.34,-435.98 856.86,-166.56 916.86,-99 919.17,-96.4 921.66,-94.02 924.3,-91.83"/>
<polygon fill="black" stroke="black" points="926.56,-94.51 932.64,-85.84 922.48,-88.83 926.56,-94.51"/>
</g>
<!-- CreateCaloTopoClusters -->
<g id="node23" class="node">
<title>CreateCaloTopoClusters</title>
<polygon fill="none" stroke="black" points="1136.36,-36 956.36,-36 956.36,0 1136.36,0 1136.36,-36"/>
<text text-anchor="middle" x="1046.36" y="-14.3" font-family="Times-Roman" font-size="14.00">CreateCaloTopoClusters</text>
</g>
<!-- k4FWCore__Algs&#45;&gt;CreateCaloTopoClusters -->
<g id="edge23" class="edge">
<title>k4FWCore__Algs&#45;&gt;CreateCaloTopoClusters</title>
<path fill="none" stroke="black" d="M846.58,-525.78C859.67,-521.33 871.82,-514.45 880.86,-504 947.81,-426.63 849.32,-121.85 916.86,-45 924.91,-35.84 935.21,-29.32 946.47,-24.75"/>
<polygon fill="black" stroke="black" points="947.85,-27.98 956.12,-21.36 945.53,-21.38 947.85,-27.98"/>
</g>
</g>
</svg>
