<?xml version="1.0" encoding="UTF-8" standalone="no"?>
<!DOCTYPE svg PUBLIC "-//W3C//DTD SVG 1.1//EN"
 "http://www.w3.org/Graphics/SVG/1.1/DTD/svg11.dtd">
<!-- Generated by graphviz version 2.50.0 (20211204.2007)
 -->
<!-- Title: G Pages: 1 -->
<svg width="205pt" height="332pt"
 viewBox="0.00 0.00 205.00 332.00" xmlns="http://www.w3.org/2000/svg" xmlns:xlink="http://www.w3.org/1999/xlink">
<g id="graph0" class="graph" transform="scale(1 1) rotate(0) translate(4 328)">
<title>G</title>
<polygon fill="white" stroke="transparent" points="-4,4 -4,-328 201,-328 201,4 -4,4"/>
<!-- 1 -->
<g id="node1" class="node">
<title>1</title>
<polygon fill="none" stroke="black" points="163,-324 34,-324 34,-288 163,-288 163,-324"/>
<text text-anchor="middle" x="98.5" y="-302.3" font-family="Times,serif" font-size="14.00">k4FWCore__Reader</text>
</g>
<!-- 2 -->
<g id="node2" class="node">
<title>2</title>
<polygon fill="none" stroke="black" points="197,-252 0,-252 0,-216 197,-216 197,-252"/>
<text text-anchor="middle" x="98.5" y="-230.3" font-family="Times,serif" font-size="14.00">CreatePositionedECalBarrelCells</text>
</g>
<!-- 1&#45;&gt;2 -->
<g id="edge1" class="edge">
<title>1&#45;&gt;2</title>
<path fill="none" stroke="black" d="M98.5,-287.7C98.5,-279.98 98.5,-270.71 98.5,-262.11"/>
<polygon fill="black" stroke="black" points="102,-262.1 98.5,-252.1 95,-262.1 102,-262.1"/>
</g>
<!-- 3 -->
<g id="node3" class="node">
<title>3</title>
<polygon fill="none" stroke="black" points="174.5,-180 22.5,-180 22.5,-144 174.5,-144 174.5,-180"/>
<text text-anchor="middle" x="98.5" y="-158.3" font-family="Times,serif" font-size="14.00">CreateEMBCaloClusters</text>
</g>
<!-- 2&#45;&gt;3 -->
<g id="edge2" class="edge">
<title>2&#45;&gt;3</title>
<path fill="none" stroke="black" d="M98.5,-215.7C98.5,-207.98 98.5,-198.71 98.5,-190.11"/>
<polygon fill="black" stroke="black" points="102,-190.1 98.5,-180.1 95,-190.1 102,-190.1"/>
</g>
<!-- 4 -->
<g id="node4" class="node">
<title>4</title>
<polygon fill="none" stroke="black" points="182,-108 15,-108 15,-72 182,-72 182,-108"/>
<text text-anchor="middle" x="98.5" y="-86.3" font-family="Times,serif" font-size="14.00">AugmentEMBCaloClusters</text>
</g>
<!-- 3&#45;&gt;4 -->
<g id="edge3" class="edge">
<title>3&#45;&gt;4</title>
<path fill="none" stroke="black" d="M98.5,-143.7C98.5,-135.98 98.5,-126.71 98.5,-118.11"/>
<polygon fill="black" stroke="black" points="102,-118.1 98.5,-108.1 95,-118.1 102,-118.1"/>
</g>
<!-- 5 -->
<g id="node5" class="node">
<title>5</title>
<polygon fill="none" stroke="black" points="181.5,-36 15.5,-36 15.5,0 181.5,0 181.5,-36"/>
<text text-anchor="middle" x="98.5" y="-14.3" font-family="Times,serif" font-size="14.00">CalibrateEMBCaloClusters</text>
</g>
<!-- 4&#45;&gt;5 -->
<g id="edge4" class="edge">
<title>4&#45;&gt;5</title>
<path fill="none" stroke="black" d="M98.5,-71.7C98.5,-63.98 98.5,-54.71 98.5,-46.11"/>
<polygon fill="black" stroke="black" points="102,-46.1 98.5,-36.1 95,-46.1 102,-46.1"/>
</g>
</g>
</svg>
