<?xml version="1.0" encoding="UTF-8" standalone="no"?>
<!DOCTYPE svg PUBLIC "-//W3C//DTD SVG 1.1//EN"
 "http://www.w3.org/Graphics/SVG/1.1/DTD/svg11.dtd">
<!-- Generated by graphviz version 2.44.0 (0)
 -->
<!-- Pages: 1 -->
<svg width="4400pt" height="1000pt"
 viewBox="0.00 0.00 4399.77 1000.00" xmlns="http://www.w3.org/2000/svg" xmlns:xlink="http://www.w3.org/1999/xlink">
<g id="graph0" class="graph" transform="scale(1 1) rotate(0) translate(4 996)">
<polygon fill="white" stroke="transparent" points="-4,4 -4,-996 4395.77,-996 4395.77,4 -4,4"/>
<!-- k4FWCore__Reader -->
<g id="node1" class="node">
<title>k4FWCore__Reader</title>
<polygon fill="none" stroke="black" points="149,-495 0,-495 0,-459 149,-459 149,-495"/>
<text text-anchor="middle" x="74.5" y="-473.3" font-family="Times-Roman" font-size="14.00">k4FWCore__Reader</text>
</g>
<!-- SiWrBCollection -->
<g id="node47" class="node">
<title>SiWrBCollection</title>
<ellipse fill="none" stroke="black" cx="394.93" cy="-904" rx="81.49" ry="18"/>
<text text-anchor="middle" x="394.93" y="-900.3" font-family="Times-Roman" font-size="14.00">SiWrBCollection</text>
</g>
<!-- k4FWCore__Reader&#45;&gt;SiWrBCollection -->
<g id="edge1" class="edge">
<title>k4FWCore__Reader&#45;&gt;SiWrBCollection</title>
<path fill="none" stroke="black" d="M140.06,-495.18C143.4,-497.74 146.42,-500.66 149,-504 199.89,-569.91 127.07,-817.17 185,-877 218.94,-912.06 274.25,-917.91 319.43,-915.47"/>
<polygon fill="black" stroke="black" points="319.76,-918.96 329.5,-914.79 319.28,-911.97 319.76,-918.96"/>
</g>
<!-- VertexBarrelCollection -->
<g id="node48" class="node">
<title>VertexBarrelCollection</title>
<ellipse fill="none" stroke="black" cx="394.93" cy="-850" rx="109.68" ry="18"/>
<text text-anchor="middle" x="394.93" y="-846.3" font-family="Times-Roman" font-size="14.00">VertexBarrelCollection</text>
</g>
<!-- k4FWCore__Reader&#45;&gt;VertexBarrelCollection -->
<g id="edge2" class="edge">
<title>k4FWCore__Reader&#45;&gt;VertexBarrelCollection</title>
<path fill="none" stroke="black" d="M140,-495.23C143.35,-497.78 146.4,-500.69 149,-504 237.1,-616.23 84.93,-721.3 185,-823 214.62,-853.11 260.03,-861.54 300.96,-861.74"/>
<polygon fill="black" stroke="black" points="301.02,-865.24 310.98,-861.63 300.94,-858.24 301.02,-865.24"/>
</g>
<!-- HCalEndcapReadoutContributions -->
<g id="node49" class="node">
<title>HCalEndcapReadoutContributions</title>
<ellipse fill="none" stroke="black" cx="394.93" cy="-796" rx="163.27" ry="18"/>
<text text-anchor="middle" x="394.93" y="-792.3" font-family="Times-Roman" font-size="14.00">HCalEndcapReadoutContributions</text>
</g>
<!-- k4FWCore__Reader&#45;&gt;HCalEndcapReadoutContributions -->
<g id="edge3" class="edge">
<title>k4FWCore__Reader&#45;&gt;HCalEndcapReadoutContributions</title>
<path fill="none" stroke="black" d="M139.57,-495.06C143.08,-497.65 146.27,-500.61 149,-504 222.19,-594.84 103.11,-680.92 185,-764 196.04,-775.2 209.24,-783.55 223.57,-789.68"/>
<polygon fill="black" stroke="black" points="222.55,-793.04 233.14,-793.4 225.08,-786.52 222.55,-793.04"/>
</g>
<!-- HCalEndcapReadout -->
<g id="node50" class="node">
<title>HCalEndcapReadout</title>
<ellipse fill="none" stroke="black" cx="394.93" cy="-650" rx="102.88" ry="18"/>
<text text-anchor="middle" x="394.93" y="-646.3" font-family="Times-Roman" font-size="14.00">HCalEndcapReadout</text>
</g>
<!-- k4FWCore__Reader&#45;&gt;HCalEndcapReadout -->
<g id="edge4" class="edge">
<title>k4FWCore__Reader&#45;&gt;HCalEndcapReadout</title>
<path fill="none" stroke="black" d="M138.25,-495.16C142.17,-497.73 145.81,-500.66 149,-504 185.69,-542.43 144.65,-583.43 185,-618 213.34,-642.28 252.13,-652.32 288.6,-655.6"/>
<polygon fill="black" stroke="black" points="288.58,-659.11 298.81,-656.35 289.1,-652.13 288.58,-659.11"/>
</g>
<!-- MCParticles -->
<g id="node51" class="node">
<title>MCParticles</title>
<ellipse fill="none" stroke="black" cx="394.93" cy="-558" rx="62.29" ry="18"/>
<text text-anchor="middle" x="394.93" y="-554.3" font-family="Times-Roman" font-size="14.00">MCParticles</text>
</g>
<!-- k4FWCore__Reader&#45;&gt;MCParticles -->
<g id="edge5" class="edge">
<title>k4FWCore__Reader&#45;&gt;MCParticles</title>
<path fill="none" stroke="black" d="M130.08,-495.01C136.58,-497.75 143.03,-500.75 149,-504 166.57,-513.55 166.47,-523.47 185,-531 228.51,-548.68 280.94,-555.42 322.39,-557.74"/>
<polygon fill="black" stroke="black" points="322.25,-561.24 332.41,-558.23 322.59,-554.25 322.25,-561.24"/>
</g>
<!-- ECalBarrelModuleThetaMerged -->
<g id="node52" class="node">
<title>ECalBarrelModuleThetaMerged</title>
<ellipse fill="none" stroke="black" cx="1448.37" cy="-758" rx="148.67" ry="18"/>
<text text-anchor="middle" x="1448.37" y="-754.3" font-family="Times-Roman" font-size="14.00">ECalBarrelModuleThetaMerged</text>
</g>
<!-- k4FWCore__Reader&#45;&gt;ECalBarrelModuleThetaMerged -->
<g id="edge6" class="edge">
<title>k4FWCore__Reader&#45;&gt;ECalBarrelModuleThetaMerged</title>
<path fill="none" stroke="black" d="M139.5,-495.12C143.02,-497.7 146.24,-500.64 149,-504 213.87,-582.91 108.03,-663.84 185,-731 225.93,-766.72 960.6,-763.31 1289.92,-759.95"/>
<polygon fill="black" stroke="black" points="1290.06,-763.45 1300.03,-759.85 1289.99,-756.45 1290.06,-763.45"/>
</g>
<!-- DCHCollection -->
<g id="node53" class="node">
<title>DCHCollection</title>
<ellipse fill="none" stroke="black" cx="394.93" cy="-504" rx="74.99" ry="18"/>
<text text-anchor="middle" x="394.93" y="-500.3" font-family="Times-Roman" font-size="14.00">DCHCollection</text>
</g>
<!-- k4FWCore__Reader&#45;&gt;DCHCollection -->
<g id="edge7" class="edge">
<title>k4FWCore__Reader&#45;&gt;DCHCollection</title>
<path fill="none" stroke="black" d="M149.35,-483.26C198.69,-487.45 263.54,-492.94 314.07,-497.23"/>
<polygon fill="black" stroke="black" points="314.04,-500.74 324.3,-498.1 314.63,-493.76 314.04,-500.74"/>
</g>
<!-- LumiCalCollection -->
<g id="node54" class="node">
<title>LumiCalCollection</title>
<ellipse fill="none" stroke="black" cx="394.93" cy="-450" rx="90.98" ry="18"/>
<text text-anchor="middle" x="394.93" y="-446.3" font-family="Times-Roman" font-size="14.00">LumiCalCollection</text>
</g>
<!-- k4FWCore__Reader&#45;&gt;LumiCalCollection -->
<g id="edge8" class="edge">
<title>k4FWCore__Reader&#45;&gt;LumiCalCollection</title>
<path fill="none" stroke="black" d="M149.35,-470.74C194.47,-466.91 252.56,-461.99 300.81,-457.9"/>
<polygon fill="black" stroke="black" points="301.27,-461.37 310.94,-457.04 300.68,-454.39 301.27,-461.37"/>
</g>
<!-- VertexEndcapCollection -->
<g id="node55" class="node">
<title>VertexEndcapCollection</title>
<ellipse fill="none" stroke="black" cx="394.93" cy="-396" rx="116.98" ry="18"/>
<text text-anchor="middle" x="394.93" y="-392.3" font-family="Times-Roman" font-size="14.00">VertexEndcapCollection</text>
</g>
<!-- k4FWCore__Reader&#45;&gt;VertexEndcapCollection -->
<g id="edge9" class="edge">
<title>k4FWCore__Reader&#45;&gt;VertexEndcapCollection</title>
<path fill="none" stroke="black" d="M105.54,-458.81C126.94,-446.71 156.8,-431.52 185,-423 214.18,-414.19 246.49,-408.25 276.82,-404.25"/>
<polygon fill="black" stroke="black" points="277.54,-407.69 287.02,-402.97 276.66,-400.75 277.54,-407.69"/>
</g>
<!-- ECalEndcapTurbineContributions -->
<g id="node56" class="node">
<title>ECalEndcapTurbineContributions</title>
<ellipse fill="none" stroke="black" cx="394.93" cy="-342" rx="159.47" ry="18"/>
<text text-anchor="middle" x="394.93" y="-338.3" font-family="Times-Roman" font-size="14.00">ECalEndcapTurbineContributions</text>
</g>
<!-- k4FWCore__Reader&#45;&gt;ECalEndcapTurbineContributions -->
<g id="edge10" class="edge">
<title>k4FWCore__Reader&#45;&gt;ECalEndcapTurbineContributions</title>
<path fill="none" stroke="black" d="M87.9,-458.83C106.03,-433.9 142.28,-389.82 185,-369 201.16,-361.12 218.81,-355.28 236.8,-350.97"/>
<polygon fill="black" stroke="black" points="237.81,-354.33 246.81,-348.73 236.29,-347.5 237.81,-354.33"/>
</g>
<!-- MuonTaggerPhiEta -->
<g id="node57" class="node">
<title>MuonTaggerPhiEta</title>
<ellipse fill="none" stroke="black" cx="394.93" cy="-288" rx="94.48" ry="18"/>
<text text-anchor="middle" x="394.93" y="-284.3" font-family="Times-Roman" font-size="14.00">MuonTaggerPhiEta</text>
</g>
<!-- k4FWCore__Reader&#45;&gt;MuonTaggerPhiEta -->
<g id="edge11" class="edge">
<title>k4FWCore__Reader&#45;&gt;MuonTaggerPhiEta</title>
<path fill="none" stroke="black" d="M81.89,-458.91C95.14,-424.39 129.08,-349.47 185,-315 216.94,-295.31 256.84,-287.06 293.19,-284.25"/>
<polygon fill="black" stroke="black" points="293.58,-287.73 303.34,-283.6 293.14,-280.75 293.58,-287.73"/>
</g>
<!-- LumiCalCollectionContributions -->
<g id="node58" class="node">
<title>LumiCalCollectionContributions</title>
<ellipse fill="none" stroke="black" cx="394.93" cy="-234" rx="151.37" ry="18"/>
<text text-anchor="middle" x="394.93" y="-230.3" font-family="Times-Roman" font-size="14.00">LumiCalCollectionContributions</text>
</g>
<!-- k4FWCore__Reader&#45;&gt;LumiCalCollectionContributions -->
<g id="edge12" class="edge">
<title>k4FWCore__Reader&#45;&gt;LumiCalCollectionContributions</title>
<path fill="none" stroke="black" d="M78.8,-458.76C87.56,-416.16 115.64,-310 185,-261 199.68,-250.63 216.43,-243.24 233.9,-238.08"/>
<polygon fill="black" stroke="black" points="234.94,-241.43 243.68,-235.44 233.11,-234.67 234.94,-241.43"/>
</g>
<!-- HCalBarrelReadout -->
<g id="node59" class="node">
<title>HCalBarrelReadout</title>
<ellipse fill="none" stroke="black" cx="394.93" cy="-704" rx="94.78" ry="18"/>
<text text-anchor="middle" x="394.93" y="-700.3" font-family="Times-Roman" font-size="14.00">HCalBarrelReadout</text>
</g>
<!-- k4FWCore__Reader&#45;&gt;HCalBarrelReadout -->
<g id="edge13" class="edge">
<title>k4FWCore__Reader&#45;&gt;HCalBarrelReadout</title>
<path fill="none" stroke="black" d="M138.98,-495.04C142.67,-497.63 146.07,-500.6 149,-504 200.31,-563.46 127.38,-623.64 185,-677 217.16,-706.79 265.01,-714.6 306.81,-714.49"/>
<polygon fill="black" stroke="black" points="307.08,-717.98 317.01,-714.3 306.95,-710.98 307.08,-717.98"/>
</g>
<!-- ECalBarrelModuleThetaMergedContributions -->
<g id="node60" class="node">
<title>ECalBarrelModuleThetaMergedContributions</title>
<ellipse fill="none" stroke="black" cx="394.93" cy="-180" rx="209.86" ry="18"/>
<text text-anchor="middle" x="394.93" y="-176.3" font-family="Times-Roman" font-size="14.00">ECalBarrelModuleThetaMergedContributions</text>
</g>
<!-- k4FWCore__Reader&#45;&gt;ECalBarrelModuleThetaMergedContributions -->
<g id="edge14" class="edge">
<title>k4FWCore__Reader&#45;&gt;ECalBarrelModuleThetaMergedContributions</title>
<path fill="none" stroke="black" d="M76.82,-458.86C81.47,-409.34 101.69,-271.26 185,-207 191.52,-201.97 198.5,-197.62 205.82,-193.87"/>
<polygon fill="black" stroke="black" points="207.71,-196.85 215.26,-189.42 204.73,-190.51 207.71,-196.85"/>
</g>
<!-- HCalBarrelReadoutContributions -->
<g id="node61" class="node">
<title>HCalBarrelReadoutContributions</title>
<ellipse fill="none" stroke="black" cx="394.93" cy="-126" rx="155.97" ry="18"/>
<text text-anchor="middle" x="394.93" y="-122.3" font-family="Times-Roman" font-size="14.00">HCalBarrelReadoutContributions</text>
</g>
<!-- k4FWCore__Reader&#45;&gt;HCalBarrelReadoutContributions -->
<g id="edge15" class="edge">
<title>k4FWCore__Reader&#45;&gt;HCalBarrelReadoutContributions</title>
<path fill="none" stroke="black" d="M75.47,-458.65C76.44,-402.63 87.65,-232.8 185,-153 198.06,-142.29 213.21,-134.57 229.27,-129.1"/>
<polygon fill="black" stroke="black" points="230.31,-132.44 238.82,-126.14 228.24,-125.76 230.31,-132.44"/>
</g>
<!-- EventHeader -->
<g id="node62" class="node">
<title>EventHeader</title>
<ellipse fill="none" stroke="black" cx="394.93" cy="-72" rx="69.59" ry="18"/>
<text text-anchor="middle" x="394.93" y="-68.3" font-family="Times-Roman" font-size="14.00">EventHeader</text>
</g>
<!-- k4FWCore__Reader&#45;&gt;EventHeader -->
<g id="edge16" class="edge">
<title>k4FWCore__Reader&#45;&gt;EventHeader</title>
<path fill="none" stroke="black" d="M78.14,-458.65C88.45,-389.71 128.2,-147.69 185,-99 222.48,-66.87 278.53,-61.12 323.14,-62.86"/>
<polygon fill="black" stroke="black" points="323.17,-66.36 333.34,-63.39 323.54,-59.37 323.17,-66.36"/>
</g>
<!-- SiWrDCollection -->
<g id="node63" class="node">
<title>SiWrDCollection</title>
<ellipse fill="none" stroke="black" cx="394.93" cy="-18" rx="82.59" ry="18"/>
<text text-anchor="middle" x="394.93" y="-14.3" font-family="Times-Roman" font-size="14.00">SiWrDCollection</text>
</g>
<!-- k4FWCore__Reader&#45;&gt;SiWrDCollection -->
<g id="edge17" class="edge">
<title>k4FWCore__Reader&#45;&gt;SiWrDCollection</title>
<path fill="none" stroke="black" d="M77.41,-458.93C85.67,-384.37 120.82,-101.92 185,-45 219.58,-14.33 270.93,-7.36 314.07,-8.17"/>
<polygon fill="black" stroke="black" points="314.16,-11.67 324.27,-8.5 314.39,-4.68 314.16,-11.67"/>
</g>
<!-- ECalEndcapTurbine -->
<g id="node64" class="node">
<title>ECalEndcapTurbine</title>
<ellipse fill="none" stroke="black" cx="765.86" cy="-596" rx="98.28" ry="18"/>
<text text-anchor="middle" x="765.86" y="-592.3" font-family="Times-Roman" font-size="14.00">ECalEndcapTurbine</text>
</g>
<!-- k4FWCore__Reader&#45;&gt;ECalEndcapTurbine -->
<g id="edge18" class="edge">
<title>k4FWCore__Reader&#45;&gt;ECalEndcapTurbine</title>
<path fill="none" stroke="black" d="M137.13,-495.14C141.41,-497.72 145.43,-500.66 149,-504 177.76,-530.92 152.17,-563.22 185,-585 262.12,-636.17 527.51,-619.52 671,-606.07"/>
<polygon fill="black" stroke="black" points="671.49,-609.54 681.11,-605.11 670.83,-602.57 671.49,-609.54"/>
</g>
<!-- CreateTracksFromGenParticles -->
<g id="node2" class="node">
<title>CreateTracksFromGenParticles</title>
<polygon fill="none" stroke="black" points="878.36,-560 653.36,-560 653.36,-524 878.36,-524 878.36,-560"/>
<text text-anchor="middle" x="765.86" y="-538.3" font-family="Times-Roman" font-size="14.00">CreateTracksFromGenParticles</text>
</g>
<!-- TracksFromGenParticles -->
<g id="node43" class="node">
<title>TracksFromGenParticles</title>
<ellipse fill="none" stroke="black" cx="1095.2" cy="-546" rx="116.98" ry="18"/>
<text text-anchor="middle" x="1095.2" y="-542.3" font-family="Times-Roman" font-size="14.00">TracksFromGenParticles</text>
</g>
<!-- CreateTracksFromGenParticles&#45;&gt;TracksFromGenParticles -->
<g id="edge19" class="edge">
<title>CreateTracksFromGenParticles&#45;&gt;TracksFromGenParticles</title>
<path fill="none" stroke="black" d="M878.6,-543.37C907.42,-543.72 938.65,-544.1 968.15,-544.46"/>
<polygon fill="black" stroke="black" points="968.47,-547.96 978.51,-544.59 968.55,-540.96 968.47,-547.96"/>
</g>
<!-- TracksFromGenParticlesAssociation -->
<g id="node44" class="node">
<title>TracksFromGenParticlesAssociation</title>
<ellipse fill="none" stroke="black" cx="1095.2" cy="-492" rx="168.17" ry="18"/>
<text text-anchor="middle" x="1095.2" y="-488.3" font-family="Times-Roman" font-size="14.00">TracksFromGenParticlesAssociation</text>
</g>
<!-- CreateTracksFromGenParticles&#45;&gt;TracksFromGenParticlesAssociation -->
<g id="edge20" class="edge">
<title>CreateTracksFromGenParticles&#45;&gt;TracksFromGenParticlesAssociation</title>
<path fill="none" stroke="black" d="M878.6,-524.93C913.91,-519.54 952.83,-513.59 987.76,-508.26"/>
<polygon fill="black" stroke="black" points="988.63,-511.67 997.98,-506.7 987.57,-504.75 988.63,-511.67"/>
</g>
<!-- CreatePositionedECalBarrelCells -->
<g id="node3" class="node">
<title>CreatePositionedECalBarrelCells</title>
<polygon fill="none" stroke="black" points="1892.09,-799 1655.09,-799 1655.09,-763 1892.09,-763 1892.09,-799"/>
<text text-anchor="middle" x="1773.59" y="-777.3" font-family="Times-Roman" font-size="14.00">CreatePositionedECalBarrelCells</text>
</g>
<!-- ECalBarrelModuleThetaMergedPositioned -->
<g id="node37" class="node">
<title>ECalBarrelModuleThetaMergedPositioned</title>
<ellipse fill="none" stroke="black" cx="2439.96" cy="-812" rx="194.97" ry="18"/>
<text text-anchor="middle" x="2439.96" y="-808.3" font-family="Times-Roman" font-size="14.00">ECalBarrelModuleThetaMergedPositioned</text>
</g>
<!-- CreatePositionedECalBarrelCells&#45;&gt;ECalBarrelModuleThetaMergedPositioned -->
<g id="edge21" class="edge">
<title>CreatePositionedECalBarrelCells&#45;&gt;ECalBarrelModuleThetaMergedPositioned</title>
<path fill="none" stroke="black" d="M1892.22,-786.49C1992.9,-791.19 2139.53,-798.03 2255.6,-803.44"/>
<polygon fill="black" stroke="black" points="2255.52,-806.94 2265.67,-803.91 2255.85,-799.95 2255.52,-806.94"/>
</g>
<!-- CreatePositionedECalEndcapCells -->
<g id="node4" class="node">
<title>CreatePositionedECalEndcapCells</title>
<polygon fill="none" stroke="black" points="1572.37,-614 1324.37,-614 1324.37,-578 1572.37,-578 1572.37,-614"/>
<text text-anchor="middle" x="1448.37" y="-592.3" font-family="Times-Roman" font-size="14.00">CreatePositionedECalEndcapCells</text>
</g>
<!-- ECalEndcapTurbinePositioned -->
<g id="node38" class="node">
<title>ECalEndcapTurbinePositioned</title>
<ellipse fill="none" stroke="black" cx="2439.96" cy="-596" rx="144.07" ry="18"/>
<text text-anchor="middle" x="2439.96" y="-592.3" font-family="Times-Roman" font-size="14.00">ECalEndcapTurbinePositioned</text>
</g>
<!-- CreatePositionedECalEndcapCells&#45;&gt;ECalEndcapTurbinePositioned -->
<g id="edge22" class="edge">
<title>CreatePositionedECalEndcapCells&#45;&gt;ECalEndcapTurbinePositioned</title>
<path fill="none" stroke="black" d="M1572.7,-596C1753.24,-596 2089.25,-596 2285.51,-596"/>
<polygon fill="black" stroke="black" points="2285.62,-599.5 2295.62,-596 2285.62,-592.5 2285.62,-599.5"/>
</g>
<!-- CreatePositionedHCalBarrelCells -->
<g id="node5" class="node">
<title>CreatePositionedHCalBarrelCells</title>
<polygon fill="none" stroke="black" points="885.36,-722 646.36,-722 646.36,-686 885.36,-686 885.36,-722"/>
<text text-anchor="middle" x="765.86" y="-700.3" font-family="Times-Roman" font-size="14.00">CreatePositionedHCalBarrelCells</text>
</g>
<!-- HCalBarrelReadoutPositioned -->
<g id="node39" class="node">
<title>HCalBarrelReadoutPositioned</title>
<ellipse fill="none" stroke="black" cx="1095.2" cy="-704" rx="141.88" ry="18"/>
<text text-anchor="middle" x="1095.2" y="-700.3" font-family="Times-Roman" font-size="14.00">HCalBarrelReadoutPositioned</text>
</g>
<!-- CreatePositionedHCalBarrelCells&#45;&gt;HCalBarrelReadoutPositioned -->
<g id="edge23" class="edge">
<title>CreatePositionedHCalBarrelCells&#45;&gt;HCalBarrelReadoutPositioned</title>
<path fill="none" stroke="black" d="M885.5,-704C904.28,-704 923.91,-704 943.3,-704"/>
<polygon fill="black" stroke="black" points="943.41,-707.5 953.41,-704 943.41,-700.5 943.41,-707.5"/>
</g>
<!-- ReSegmentationHCalBarrel -->
<g id="node6" class="node">
<title>ReSegmentationHCalBarrel</title>
<polygon fill="none" stroke="black" points="1549.87,-722 1346.87,-722 1346.87,-686 1549.87,-686 1549.87,-722"/>
<text text-anchor="middle" x="1448.37" y="-700.3" font-family="Times-Roman" font-size="14.00">ReSegmentationHCalBarrel</text>
</g>
<!-- HCalBarrelCellsWithoutRow -->
<g id="node45" class="node">
<title>HCalBarrelCellsWithoutRow</title>
<ellipse fill="none" stroke="black" cx="1773.59" cy="-704" rx="133.48" ry="18"/>
<text text-anchor="middle" x="1773.59" y="-700.3" font-family="Times-Roman" font-size="14.00">HCalBarrelCellsWithoutRow</text>
</g>
<!-- ReSegmentationHCalBarrel&#45;&gt;HCalBarrelCellsWithoutRow -->
<g id="edge24" class="edge">
<title>ReSegmentationHCalBarrel&#45;&gt;HCalBarrelCellsWithoutRow</title>
<path fill="none" stroke="black" d="M1550.31,-704C1575.52,-704 1603.04,-704 1629.85,-704"/>
<polygon fill="black" stroke="black" points="1630.09,-707.5 1640.09,-704 1630.09,-700.5 1630.09,-707.5"/>
</g>
<!-- CreatePositionedHCalBarrelCells2 -->
<g id="node7" class="node">
<title>CreatePositionedHCalBarrelCells2</title>
<polygon fill="none" stroke="black" points="2203.48,-722 1955.48,-722 1955.48,-686 2203.48,-686 2203.48,-722"/>
<text text-anchor="middle" x="2079.48" y="-700.3" font-family="Times-Roman" font-size="14.00">CreatePositionedHCalBarrelCells2</text>
</g>
<!-- BarHCal_Readout_phithetaPositioned -->
<g id="node40" class="node">
<title>BarHCal_Readout_phithetaPositioned</title>
<ellipse fill="none" stroke="black" cx="2439.96" cy="-704" rx="176.57" ry="18"/>
<text text-anchor="middle" x="2439.96" y="-700.3" font-family="Times-Roman" font-size="14.00">BarHCal_Readout_phithetaPositioned</text>
</g>
<!-- CreatePositionedHCalBarrelCells2&#45;&gt;BarHCal_Readout_phithetaPositioned -->
<g id="edge25" class="edge">
<title>CreatePositionedHCalBarrelCells2&#45;&gt;BarHCal_Readout_phithetaPositioned</title>
<path fill="none" stroke="black" d="M2203.6,-704C2219.46,-704 2235.96,-704 2252.55,-704"/>
<polygon fill="black" stroke="black" points="2252.89,-707.5 2262.89,-704 2252.89,-700.5 2252.89,-707.5"/>
</g>
<!-- CreatePositionedHCalEndcapCells -->
<g id="node8" class="node">
<title>CreatePositionedHCalEndcapCells</title>
<polygon fill="none" stroke="black" points="890.86,-668 640.86,-668 640.86,-632 890.86,-632 890.86,-668"/>
<text text-anchor="middle" x="765.86" y="-646.3" font-family="Times-Roman" font-size="14.00">CreatePositionedHCalEndcapCells</text>
</g>
<!-- HCalEndcapReadoutPositioned -->
<g id="node41" class="node">
<title>HCalEndcapReadoutPositioned</title>
<ellipse fill="none" stroke="black" cx="1095.2" cy="-650" rx="148.67" ry="18"/>
<text text-anchor="middle" x="1095.2" y="-646.3" font-family="Times-Roman" font-size="14.00">HCalEndcapReadoutPositioned</text>
</g>
<!-- CreatePositionedHCalEndcapCells&#45;&gt;HCalEndcapReadoutPositioned -->
<g id="edge26" class="edge">
<title>CreatePositionedHCalEndcapCells&#45;&gt;HCalEndcapReadoutPositioned</title>
<path fill="none" stroke="black" d="M891.08,-650C905.7,-650 920.77,-650 935.78,-650"/>
<polygon fill="black" stroke="black" points="936.15,-653.5 946.15,-650 936.15,-646.5 936.15,-653.5"/>
</g>
<!-- ReSegmentationHCalEndcap -->
<g id="node9" class="node">
<title>ReSegmentationHCalEndcap</title>
<polygon fill="none" stroke="black" points="1555.87,-668 1340.87,-668 1340.87,-632 1555.87,-632 1555.87,-668"/>
<text text-anchor="middle" x="1448.37" y="-646.3" font-family="Times-Roman" font-size="14.00">ReSegmentationHCalEndcap</text>
</g>
<!-- HCalEndcapCellsWithoutRow -->
<g id="node46" class="node">
<title>HCalEndcapCellsWithoutRow</title>
<ellipse fill="none" stroke="black" cx="1773.59" cy="-650" rx="140.28" ry="18"/>
<text text-anchor="middle" x="1773.59" y="-646.3" font-family="Times-Roman" font-size="14.00">HCalEndcapCellsWithoutRow</text>
</g>
<!-- ReSegmentationHCalEndcap&#45;&gt;HCalEndcapCellsWithoutRow -->
<g id="edge27" class="edge">
<title>ReSegmentationHCalEndcap&#45;&gt;HCalEndcapCellsWithoutRow</title>
<path fill="none" stroke="black" d="M1556.1,-650C1577.57,-650 1600.49,-650 1623.11,-650"/>
<polygon fill="black" stroke="black" points="1623.12,-653.5 1633.12,-650 1623.12,-646.5 1623.12,-653.5"/>
</g>
<!-- CreatePositionedHCalEndcapCells2 -->
<g id="node10" class="node">
<title>CreatePositionedHCalEndcapCells2</title>
<polygon fill="none" stroke="black" points="2208.98,-668 1949.98,-668 1949.98,-632 2208.98,-632 2208.98,-668"/>
<text text-anchor="middle" x="2079.48" y="-646.3" font-family="Times-Roman" font-size="14.00">CreatePositionedHCalEndcapCells2</text>
</g>
<!-- HCalEndcapReadout_phithetaPositioned -->
<g id="node42" class="node">
<title>HCalEndcapReadout_phithetaPositioned</title>
<ellipse fill="none" stroke="black" cx="2439.96" cy="-650" rx="190.37" ry="18"/>
<text text-anchor="middle" x="2439.96" y="-646.3" font-family="Times-Roman" font-size="14.00">HCalEndcapReadout_phithetaPositioned</text>
</g>
<!-- CreatePositionedHCalEndcapCells2&#45;&gt;HCalEndcapReadout_phithetaPositioned -->
<g id="edge28" class="edge">
<title>CreatePositionedHCalEndcapCells2&#45;&gt;HCalEndcapReadout_phithetaPositioned</title>
<path fill="none" stroke="black" d="M2209.14,-650C2219.01,-650 2229.1,-650 2239.27,-650"/>
<polygon fill="black" stroke="black" points="2239.47,-653.5 2249.47,-650 2239.47,-646.5 2239.47,-653.5"/>
</g>
<!-- CreateEmptyCaloCells -->
<g id="node11" class="node">
<title>CreateEmptyCaloCells</title>
<polygon fill="none" stroke="black" points="2164.48,-776 1994.48,-776 1994.48,-740 2164.48,-740 2164.48,-776"/>
<text text-anchor="middle" x="2079.48" y="-754.3" font-family="Times-Roman" font-size="14.00">CreateEmptyCaloCells</text>
</g>
<!-- emptyCaloCells -->
<g id="node36" class="node">
<title>emptyCaloCells</title>
<ellipse fill="none" stroke="black" cx="2439.96" cy="-758" rx="80.69" ry="18"/>
<text text-anchor="middle" x="2439.96" y="-754.3" font-family="Times-Roman" font-size="14.00">emptyCaloCells</text>
</g>
<!-- CreateEmptyCaloCells&#45;&gt;emptyCaloCells -->
<g id="edge29" class="edge">
<title>CreateEmptyCaloCells&#45;&gt;emptyCaloCells</title>
<path fill="none" stroke="black" d="M2164.53,-758C2219.97,-758 2292.54,-758 2349.12,-758"/>
<polygon fill="black" stroke="black" points="2349.13,-761.5 2359.13,-758 2349.13,-754.5 2349.13,-761.5"/>
</g>
<!-- CreateEMBCaloClusters -->
<g id="node12" class="node">
<title>CreateEMBCaloClusters</title>
<polygon fill="none" stroke="black" points="2865.45,-911 2686.45,-911 2686.45,-875 2865.45,-875 2865.45,-911"/>
<text text-anchor="middle" x="2775.95" y="-889.3" font-family="Times-Roman" font-size="14.00">CreateEMBCaloClusters</text>
</g>
<!-- EMBCaloClusters -->
<g id="node30" class="node">
<title>EMBCaloClusters</title>
<ellipse fill="none" stroke="black" cx="3041.09" cy="-974" rx="87.18" ry="18"/>
<text text-anchor="middle" x="3041.09" y="-970.3" font-family="Times-Roman" font-size="14.00">EMBCaloClusters</text>
</g>
<!-- CreateEMBCaloClusters&#45;&gt;EMBCaloClusters -->
<g id="edge30" class="edge">
<title>CreateEMBCaloClusters&#45;&gt;EMBCaloClusters</title>
<path fill="none" stroke="black" d="M2818.64,-911C2846.18,-922.41 2883.27,-936.88 2916.95,-947 2932.74,-951.75 2949.91,-956.04 2966.27,-959.73"/>
<polygon fill="black" stroke="black" points="2965.81,-963.22 2976.33,-961.95 2967.32,-956.38 2965.81,-963.22"/>
</g>
<!-- EMBCaloClusterCells -->
<g id="node31" class="node">
<title>EMBCaloClusterCells</title>
<ellipse fill="none" stroke="black" cx="3041.09" cy="-920" rx="103.18" ry="18"/>
<text text-anchor="middle" x="3041.09" y="-916.3" font-family="Times-Roman" font-size="14.00">EMBCaloClusterCells</text>
</g>
<!-- CreateEMBCaloClusters&#45;&gt;EMBCaloClusterCells -->
<g id="edge31" class="edge">
<title>CreateEMBCaloClusters&#45;&gt;EMBCaloClusterCells</title>
<path fill="none" stroke="black" d="M2865.67,-902.1C2890.06,-904.61 2916.66,-907.34 2941.56,-909.89"/>
<polygon fill="black" stroke="black" points="2941.45,-913.4 2951.75,-910.94 2942.16,-906.43 2941.45,-913.4"/>
</g>
<!-- AugmentEMBCaloClusters -->
<g id="node13" class="node">
<title>AugmentEMBCaloClusters</title>
<polygon fill="none" stroke="black" points="3414.22,-992 3217.22,-992 3217.22,-956 3414.22,-956 3414.22,-992"/>
<text text-anchor="middle" x="3315.72" y="-970.3" font-family="Times-Roman" font-size="14.00">AugmentEMBCaloClusters</text>
</g>
<!-- AugmentedEMBCaloClusters -->
<g id="node22" class="node">
<title>AugmentedEMBCaloClusters</title>
<ellipse fill="none" stroke="black" cx="3626.11" cy="-974" rx="139.98" ry="18"/>
<text text-anchor="middle" x="3626.11" y="-970.3" font-family="Times-Roman" font-size="14.00">AugmentedEMBCaloClusters</text>
</g>
<!-- AugmentEMBCaloClusters&#45;&gt;AugmentedEMBCaloClusters -->
<g id="edge32" class="edge">
<title>AugmentEMBCaloClusters&#45;&gt;AugmentedEMBCaloClusters</title>
<path fill="none" stroke="black" d="M3414.3,-974C3433.94,-974 3455,-974 3475.94,-974"/>
<polygon fill="black" stroke="black" points="3476.2,-977.5 3486.2,-974 3476.2,-970.5 3476.2,-977.5"/>
</g>
<!-- CalibrateEMBCaloClusters -->
<g id="node14" class="node">
<title>CalibrateEMBCaloClusters</title>
<polygon fill="none" stroke="black" points="4033.5,-992 3837.5,-992 3837.5,-956 4033.5,-956 4033.5,-992"/>
<text text-anchor="middle" x="3935.5" y="-970.3" font-family="Times-Roman" font-size="14.00">CalibrateEMBCaloClusters</text>
</g>
<!-- CalibratedEMBCaloClusters -->
<g id="node24" class="node">
<title>CalibratedEMBCaloClusters</title>
<ellipse fill="none" stroke="black" cx="4238.38" cy="-974" rx="133.48" ry="18"/>
<text text-anchor="middle" x="4238.38" y="-970.3" font-family="Times-Roman" font-size="14.00">CalibratedEMBCaloClusters</text>
</g>
<!-- CalibrateEMBCaloClusters&#45;&gt;CalibratedEMBCaloClusters -->
<g id="edge33" class="edge">
<title>CalibrateEMBCaloClusters&#45;&gt;CalibratedEMBCaloClusters</title>
<path fill="none" stroke="black" d="M4033.77,-974C4053.32,-974 4074.25,-974 4094.97,-974"/>
<polygon fill="black" stroke="black" points="4095.12,-977.5 4105.12,-974 4095.12,-970.5 4095.12,-977.5"/>
</g>
<!-- CreateEMECCaloClusters -->
<g id="node15" class="node">
<title>CreateEMECCaloClusters</title>
<polygon fill="none" stroke="black" points="2869.95,-614 2681.95,-614 2681.95,-578 2869.95,-578 2869.95,-614"/>
<text text-anchor="middle" x="2775.95" y="-592.3" font-family="Times-Roman" font-size="14.00">CreateEMECCaloClusters</text>
</g>
<!-- EMECCaloClusters -->
<g id="node34" class="node">
<title>EMECCaloClusters</title>
<ellipse fill="none" stroke="black" cx="3041.09" cy="-542" rx="92.88" ry="18"/>
<text text-anchor="middle" x="3041.09" y="-538.3" font-family="Times-Roman" font-size="14.00">EMECCaloClusters</text>
</g>
<!-- CreateEMECCaloClusters&#45;&gt;EMECCaloClusters -->
<g id="edge34" class="edge">
<title>CreateEMECCaloClusters&#45;&gt;EMECCaloClusters</title>
<path fill="none" stroke="black" d="M2864.93,-577.94C2897.96,-571.17 2935.13,-563.54 2966.69,-557.06"/>
<polygon fill="black" stroke="black" points="2967.64,-560.44 2976.73,-555 2966.23,-553.58 2967.64,-560.44"/>
</g>
<!-- EMECCaloClusterCells -->
<g id="node35" class="node">
<title>EMECCaloClusterCells</title>
<ellipse fill="none" stroke="black" cx="3041.09" cy="-488" rx="109.68" ry="18"/>
<text text-anchor="middle" x="3041.09" y="-484.3" font-family="Times-Roman" font-size="14.00">EMECCaloClusterCells</text>
</g>
<!-- CreateEMECCaloClusters&#45;&gt;EMECCaloClusterCells -->
<g id="edge35" class="edge">
<title>CreateEMECCaloClusters&#45;&gt;EMECCaloClusterCells</title>
<path fill="none" stroke="black" d="M2802.56,-577.91C2829.74,-559.52 2874.54,-531.46 2916.95,-515 2928.62,-510.47 2941.22,-506.62 2953.76,-503.36"/>
<polygon fill="black" stroke="black" points="2954.92,-506.68 2963.78,-500.88 2953.23,-499.89 2954.92,-506.68"/>
</g>
<!-- CreateCaloClusters -->
<g id="node16" class="node">
<title>CreateCaloClusters</title>
<polygon fill="none" stroke="black" points="2850.45,-668 2701.45,-668 2701.45,-632 2850.45,-632 2850.45,-668"/>
<text text-anchor="middle" x="2775.95" y="-646.3" font-family="Times-Roman" font-size="14.00">CreateCaloClusters</text>
</g>
<!-- CaloClusters -->
<g id="node26" class="node">
<title>CaloClusters</title>
<ellipse fill="none" stroke="black" cx="3041.09" cy="-650" rx="67.69" ry="18"/>
<text text-anchor="middle" x="3041.09" y="-646.3" font-family="Times-Roman" font-size="14.00">CaloClusters</text>
</g>
<!-- CreateCaloClusters&#45;&gt;CaloClusters -->
<g id="edge36" class="edge">
<title>CreateCaloClusters&#45;&gt;CaloClusters</title>
<path fill="none" stroke="black" d="M2850.6,-650C2885.61,-650 2927.45,-650 2962.91,-650"/>
<polygon fill="black" stroke="black" points="2963.21,-653.5 2973.21,-650 2963.21,-646.5 2963.21,-653.5"/>
</g>
<!-- CaloClusterCells -->
<g id="node27" class="node">
<title>CaloClusterCells</title>
<ellipse fill="none" stroke="black" cx="3041.09" cy="-596" rx="83.69" ry="18"/>
<text text-anchor="middle" x="3041.09" y="-592.3" font-family="Times-Roman" font-size="14.00">CaloClusterCells</text>
</g>
<!-- CreateCaloClusters&#45;&gt;CaloClusterCells -->
<g id="edge37" class="edge">
<title>CreateCaloClusters&#45;&gt;CaloClusterCells</title>
<path fill="none" stroke="black" d="M2850.6,-634.89C2887.84,-627.24 2932.82,-618.01 2969.61,-610.46"/>
<polygon fill="black" stroke="black" points="2970.67,-613.82 2979.76,-608.38 2969.26,-606.96 2970.67,-613.82"/>
</g>
<!-- CreateEMBCaloTopoClusters -->
<g id="node17" class="node">
<title>CreateEMBCaloTopoClusters</title>
<polygon fill="none" stroke="black" points="2880.95,-830 2670.95,-830 2670.95,-794 2880.95,-794 2880.95,-830"/>
<text text-anchor="middle" x="2775.95" y="-808.3" font-family="Times-Roman" font-size="14.00">CreateEMBCaloTopoClusters</text>
</g>
<!-- EMBCaloTopoClusters -->
<g id="node32" class="node">
<title>EMBCaloTopoClusters</title>
<ellipse fill="none" stroke="black" cx="3041.09" cy="-866" rx="107.48" ry="18"/>
<text text-anchor="middle" x="3041.09" y="-862.3" font-family="Times-Roman" font-size="14.00">EMBCaloTopoClusters</text>
</g>
<!-- CreateEMBCaloTopoClusters&#45;&gt;EMBCaloTopoClusters -->
<g id="edge38" class="edge">
<title>CreateEMBCaloTopoClusters&#45;&gt;EMBCaloTopoClusters</title>
<path fill="none" stroke="black" d="M2864.93,-830.06C2896.48,-836.53 2931.79,-843.78 2962.4,-850.06"/>
<polygon fill="black" stroke="black" points="2962.09,-853.57 2972.59,-852.15 2963.5,-846.71 2962.09,-853.57"/>
</g>
<!-- EMBCaloTopoClusterCells -->
<g id="node33" class="node">
<title>EMBCaloTopoClusterCells</title>
<ellipse fill="none" stroke="black" cx="3041.09" cy="-812" rx="124.28" ry="18"/>
<text text-anchor="middle" x="3041.09" y="-808.3" font-family="Times-Roman" font-size="14.00">EMBCaloTopoClusterCells</text>
</g>
<!-- CreateEMBCaloTopoClusters&#45;&gt;EMBCaloTopoClusterCells -->
<g id="edge39" class="edge">
<title>CreateEMBCaloTopoClusters&#45;&gt;EMBCaloTopoClusterCells</title>
<path fill="none" stroke="black" d="M2881.32,-812C2889.59,-812 2898,-812 2906.42,-812"/>
<polygon fill="black" stroke="black" points="2906.7,-815.5 2916.7,-812 2906.7,-808.5 2906.7,-815.5"/>
</g>
<!-- AugmentEMBCaloTopoClusters -->
<g id="node18" class="node">
<title>AugmentEMBCaloTopoClusters</title>
<polygon fill="none" stroke="black" points="3430.22,-884 3201.22,-884 3201.22,-848 3430.22,-848 3430.22,-884"/>
<text text-anchor="middle" x="3315.72" y="-862.3" font-family="Times-Roman" font-size="14.00">AugmentEMBCaloTopoClusters</text>
</g>
<!-- AugmentedEMBCaloTopoClusters -->
<g id="node23" class="node">
<title>AugmentedEMBCaloTopoClusters</title>
<ellipse fill="none" stroke="black" cx="3626.11" cy="-866" rx="159.77" ry="18"/>
<text text-anchor="middle" x="3626.11" y="-862.3" font-family="Times-Roman" font-size="14.00">AugmentedEMBCaloTopoClusters</text>
</g>
<!-- AugmentEMBCaloTopoClusters&#45;&gt;AugmentedEMBCaloTopoClusters -->
<g id="edge40" class="edge">
<title>AugmentEMBCaloTopoClusters&#45;&gt;AugmentedEMBCaloTopoClusters</title>
<path fill="none" stroke="black" d="M3430.24,-866C3438.64,-866 3447.2,-866 3455.83,-866"/>
<polygon fill="black" stroke="black" points="3455.99,-869.5 3465.99,-866 3455.99,-862.5 3455.99,-869.5"/>
</g>
<!-- CalibrateEMBCaloTopoClusters -->
<g id="node19" class="node">
<title>CalibrateEMBCaloTopoClusters</title>
<polygon fill="none" stroke="black" points="4049,-884 3822,-884 3822,-848 4049,-848 4049,-884"/>
<text text-anchor="middle" x="3935.5" y="-862.3" font-family="Times-Roman" font-size="14.00">CalibrateEMBCaloTopoClusters</text>
</g>
<!-- CalibratedEMBCaloTopoClusters -->
<g id="node25" class="node">
<title>CalibratedEMBCaloTopoClusters</title>
<ellipse fill="none" stroke="black" cx="4238.38" cy="-866" rx="153.27" ry="18"/>
<text text-anchor="middle" x="4238.38" y="-862.3" font-family="Times-Roman" font-size="14.00">CalibratedEMBCaloTopoClusters</text>
</g>
<!-- CalibrateEMBCaloTopoClusters&#45;&gt;CalibratedEMBCaloTopoClusters -->
<g id="edge41" class="edge">
<title>CalibrateEMBCaloTopoClusters&#45;&gt;CalibratedEMBCaloTopoClusters</title>
<path fill="none" stroke="black" d="M4049.39,-866C4057.72,-866 4066.22,-866 4074.76,-866"/>
<polygon fill="black" stroke="black" points="4074.81,-869.5 4084.81,-866 4074.81,-862.5 4074.81,-869.5"/>
</g>
<!-- CreateCaloTopoClusters -->
<g id="node20" class="node">
<title>CreateCaloTopoClusters</title>
<polygon fill="none" stroke="black" points="2865.95,-776 2685.95,-776 2685.95,-740 2865.95,-740 2865.95,-776"/>
<text text-anchor="middle" x="2775.95" y="-754.3" font-family="Times-Roman" font-size="14.00">CreateCaloTopoClusters</text>
</g>
<!-- CaloTopoClusters -->
<g id="node28" class="node">
<title>CaloTopoClusters</title>
<ellipse fill="none" stroke="black" cx="3041.09" cy="-758" rx="87.99" ry="18"/>
<text text-anchor="middle" x="3041.09" y="-754.3" font-family="Times-Roman" font-size="14.00">CaloTopoClusters</text>
</g>
<!-- CreateCaloTopoClusters&#45;&gt;CaloTopoClusters -->
<g id="edge42" class="edge">
<title>CreateCaloTopoClusters&#45;&gt;CaloTopoClusters</title>
<path fill="none" stroke="black" d="M2866.03,-758C2890.8,-758 2917.82,-758 2943.02,-758"/>
<polygon fill="black" stroke="black" points="2943.32,-761.5 2953.32,-758 2943.32,-754.5 2943.32,-761.5"/>
</g>
<!-- CaloTopoClusterCells -->
<g id="node29" class="node">
<title>CaloTopoClusterCells</title>
<ellipse fill="none" stroke="black" cx="3041.09" cy="-704" rx="104.78" ry="18"/>
<text text-anchor="middle" x="3041.09" y="-700.3" font-family="Times-Roman" font-size="14.00">CaloTopoClusterCells</text>
</g>
<!-- CreateCaloTopoClusters&#45;&gt;CaloTopoClusterCells -->
<g id="edge43" class="edge">
<title>CreateCaloTopoClusters&#45;&gt;CaloTopoClusterCells</title>
<path fill="none" stroke="black" d="M2864.93,-739.94C2896.75,-733.41 2932.4,-726.1 2963.19,-719.78"/>
<polygon fill="black" stroke="black" points="2963.91,-723.2 2973.01,-717.77 2962.51,-716.35 2963.91,-723.2"/>
</g>
<!-- k4FWCore__Writer -->
<g id="node21" class="node">
<title>k4FWCore__Writer</title>
<polygon fill="none" stroke="black" points="146,-549 3,-549 3,-513 146,-513 146,-549"/>
<text text-anchor="middle" x="74.5" y="-527.3" font-family="Times-Roman" font-size="14.00">k4FWCore__Writer</text>
</g>
<!-- AugmentedEMBCaloClusters&#45;&gt;CalibrateEMBCaloClusters -->
<g id="edge44" class="edge">
<title>AugmentedEMBCaloClusters&#45;&gt;CalibrateEMBCaloClusters</title>
<path fill="none" stroke="black" d="M3765.97,-974C3786.42,-974 3807.24,-974 3826.93,-974"/>
<polygon fill="black" stroke="black" points="3827.12,-977.5 3837.12,-974 3827.12,-970.5 3827.12,-977.5"/>
</g>
<!-- AugmentedEMBCaloTopoClusters&#45;&gt;CalibrateEMBCaloTopoClusters -->
<g id="edge45" class="edge">
<title>AugmentedEMBCaloTopoClusters&#45;&gt;CalibrateEMBCaloTopoClusters</title>
<path fill="none" stroke="black" d="M3786.21,-866C3794.75,-866 3803.26,-866 3811.65,-866"/>
<polygon fill="black" stroke="black" points="3811.82,-869.5 3821.82,-866 3811.82,-862.5 3811.82,-869.5"/>
</g>
<!-- EMBCaloClusters&#45;&gt;AugmentEMBCaloClusters -->
<g id="edge46" class="edge">
<title>EMBCaloClusters&#45;&gt;AugmentEMBCaloClusters</title>
<path fill="none" stroke="black" d="M3128.35,-974C3153.28,-974 3180.8,-974 3206.87,-974"/>
<polygon fill="black" stroke="black" points="3207.16,-977.5 3217.16,-974 3207.16,-970.5 3207.16,-977.5"/>
</g>
<!-- EMBCaloTopoClusters&#45;&gt;AugmentEMBCaloTopoClusters -->
<g id="edge47" class="edge">
<title>EMBCaloTopoClusters&#45;&gt;AugmentEMBCaloTopoClusters</title>
<path fill="none" stroke="black" d="M3148.67,-866C3162.49,-866 3176.74,-866 3190.81,-866"/>
<polygon fill="black" stroke="black" points="3191.01,-869.5 3201.01,-866 3191.01,-862.5 3191.01,-869.5"/>
</g>
<!-- emptyCaloCells&#45;&gt;CreateEMBCaloClusters -->
<g id="edge50" class="edge">
<title>emptyCaloCells&#45;&gt;CreateEMBCaloClusters</title>
<path fill="none" stroke="black" d="M2519.2,-754.46C2556.72,-756.2 2600.82,-763.58 2634.95,-785 2659.38,-800.34 2649.47,-819.75 2670.95,-839 2685.01,-851.6 2702.54,-862.17 2719.18,-870.51"/>
<polygon fill="black" stroke="black" points="2717.78,-873.72 2728.31,-874.92 2720.83,-867.42 2717.78,-873.72"/>
</g>
<!-- emptyCaloCells&#45;&gt;CreateEMECCaloClusters -->
<g id="edge52" class="edge">
<title>emptyCaloCells&#45;&gt;CreateEMECCaloClusters</title>
<path fill="none" stroke="black" d="M2513.8,-765.37C2553.74,-765.47 2601.74,-758.61 2634.95,-731 2673.85,-698.65 2633.98,-657.54 2670.95,-623 2672.05,-621.97 2673.2,-620.97 2674.37,-620.01"/>
<polygon fill="black" stroke="black" points="2676.41,-622.85 2682.53,-614.2 2672.35,-617.15 2676.41,-622.85"/>
</g>
<!-- emptyCaloCells&#45;&gt;CreateCaloClusters -->
<g id="edge48" class="edge">
<title>emptyCaloCells&#45;&gt;CreateCaloClusters</title>
<path fill="none" stroke="black" d="M2519.03,-754.03C2555.07,-750.46 2597.97,-743.72 2634.95,-731 2674.24,-717.48 2714.89,-692.52 2742.19,-673.87"/>
<polygon fill="black" stroke="black" points="2744.35,-676.63 2750.57,-668.06 2740.36,-670.88 2744.35,-676.63"/>
</g>
<!-- emptyCaloCells&#45;&gt;CreateEMBCaloTopoClusters -->
<g id="edge51" class="edge">
<title>emptyCaloCells&#45;&gt;CreateEMBCaloTopoClusters</title>
<path fill="none" stroke="black" d="M2510.68,-766.81C2547.67,-771.71 2593.86,-778.18 2634.95,-785 2647.89,-787.15 2661.47,-789.56 2674.87,-792.04"/>
<polygon fill="black" stroke="black" points="2674.6,-795.55 2685.07,-793.95 2675.89,-788.67 2674.6,-795.55"/>
</g>
<!-- emptyCaloCells&#45;&gt;CreateCaloTopoClusters -->
<g id="edge49" class="edge">
<title>emptyCaloCells&#45;&gt;CreateCaloTopoClusters</title>
<path fill="none" stroke="black" d="M2520.96,-758C2567.45,-758 2626.42,-758 2675.83,-758"/>
<polygon fill="black" stroke="black" points="2675.9,-761.5 2685.9,-758 2675.9,-754.5 2675.9,-761.5"/>
</g>
<!-- ECalBarrelModuleThetaMergedPositioned&#45;&gt;CreateEMBCaloClusters -->
<g id="edge55" class="edge">
<title>ECalBarrelModuleThetaMergedPositioned&#45;&gt;CreateEMBCaloClusters</title>
<path fill="none" stroke="black" d="M2510.57,-828.88C2562.96,-841.59 2635.01,-859.06 2690.66,-872.56"/>
<polygon fill="black" stroke="black" points="2689.96,-875.99 2700.5,-874.94 2691.61,-869.19 2689.96,-875.99"/>
</g>
<!-- ECalBarrelModuleThetaMergedPositioned&#45;&gt;CreateCaloClusters -->
<g id="edge53" class="edge">
<title>ECalBarrelModuleThetaMergedPositioned&#45;&gt;CreateCaloClusters</title>
<path fill="none" stroke="black" d="M2599.59,-801.55C2612.03,-797.29 2624,-791.87 2634.95,-785 2659.38,-769.66 2651.32,-752.13 2670.95,-731 2691.07,-709.34 2717.37,-688.91 2738.49,-673.99"/>
<polygon fill="black" stroke="black" points="2740.68,-676.73 2746.89,-668.14 2736.68,-670.98 2740.68,-676.73"/>
</g>
<!-- ECalBarrelModuleThetaMergedPositioned&#45;&gt;CreateEMBCaloTopoClusters -->
<g id="edge56" class="edge">
<title>ECalBarrelModuleThetaMergedPositioned&#45;&gt;CreateEMBCaloTopoClusters</title>
<path fill="none" stroke="black" d="M2635.24,-812C2643.72,-812 2652.1,-812 2660.29,-812"/>
<polygon fill="black" stroke="black" points="2660.56,-815.5 2670.56,-812 2660.56,-808.5 2660.56,-815.5"/>
</g>
<!-- ECalBarrelModuleThetaMergedPositioned&#45;&gt;CreateCaloTopoClusters -->
<g id="edge54" class="edge">
<title>ECalBarrelModuleThetaMergedPositioned&#45;&gt;CreateCaloTopoClusters</title>
<path fill="none" stroke="black" d="M2553.44,-797.36C2580.19,-793.6 2608.62,-789.37 2634.95,-785 2648.21,-782.8 2662.15,-780.32 2675.88,-777.77"/>
<polygon fill="black" stroke="black" points="2676.64,-781.19 2685.82,-775.91 2675.35,-774.31 2676.64,-781.19"/>
</g>
<!-- ECalEndcapTurbinePositioned&#45;&gt;CreateEMECCaloClusters -->
<g id="edge58" class="edge">
<title>ECalEndcapTurbinePositioned&#45;&gt;CreateEMECCaloClusters</title>
<path fill="none" stroke="black" d="M2584.54,-596C2613.83,-596 2644.1,-596 2671.65,-596"/>
<polygon fill="black" stroke="black" points="2671.66,-599.5 2681.66,-596 2671.66,-592.5 2671.66,-599.5"/>
</g>
<!-- ECalEndcapTurbinePositioned&#45;&gt;CreateCaloClusters -->
<g id="edge57" class="edge">
<title>ECalEndcapTurbinePositioned&#45;&gt;CreateCaloClusters</title>
<path fill="none" stroke="black" d="M2540.8,-608.88C2571.09,-613.06 2604.42,-617.94 2634.95,-623 2653.27,-626.04 2672.87,-629.62 2691.43,-633.15"/>
<polygon fill="black" stroke="black" points="2690.85,-636.61 2701.33,-635.05 2692.17,-629.73 2690.85,-636.61"/>
</g>
<!-- HCalBarrelReadoutPositioned&#45;&gt;ReSegmentationHCalBarrel -->
<g id="edge59" class="edge">
<title>HCalBarrelReadoutPositioned&#45;&gt;ReSegmentationHCalBarrel</title>
<path fill="none" stroke="black" d="M1237.01,-704C1270.15,-704 1305.02,-704 1336.63,-704"/>
<polygon fill="black" stroke="black" points="1336.77,-707.5 1346.77,-704 1336.77,-700.5 1336.77,-707.5"/>
</g>
<!-- BarHCal_Readout_phithetaPositioned&#45;&gt;CreateCaloClusters -->
<g id="edge60" class="edge">
<title>BarHCal_Readout_phithetaPositioned&#45;&gt;CreateCaloClusters</title>
<path fill="none" stroke="black" d="M2549.87,-689.86C2577.65,-685.97 2607.44,-681.56 2634.95,-677 2653.27,-673.96 2672.87,-670.38 2691.43,-666.85"/>
<polygon fill="black" stroke="black" points="2692.17,-670.27 2701.33,-664.95 2690.85,-663.39 2692.17,-670.27"/>
</g>
<!-- BarHCal_Readout_phithetaPositioned&#45;&gt;CreateCaloTopoClusters -->
<g id="edge61" class="edge">
<title>BarHCal_Readout_phithetaPositioned&#45;&gt;CreateCaloTopoClusters</title>
<path fill="none" stroke="black" d="M2549.87,-718.14C2577.65,-722.03 2607.44,-726.44 2634.95,-731 2648.21,-733.2 2662.15,-735.68 2675.88,-738.23"/>
<polygon fill="black" stroke="black" points="2675.35,-741.69 2685.82,-740.09 2676.64,-734.81 2675.35,-741.69"/>
</g>
<!-- HCalEndcapReadoutPositioned&#45;&gt;ReSegmentationHCalEndcap -->
<g id="edge62" class="edge">
<title>HCalEndcapReadoutPositioned&#45;&gt;ReSegmentationHCalEndcap</title>
<path fill="none" stroke="black" d="M1244.11,-650C1272.99,-650 1302.9,-650 1330.59,-650"/>
<polygon fill="black" stroke="black" points="1330.69,-653.5 1340.69,-650 1330.69,-646.5 1330.69,-653.5"/>
</g>
<!-- HCalEndcapReadout_phithetaPositioned&#45;&gt;CreateCaloClusters -->
<g id="edge63" class="edge">
<title>HCalEndcapReadout_phithetaPositioned&#45;&gt;CreateCaloClusters</title>
<path fill="none" stroke="black" d="M2630.4,-650C2651.52,-650 2672.15,-650 2690.91,-650"/>
<polygon fill="black" stroke="black" points="2691.13,-653.5 2701.13,-650 2691.13,-646.5 2691.13,-653.5"/>
</g>
<!-- HCalBarrelCellsWithoutRow&#45;&gt;CreatePositionedHCalBarrelCells2 -->
<g id="edge64" class="edge">
<title>HCalBarrelCellsWithoutRow&#45;&gt;CreatePositionedHCalBarrelCells2</title>
<path fill="none" stroke="black" d="M1907,-704C1919.62,-704 1932.42,-704 1945.05,-704"/>
<polygon fill="black" stroke="black" points="1945.14,-707.5 1955.14,-704 1945.14,-700.5 1945.14,-707.5"/>
</g>
<!-- HCalEndcapCellsWithoutRow&#45;&gt;CreatePositionedHCalEndcapCells2 -->
<g id="edge65" class="edge">
<title>HCalEndcapCellsWithoutRow&#45;&gt;CreatePositionedHCalEndcapCells2</title>
<path fill="none" stroke="black" d="M1914.09,-650C1922.52,-650 1931,-650 1939.43,-650"/>
<polygon fill="black" stroke="black" points="1939.67,-653.5 1949.67,-650 1939.67,-646.5 1939.67,-653.5"/>
</g>
<!-- HCalEndcapReadout&#45;&gt;CreatePositionedHCalEndcapCells -->
<g id="edge66" class="edge">
<title>HCalEndcapReadout&#45;&gt;CreatePositionedHCalEndcapCells</title>
<path fill="none" stroke="black" d="M497.72,-650C538.78,-650 586.73,-650 630.58,-650"/>
<polygon fill="black" stroke="black" points="630.75,-653.5 640.75,-650 630.75,-646.5 630.75,-653.5"/>
</g>
<!-- MCParticles&#45;&gt;CreateTracksFromGenParticles -->
<g id="edge67" class="edge">
<title>MCParticles&#45;&gt;CreateTracksFromGenParticles</title>
<path fill="none" stroke="black" d="M456.85,-555.36C507.26,-553.17 580.44,-550 642.83,-547.29"/>
<polygon fill="black" stroke="black" points="643.3,-550.78 653.14,-546.85 643,-543.78 643.3,-550.78"/>
</g>
<!-- ECalBarrelModuleThetaMerged&#45;&gt;CreatePositionedECalBarrelCells -->
<g id="edge68" class="edge">
<title>ECalBarrelModuleThetaMerged&#45;&gt;CreatePositionedECalBarrelCells</title>
<path fill="none" stroke="black" d="M1577.12,-767.09C1599.38,-768.67 1622.54,-770.32 1644.81,-771.91"/>
<polygon fill="black" stroke="black" points="1644.75,-775.41 1654.97,-772.63 1645.24,-768.43 1644.75,-775.41"/>
</g>
<!-- HCalBarrelReadout&#45;&gt;CreatePositionedHCalBarrelCells -->
<g id="edge69" class="edge">
<title>HCalBarrelReadout&#45;&gt;CreatePositionedHCalBarrelCells</title>
<path fill="none" stroke="black" d="M489.98,-704C534.33,-704 587.94,-704 635.99,-704"/>
<polygon fill="black" stroke="black" points="636.16,-707.5 646.16,-704 636.16,-700.5 636.16,-707.5"/>
</g>
<!-- ECalEndcapTurbine&#45;&gt;CreatePositionedECalEndcapCells -->
<g id="edge70" class="edge">
<title>ECalEndcapTurbine&#45;&gt;CreatePositionedECalEndcapCells</title>
<path fill="none" stroke="black" d="M864.36,-596C982.38,-596 1181.71,-596 1313.92,-596"/>
<polygon fill="black" stroke="black" points="1314.11,-599.5 1324.11,-596 1314.11,-592.5 1314.11,-599.5"/>
</g>
</g>
</svg>
