<?xml version="1.0" encoding="UTF-8" standalone="no"?>
<!DOCTYPE svg PUBLIC "-//W3C//DTD SVG 1.1//EN"
 "http://www.w3.org/Graphics/SVG/1.1/DTD/svg11.dtd">
<!-- Generated by graphviz version 2.44.0 (0)
 -->
<!-- Pages: 1 -->
<svg width="3395pt" height="116pt"
 viewBox="0.00 0.00 3394.54 116.00" xmlns="http://www.w3.org/2000/svg" xmlns:xlink="http://www.w3.org/1999/xlink">
<g id="graph0" class="graph" transform="scale(1 1) rotate(0) translate(4 112)">
<polygon fill="white" stroke="transparent" points="-4,4 -4,-112 3390.54,-112 3390.54,4 -4,4"/>
<!-- RootDecisionHub -->
<g id="node1" class="node">
<title>RootDecisionHub</title>
<ellipse fill="none" stroke="black" cx="1668.19" cy="-90" rx="87.18" ry="18"/>
<text text-anchor="middle" x="1668.19" y="-86.3" font-family="Times-Roman" font-size="14.00">RootDecisionHub</text>
</g>
<!-- ProducerA -->
<g id="node2" class="node">
<title>ProducerA</title>
<ellipse fill="none" stroke="black" cx="57.19" cy="-18" rx="57.39" ry="18"/>
<text text-anchor="middle" x="57.19" y="-14.3" font-family="Times-Roman" font-size="14.00">ProducerA</text>
</g>
<!-- RootDecisionHub&#45;&gt;ProducerA -->
<g id="edge1" class="edge">
<title>RootDecisionHub&#45;&gt;ProducerA</title>
<path fill="none" stroke="black" d="M1581.09,-88.46C1298.43,-86.33 408.65,-76.49 124.19,-36 118.77,-35.23 113.16,-34.19 107.59,-33.01"/>
<polygon fill="black" stroke="black" points="108.19,-29.56 97.66,-30.75 106.64,-36.38 108.19,-29.56"/>
</g>
<!-- TransformerB -->
<g id="node3" class="node">
<title>TransformerB</title>
<ellipse fill="none" stroke="black" cx="204.19" cy="-18" rx="71.49" ry="18"/>
<text text-anchor="middle" x="204.19" y="-14.3" font-family="Times-Roman" font-size="14.00">TransformerB</text>
</g>
<!-- RootDecisionHub&#45;&gt;TransformerB -->
<g id="edge2" class="edge">
<title>RootDecisionHub&#45;&gt;TransformerB</title>
<path fill="none" stroke="black" d="M1581.61,-87.59C1319.62,-83.03 537.83,-67.13 285.19,-36 278.49,-35.17 271.51,-34.08 264.59,-32.84"/>
<polygon fill="black" stroke="black" points="265.01,-29.35 254.53,-30.93 263.7,-36.23 265.01,-29.35"/>
</g>
<!-- TransformerC1 -->
<g id="node4" class="node">
<title>TransformerC1</title>
<ellipse fill="none" stroke="black" cx="371.19" cy="-18" rx="77.19" ry="18"/>
<text text-anchor="middle" x="371.19" y="-14.3" font-family="Times-Roman" font-size="14.00">TransformerC1</text>
</g>
<!-- RootDecisionHub&#45;&gt;TransformerC1 -->
<g id="edge3" class="edge">
<title>RootDecisionHub&#45;&gt;TransformerC1</title>
<path fill="none" stroke="black" d="M1580.82,-89.7C1381.05,-90.31 875.87,-86.25 457.19,-36 450.03,-35.14 442.56,-34.01 435.16,-32.75"/>
<polygon fill="black" stroke="black" points="435.59,-29.27 425.13,-30.96 434.36,-36.16 435.59,-29.27"/>
</g>
<!-- TransformerD1 -->
<g id="node5" class="node">
<title>TransformerD1</title>
<ellipse fill="none" stroke="black" cx="544.19" cy="-18" rx="77.99" ry="18"/>
<text text-anchor="middle" x="544.19" y="-14.3" font-family="Times-Roman" font-size="14.00">TransformerD1</text>
</g>
<!-- RootDecisionHub&#45;&gt;TransformerD1 -->
<g id="edge4" class="edge">
<title>RootDecisionHub&#45;&gt;TransformerD1</title>
<path fill="none" stroke="black" d="M1581.11,-88.71C1402.38,-87.21 981.45,-78.95 631.19,-36 623.87,-35.1 616.23,-33.94 608.66,-32.65"/>
<polygon fill="black" stroke="black" points="609.23,-29.2 598.77,-30.89 608,-36.09 609.23,-29.2"/>
</g>
<!-- TransformerE1 -->
<g id="node6" class="node">
<title>TransformerE1</title>
<ellipse fill="none" stroke="black" cx="717.19" cy="-18" rx="77.19" ry="18"/>
<text text-anchor="middle" x="717.19" y="-14.3" font-family="Times-Roman" font-size="14.00">TransformerE1</text>
</g>
<!-- RootDecisionHub&#45;&gt;TransformerE1 -->
<g id="edge5" class="edge">
<title>RootDecisionHub&#45;&gt;TransformerE1</title>
<path fill="none" stroke="black" d="M1581.89,-87.53C1425.86,-84.04 1086.71,-72.54 803.19,-36 796.14,-35.09 788.79,-33.95 781.49,-32.68"/>
<polygon fill="black" stroke="black" points="782.07,-29.23 771.61,-30.9 780.83,-36.12 782.07,-29.23"/>
</g>
<!-- TransformerF1 -->
<g id="node7" class="node">
<title>TransformerF1</title>
<ellipse fill="none" stroke="black" cx="889.19" cy="-18" rx="76.89" ry="18"/>
<text text-anchor="middle" x="889.19" y="-14.3" font-family="Times-Roman" font-size="14.00">TransformerF1</text>
</g>
<!-- RootDecisionHub&#45;&gt;TransformerF1 -->
<g id="edge6" class="edge">
<title>RootDecisionHub&#45;&gt;TransformerF1</title>
<path fill="none" stroke="black" d="M1583.31,-85.76C1452.32,-80.03 1193.23,-65.78 975.19,-36 968.15,-35.04 960.8,-33.86 953.51,-32.58"/>
<polygon fill="black" stroke="black" points="954.09,-29.12 943.62,-30.77 952.83,-36.01 954.09,-29.12"/>
</g>
<!-- TransformerG1 -->
<g id="node8" class="node">
<title>TransformerG1</title>
<ellipse fill="none" stroke="black" cx="1062.19" cy="-18" rx="77.99" ry="18"/>
<text text-anchor="middle" x="1062.19" y="-14.3" font-family="Times-Roman" font-size="14.00">TransformerG1</text>
</g>
<!-- RootDecisionHub&#45;&gt;TransformerG1 -->
<g id="edge7" class="edge">
<title>RootDecisionHub&#45;&gt;TransformerG1</title>
<path fill="none" stroke="black" d="M1587.45,-83.05C1485.13,-74.98 1303.52,-58.91 1149.19,-36 1142.18,-34.96 1134.88,-33.74 1127.61,-32.45"/>
<polygon fill="black" stroke="black" points="1128.23,-29 1117.76,-30.64 1126.96,-35.89 1128.23,-29"/>
</g>
<!-- TransformerH1 -->
<g id="node9" class="node">
<title>TransformerH1</title>
<ellipse fill="none" stroke="black" cx="1236.19" cy="-18" rx="77.99" ry="18"/>
<text text-anchor="middle" x="1236.19" y="-14.3" font-family="Times-Roman" font-size="14.00">TransformerH1</text>
</g>
<!-- RootDecisionHub&#45;&gt;TransformerH1 -->
<g id="edge8" class="edge">
<title>RootDecisionHub&#45;&gt;TransformerH1</title>
<path fill="none" stroke="black" d="M1598.35,-79.12C1528.56,-69.04 1418.26,-52.58 1323.19,-36 1316.57,-34.85 1309.68,-33.59 1302.8,-32.3"/>
<polygon fill="black" stroke="black" points="1303.24,-28.82 1292.76,-30.4 1301.93,-35.7 1303.24,-28.82"/>
</g>
<!-- TransformerC2 -->
<g id="node10" class="node">
<title>TransformerC2</title>
<ellipse fill="none" stroke="black" cx="1409.19" cy="-18" rx="77.19" ry="18"/>
<text text-anchor="middle" x="1409.19" y="-14.3" font-family="Times-Roman" font-size="14.00">TransformerC2</text>
</g>
<!-- RootDecisionHub&#45;&gt;TransformerC2 -->
<g id="edge9" class="edge">
<title>RootDecisionHub&#45;&gt;TransformerC2</title>
<path fill="none" stroke="black" d="M1617.64,-75.34C1574.58,-63.7 1512.68,-46.97 1467.52,-34.76"/>
<polygon fill="black" stroke="black" points="1468.43,-31.38 1457.87,-32.15 1466.61,-38.14 1468.43,-31.38"/>
</g>
<!-- TransformerD2 -->
<g id="node11" class="node">
<title>TransformerD2</title>
<ellipse fill="none" stroke="black" cx="1582.19" cy="-18" rx="77.99" ry="18"/>
<text text-anchor="middle" x="1582.19" y="-14.3" font-family="Times-Roman" font-size="14.00">TransformerD2</text>
</g>
<!-- RootDecisionHub&#45;&gt;TransformerD2 -->
<g id="edge10" class="edge">
<title>RootDecisionHub&#45;&gt;TransformerD2</title>
<path fill="none" stroke="black" d="M1647.81,-72.41C1636.68,-63.34 1622.71,-51.97 1610.52,-42.06"/>
<polygon fill="black" stroke="black" points="1612.39,-39.07 1602.43,-35.47 1607.98,-44.5 1612.39,-39.07"/>
</g>
<!-- TransformerE2 -->
<g id="node12" class="node">
<title>TransformerE2</title>
<ellipse fill="none" stroke="black" cx="1755.19" cy="-18" rx="77.19" ry="18"/>
<text text-anchor="middle" x="1755.19" y="-14.3" font-family="Times-Roman" font-size="14.00">TransformerE2</text>
</g>
<!-- RootDecisionHub&#45;&gt;TransformerE2 -->
<g id="edge11" class="edge">
<title>RootDecisionHub&#45;&gt;TransformerE2</title>
<path fill="none" stroke="black" d="M1688.81,-72.41C1700.19,-63.26 1714.48,-51.76 1726.89,-41.77"/>
<polygon fill="black" stroke="black" points="1729.13,-44.47 1734.73,-35.47 1724.74,-39.01 1729.13,-44.47"/>
</g>
<!-- TransformerF2 -->
<g id="node13" class="node">
<title>TransformerF2</title>
<ellipse fill="none" stroke="black" cx="1927.19" cy="-18" rx="76.89" ry="18"/>
<text text-anchor="middle" x="1927.19" y="-14.3" font-family="Times-Roman" font-size="14.00">TransformerF2</text>
</g>
<!-- RootDecisionHub&#45;&gt;TransformerF2 -->
<g id="edge12" class="edge">
<title>RootDecisionHub&#45;&gt;TransformerF2</title>
<path fill="none" stroke="black" d="M1718.75,-75.34C1761.95,-63.66 1824.11,-46.86 1869.3,-34.65"/>
<polygon fill="black" stroke="black" points="1870.22,-38.02 1878.96,-32.04 1868.39,-31.27 1870.22,-38.02"/>
</g>
<!-- TransformerG2 -->
<g id="node14" class="node">
<title>TransformerG2</title>
<ellipse fill="none" stroke="black" cx="2100.19" cy="-18" rx="77.99" ry="18"/>
<text text-anchor="middle" x="2100.19" y="-14.3" font-family="Times-Roman" font-size="14.00">TransformerG2</text>
</g>
<!-- RootDecisionHub&#45;&gt;TransformerG2 -->
<g id="edge13" class="edge">
<title>RootDecisionHub&#45;&gt;TransformerG2</title>
<path fill="none" stroke="black" d="M1738.04,-79.12C1807.83,-69.04 1918.13,-52.58 2013.19,-36 2019.82,-34.85 2026.71,-33.59 2033.59,-32.3"/>
<polygon fill="black" stroke="black" points="2034.46,-35.7 2043.63,-30.4 2033.15,-28.82 2034.46,-35.7"/>
</g>
<!-- TransformerC3 -->
<g id="node15" class="node">
<title>TransformerC3</title>
<ellipse fill="none" stroke="black" cx="2273.19" cy="-18" rx="77.19" ry="18"/>
<text text-anchor="middle" x="2273.19" y="-14.3" font-family="Times-Roman" font-size="14.00">TransformerC3</text>
</g>
<!-- RootDecisionHub&#45;&gt;TransformerC3 -->
<g id="edge14" class="edge">
<title>RootDecisionHub&#45;&gt;TransformerC3</title>
<path fill="none" stroke="black" d="M1748.95,-83.1C1851.27,-75.09 2032.9,-59.08 2187.19,-36 2193.87,-35 2200.81,-33.84 2207.73,-32.6"/>
<polygon fill="black" stroke="black" points="2208.61,-36 2217.81,-30.74 2207.34,-29.11 2208.61,-36"/>
</g>
<!-- TransformerD3 -->
<g id="node16" class="node">
<title>TransformerD3</title>
<ellipse fill="none" stroke="black" cx="2446.19" cy="-18" rx="77.99" ry="18"/>
<text text-anchor="middle" x="2446.19" y="-14.3" font-family="Times-Roman" font-size="14.00">TransformerD3</text>
</g>
<!-- RootDecisionHub&#45;&gt;TransformerD3 -->
<g id="edge15" class="edge">
<title>RootDecisionHub&#45;&gt;TransformerD3</title>
<path fill="none" stroke="black" d="M1752.83,-85.69C1883.43,-79.86 2141.76,-65.48 2359.19,-36 2366.32,-35.03 2373.75,-33.85 2381.13,-32.57"/>
<polygon fill="black" stroke="black" points="2381.91,-35.98 2391.13,-30.76 2380.66,-29.1 2381.91,-35.98"/>
</g>
<!-- TransformerE3 -->
<g id="node17" class="node">
<title>TransformerE3</title>
<ellipse fill="none" stroke="black" cx="2619.19" cy="-18" rx="77.19" ry="18"/>
<text text-anchor="middle" x="2619.19" y="-14.3" font-family="Times-Roman" font-size="14.00">TransformerE3</text>
</g>
<!-- RootDecisionHub&#45;&gt;TransformerE3 -->
<g id="edge16" class="edge">
<title>RootDecisionHub&#45;&gt;TransformerE3</title>
<path fill="none" stroke="black" d="M1754.5,-87.53C1910.53,-84.04 2249.68,-72.54 2533.19,-36 2540.25,-35.09 2547.6,-33.95 2554.9,-32.68"/>
<polygon fill="black" stroke="black" points="2555.56,-36.12 2564.78,-30.9 2554.32,-29.23 2555.56,-36.12"/>
</g>
<!-- TransformerF3 -->
<g id="node18" class="node">
<title>TransformerF3</title>
<ellipse fill="none" stroke="black" cx="2791.19" cy="-18" rx="76.89" ry="18"/>
<text text-anchor="middle" x="2791.19" y="-14.3" font-family="Times-Roman" font-size="14.00">TransformerF3</text>
</g>
<!-- RootDecisionHub&#45;&gt;TransformerF3 -->
<g id="edge17" class="edge">
<title>RootDecisionHub&#45;&gt;TransformerF3</title>
<path fill="none" stroke="black" d="M1755.28,-88.78C1934.03,-87.39 2354.99,-79.33 2705.19,-36 2712.36,-35.11 2719.82,-33.97 2727.23,-32.7"/>
<polygon fill="black" stroke="black" points="2728.03,-36.11 2737.25,-30.9 2726.79,-29.22 2728.03,-36.11"/>
</g>
<!-- TransformerC4 -->
<g id="node19" class="node">
<title>TransformerC4</title>
<ellipse fill="none" stroke="black" cx="2963.19" cy="-18" rx="77.19" ry="18"/>
<text text-anchor="middle" x="2963.19" y="-14.3" font-family="Times-Roman" font-size="14.00">TransformerC4</text>
</g>
<!-- RootDecisionHub&#45;&gt;TransformerC4 -->
<g id="edge18" class="edge">
<title>RootDecisionHub&#45;&gt;TransformerC4</title>
<path fill="none" stroke="black" d="M1755.43,-89.69C1954.87,-90.28 2459.21,-86.18 2877.19,-36 2884.36,-35.14 2891.83,-34.01 2899.23,-32.75"/>
<polygon fill="black" stroke="black" points="2900.03,-36.16 2909.26,-30.96 2898.8,-29.27 2900.03,-36.16"/>
</g>
<!-- TransformerD4 -->
<g id="node20" class="node">
<title>TransformerD4</title>
<ellipse fill="none" stroke="black" cx="3136.19" cy="-18" rx="77.99" ry="18"/>
<text text-anchor="middle" x="3136.19" y="-14.3" font-family="Times-Roman" font-size="14.00">TransformerD4</text>
</g>
<!-- RootDecisionHub&#45;&gt;TransformerD4 -->
<g id="edge19" class="edge">
<title>RootDecisionHub&#45;&gt;TransformerD4</title>
<path fill="none" stroke="black" d="M1754.63,-87.43C2016.2,-82.42 2796.71,-65.33 3049.19,-36 3056.53,-35.15 3064.17,-34.02 3071.74,-32.74"/>
<polygon fill="black" stroke="black" points="3072.39,-36.18 3081.63,-31 3071.18,-29.29 3072.39,-36.18"/>
</g>
<!-- TransformerE4 -->
<g id="node21" class="node">
<title>TransformerE4</title>
<ellipse fill="none" stroke="black" cx="3309.19" cy="-18" rx="77.19" ry="18"/>
<text text-anchor="middle" x="3309.19" y="-14.3" font-family="Times-Roman" font-size="14.00">TransformerE4</text>
</g>
<!-- RootDecisionHub&#45;&gt;TransformerE4 -->
<g id="edge20" class="edge">
<title>RootDecisionHub&#45;&gt;TransformerE4</title>
<path fill="none" stroke="black" d="M1754.85,-87.89C2038.18,-83.95 2935.39,-69.13 3223.19,-36 3230.37,-35.17 3237.83,-34.07 3245.24,-32.82"/>
<polygon fill="black" stroke="black" points="3246.04,-36.23 3255.27,-31.04 3244.81,-29.34 3246.04,-36.23"/>
</g>
</g>
</svg>
