<?xml version="1.0" encoding="UTF-8" standalone="no"?>
<!DOCTYPE svg PUBLIC "-//W3C//DTD SVG 1.1//EN"
 "http://www.w3.org/Graphics/SVG/1.1/DTD/svg11.dtd">
<!-- Generated by graphviz version 2.44.0 (0)
 -->
<!-- Pages: 1 -->
<svg width="2702pt" height="116pt"
 viewBox="0.00 0.00 2701.50 116.00" xmlns="http://www.w3.org/2000/svg" xmlns:xlink="http://www.w3.org/1999/xlink">
<g id="graph0" class="graph" transform="scale(1 1) rotate(0) translate(4 112)">
<polygon fill="white" stroke="transparent" points="-4,4 -4,-112 2697.5,-112 2697.5,4 -4,4"/>
<!-- RootDecisionHub -->
<g id="node1" class="node">
<title>RootDecisionHub</title>
<polygon fill="none" stroke="black" points="1327,-108 1203.67,-90 1327,-72 1450.33,-90 1327,-108"/>
<text text-anchor="middle" x="1327" y="-86.3" font-family="Times-Roman" font-size="14.00">RootDecisionHub</text>
</g>
<!-- ProducerA -->
<g id="node2" class="node">
<title>ProducerA</title>
<polygon fill="none" stroke="black" points="88,-36 0,-36 0,0 88,0 88,-36"/>
<text text-anchor="middle" x="44" y="-14.3" font-family="Times-Roman" font-size="14.00">ProducerA</text>
</g>
<!-- RootDecisionHub&#45;&gt;ProducerA -->
<g id="edge1" class="edge">
<title>RootDecisionHub&#45;&gt;ProducerA</title>
<path fill="none" stroke="black" d="M1217.17,-88.02C961.06,-85.13 329.17,-74.41 98.06,-35.83"/>
<polygon fill="black" stroke="black" points="98.47,-32.35 88.02,-34.09 97.28,-39.25 98.47,-32.35"/>
</g>
<!-- TransformerB -->
<g id="node3" class="node">
<title>TransformerB</title>
<polygon fill="none" stroke="black" points="216,-36 106,-36 106,0 216,0 216,-36"/>
<text text-anchor="middle" x="161" y="-14.3" font-family="Times-Roman" font-size="14.00">TransformerB</text>
</g>
<!-- RootDecisionHub&#45;&gt;TransformerB -->
<g id="edge2" class="edge">
<title>RootDecisionHub&#45;&gt;TransformerB</title>
<path fill="none" stroke="black" d="M1224.8,-86.85C993.43,-81.53 434.22,-66.1 225.95,-35.9"/>
<polygon fill="black" stroke="black" points="226.41,-32.43 216,-34.4 225.37,-39.35 226.41,-32.43"/>
</g>
<!-- TransformerC1 -->
<g id="node4" class="node">
<title>TransformerC1</title>
<polygon fill="none" stroke="black" points="353.5,-36 234.5,-36 234.5,0 353.5,0 353.5,-36"/>
<text text-anchor="middle" x="294" y="-14.3" font-family="Times-Roman" font-size="14.00">TransformerC1</text>
</g>
<!-- RootDecisionHub&#45;&gt;TransformerC1 -->
<g id="edge3" class="edge">
<title>RootDecisionHub&#45;&gt;TransformerC1</title>
<path fill="none" stroke="black" d="M1206.42,-89.56C1025.15,-88.81 671.78,-81.13 363.72,-35.92"/>
<polygon fill="black" stroke="black" points="364.11,-32.44 353.7,-34.43 363.08,-39.36 364.11,-32.44"/>
</g>
<!-- TransformerD1 -->
<g id="node5" class="node">
<title>TransformerD1</title>
<polygon fill="none" stroke="black" points="492,-36 372,-36 372,0 492,0 492,-36"/>
<text text-anchor="middle" x="432" y="-14.3" font-family="Times-Roman" font-size="14.00">TransformerD1</text>
</g>
<!-- RootDecisionHub&#45;&gt;TransformerD1 -->
<g id="edge4" class="edge">
<title>RootDecisionHub&#45;&gt;TransformerD1</title>
<path fill="none" stroke="black" d="M1216.43,-88.12C1059.36,-85.49 762.7,-75.39 502.12,-36"/>
<polygon fill="black" stroke="black" points="502.5,-32.52 492.08,-34.47 501.44,-39.44 502.5,-32.52"/>
</g>
<!-- TransformerE1 -->
<g id="node6" class="node">
<title>TransformerE1</title>
<polygon fill="none" stroke="black" points="629.5,-36 510.5,-36 510.5,0 629.5,0 629.5,-36"/>
<text text-anchor="middle" x="570" y="-14.3" font-family="Times-Roman" font-size="14.00">TransformerE1</text>
</g>
<!-- RootDecisionHub&#45;&gt;TransformerE1 -->
<g id="edge5" class="edge">
<title>RootDecisionHub&#45;&gt;TransformerE1</title>
<path fill="none" stroke="black" d="M1227.56,-86.47C1095.34,-81.96 854.41,-69.75 639.91,-35.98"/>
<polygon fill="black" stroke="black" points="640.14,-32.47 629.72,-34.35 639.04,-39.38 640.14,-32.47"/>
</g>
<!-- TransformerF1 -->
<g id="node7" class="node">
<title>TransformerF1</title>
<polygon fill="none" stroke="black" points="766,-36 648,-36 648,0 766,0 766,-36"/>
<text text-anchor="middle" x="707" y="-14.3" font-family="Times-Roman" font-size="14.00">TransformerF1</text>
</g>
<!-- RootDecisionHub&#45;&gt;TransformerF1 -->
<g id="edge6" class="edge">
<title>RootDecisionHub&#45;&gt;TransformerF1</title>
<path fill="none" stroke="black" d="M1239.94,-84.67C1132.85,-78.43 945.46,-64.59 776.31,-36.08"/>
<polygon fill="black" stroke="black" points="776.67,-32.59 766.23,-34.36 775.5,-39.49 776.67,-32.59"/>
</g>
<!-- TransformerG1 -->
<g id="node8" class="node">
<title>TransformerG1</title>
<polygon fill="none" stroke="black" points="904,-36 784,-36 784,0 904,0 904,-36"/>
<text text-anchor="middle" x="844" y="-14.3" font-family="Times-Roman" font-size="14.00">TransformerG1</text>
</g>
<!-- RootDecisionHub&#45;&gt;TransformerG1 -->
<g id="edge7" class="edge">
<title>RootDecisionHub&#45;&gt;TransformerG1</title>
<path fill="none" stroke="black" d="M1255.55,-82.36C1174.91,-74.3 1039.68,-59.09 914.29,-36.12"/>
<polygon fill="black" stroke="black" points="914.59,-32.62 904.12,-34.24 913.32,-39.5 914.59,-32.62"/>
</g>
<!-- TransformerH1 -->
<g id="node9" class="node">
<title>TransformerH1</title>
<polygon fill="none" stroke="black" points="1042,-36 922,-36 922,0 1042,0 1042,-36"/>
<text text-anchor="middle" x="982" y="-14.3" font-family="Times-Roman" font-size="14.00">TransformerH1</text>
</g>
<!-- RootDecisionHub&#45;&gt;TransformerH1 -->
<g id="edge8" class="edge">
<title>RootDecisionHub&#45;&gt;TransformerH1</title>
<path fill="none" stroke="black" d="M1274.18,-79.7C1220.63,-70.08 1135.15,-54.21 1052.03,-36.17"/>
<polygon fill="black" stroke="black" points="1052.68,-32.73 1042.17,-34.02 1051.19,-39.57 1052.68,-32.73"/>
</g>
<!-- TransformerC2 -->
<g id="node10" class="node">
<title>TransformerC2</title>
<polygon fill="none" stroke="black" points="1179.5,-36 1060.5,-36 1060.5,0 1179.5,0 1179.5,-36"/>
<text text-anchor="middle" x="1120" y="-14.3" font-family="Times-Roman" font-size="14.00">TransformerC2</text>
</g>
<!-- RootDecisionHub&#45;&gt;TransformerC2 -->
<g id="edge9" class="edge">
<title>RootDecisionHub&#45;&gt;TransformerC2</title>
<path fill="none" stroke="black" d="M1291.42,-76.97C1260.99,-66.68 1216.53,-51.64 1180.52,-39.47"/>
<polygon fill="black" stroke="black" points="1181.2,-36 1170.6,-36.11 1178.96,-42.63 1181.2,-36"/>
</g>
<!-- TransformerD2 -->
<g id="node11" class="node">
<title>TransformerD2</title>
<polygon fill="none" stroke="black" points="1318,-36 1198,-36 1198,0 1318,0 1318,-36"/>
<text text-anchor="middle" x="1258" y="-14.3" font-family="Times-Roman" font-size="14.00">TransformerD2</text>
</g>
<!-- RootDecisionHub&#45;&gt;TransformerD2 -->
<g id="edge10" class="edge">
<title>RootDecisionHub&#45;&gt;TransformerD2</title>
<path fill="none" stroke="black" d="M1312.03,-73.81C1303.31,-64.97 1292.11,-53.61 1282.17,-43.52"/>
<polygon fill="black" stroke="black" points="1284.39,-40.79 1274.88,-36.13 1279.41,-45.71 1284.39,-40.79"/>
</g>
<!-- TransformerE2 -->
<g id="node12" class="node">
<title>TransformerE2</title>
<polygon fill="none" stroke="black" points="1455.5,-36 1336.5,-36 1336.5,0 1455.5,0 1455.5,-36"/>
<text text-anchor="middle" x="1396" y="-14.3" font-family="Times-Roman" font-size="14.00">TransformerE2</text>
</g>
<!-- RootDecisionHub&#45;&gt;TransformerE2 -->
<g id="edge11" class="edge">
<title>RootDecisionHub&#45;&gt;TransformerE2</title>
<path fill="none" stroke="black" d="M1341.97,-73.81C1350.69,-64.97 1361.89,-53.61 1371.83,-43.52"/>
<polygon fill="black" stroke="black" points="1374.59,-45.71 1379.12,-36.13 1369.61,-40.79 1374.59,-45.71"/>
</g>
<!-- TransformerF2 -->
<g id="node13" class="node">
<title>TransformerF2</title>
<polygon fill="none" stroke="black" points="1592,-36 1474,-36 1474,0 1592,0 1592,-36"/>
<text text-anchor="middle" x="1533" y="-14.3" font-family="Times-Roman" font-size="14.00">TransformerF2</text>
</g>
<!-- RootDecisionHub&#45;&gt;TransformerF2 -->
<g id="edge12" class="edge">
<title>RootDecisionHub&#45;&gt;TransformerF2</title>
<path fill="none" stroke="black" d="M1362.41,-76.97C1392.7,-66.68 1436.93,-51.64 1472.77,-39.47"/>
<polygon fill="black" stroke="black" points="1474.3,-42.64 1482.64,-36.11 1472.05,-36.02 1474.3,-42.64"/>
</g>
<!-- TransformerG2 -->
<g id="node14" class="node">
<title>TransformerG2</title>
<polygon fill="none" stroke="black" points="1730,-36 1610,-36 1610,0 1730,0 1730,-36"/>
<text text-anchor="middle" x="1670" y="-14.3" font-family="Times-Roman" font-size="14.00">TransformerG2</text>
</g>
<!-- RootDecisionHub&#45;&gt;TransformerG2 -->
<g id="edge13" class="edge">
<title>RootDecisionHub&#45;&gt;TransformerG2</title>
<path fill="none" stroke="black" d="M1379.69,-79.62C1432.87,-69.98 1517.58,-54.11 1600.05,-36.16"/>
<polygon fill="black" stroke="black" points="1600.81,-39.57 1609.83,-34.01 1599.31,-32.73 1600.81,-39.57"/>
</g>
<!-- TransformerC3 -->
<g id="node15" class="node">
<title>TransformerC3</title>
<polygon fill="none" stroke="black" points="1867.5,-36 1748.5,-36 1748.5,0 1867.5,0 1867.5,-36"/>
<text text-anchor="middle" x="1808" y="-14.3" font-family="Times-Roman" font-size="14.00">TransformerC3</text>
</g>
<!-- RootDecisionHub&#45;&gt;TransformerC3 -->
<g id="edge14" class="edge">
<title>RootDecisionHub&#45;&gt;TransformerC3</title>
<path fill="none" stroke="black" d="M1398.1,-82.33C1478.35,-74.25 1612.93,-59.02 1738.1,-36.04"/>
<polygon fill="black" stroke="black" points="1739.06,-39.43 1748.25,-34.16 1737.78,-32.55 1739.06,-39.43"/>
</g>
<!-- TransformerD3 -->
<g id="node16" class="node">
<title>TransformerD3</title>
<polygon fill="none" stroke="black" points="2006,-36 1886,-36 1886,0 2006,0 2006,-36"/>
<text text-anchor="middle" x="1946" y="-14.3" font-family="Times-Roman" font-size="14.00">TransformerD3</text>
</g>
<!-- RootDecisionHub&#45;&gt;TransformerD3 -->
<g id="edge15" class="edge">
<title>RootDecisionHub&#45;&gt;TransformerD3</title>
<path fill="none" stroke="black" d="M1413.25,-84.58C1519.86,-78.24 1706.87,-64.28 1875.82,-36.06"/>
<polygon fill="black" stroke="black" points="1876.62,-39.47 1885.9,-34.35 1875.45,-32.57 1876.62,-39.47"/>
</g>
<!-- TransformerE3 -->
<g id="node17" class="node">
<title>TransformerE3</title>
<polygon fill="none" stroke="black" points="2143.5,-36 2024.5,-36 2024.5,0 2143.5,0 2143.5,-36"/>
<text text-anchor="middle" x="2084" y="-14.3" font-family="Times-Roman" font-size="14.00">TransformerE3</text>
</g>
<!-- RootDecisionHub&#45;&gt;TransformerE3 -->
<g id="edge16" class="edge">
<title>RootDecisionHub&#45;&gt;TransformerE3</title>
<path fill="none" stroke="black" d="M1426.44,-86.47C1558.66,-81.96 1799.59,-69.75 2014.09,-35.98"/>
<polygon fill="black" stroke="black" points="2014.96,-39.38 2024.28,-34.35 2013.86,-32.47 2014.96,-39.38"/>
</g>
<!-- TransformerF3 -->
<g id="node18" class="node">
<title>TransformerF3</title>
<polygon fill="none" stroke="black" points="2280,-36 2162,-36 2162,0 2280,0 2280,-36"/>
<text text-anchor="middle" x="2221" y="-14.3" font-family="Times-Roman" font-size="14.00">TransformerF3</text>
</g>
<!-- RootDecisionHub&#45;&gt;TransformerF3 -->
<g id="edge17" class="edge">
<title>RootDecisionHub&#45;&gt;TransformerF3</title>
<path fill="none" stroke="black" d="M1438.25,-88.23C1595.52,-85.72 1891.74,-75.76 2151.78,-36.02"/>
<polygon fill="black" stroke="black" points="2152.44,-39.46 2161.79,-34.47 2151.37,-32.54 2152.44,-39.46"/>
</g>
<!-- TransformerC4 -->
<g id="node19" class="node">
<title>TransformerC4</title>
<polygon fill="none" stroke="black" points="2417.5,-36 2298.5,-36 2298.5,0 2417.5,0 2417.5,-36"/>
<text text-anchor="middle" x="2358" y="-14.3" font-family="Times-Roman" font-size="14.00">TransformerC4</text>
</g>
<!-- RootDecisionHub&#45;&gt;TransformerC4 -->
<g id="edge18" class="edge">
<title>RootDecisionHub&#45;&gt;TransformerC4</title>
<path fill="none" stroke="black" d="M1447.33,-89.55C1628.23,-88.77 1980.86,-81.06 2288.3,-35.92"/>
<polygon fill="black" stroke="black" points="2288.92,-39.36 2298.3,-34.43 2287.89,-32.44 2288.92,-39.36"/>
</g>
<!-- TransformerD4 -->
<g id="node20" class="node">
<title>TransformerD4</title>
<polygon fill="none" stroke="black" points="2556,-36 2436,-36 2436,0 2556,0 2556,-36"/>
<text text-anchor="middle" x="2496" y="-14.3" font-family="Times-Roman" font-size="14.00">TransformerD4</text>
</g>
<!-- RootDecisionHub&#45;&gt;TransformerD4 -->
<g id="edge19" class="edge">
<title>RootDecisionHub&#45;&gt;TransformerD4</title>
<path fill="none" stroke="black" d="M1427.68,-86.64C1657.74,-80.85 2217.49,-64.42 2425.97,-35.94"/>
<polygon fill="black" stroke="black" points="2426.51,-39.39 2435.92,-34.53 2425.53,-32.46 2426.51,-39.39"/>
</g>
<!-- TransformerE4 -->
<g id="node21" class="node">
<title>TransformerE4</title>
<polygon fill="none" stroke="black" points="2693.5,-36 2574.5,-36 2574.5,0 2693.5,0 2693.5,-36"/>
<text text-anchor="middle" x="2634" y="-14.3" font-family="Times-Roman" font-size="14.00">TransformerE4</text>
</g>
<!-- RootDecisionHub&#45;&gt;TransformerE4 -->
<g id="edge20" class="edge">
<title>RootDecisionHub&#45;&gt;TransformerE4</title>
<path fill="none" stroke="black" d="M1431.18,-87.2C1684.43,-82.41 2328.16,-67.59 2564.06,-35.9"/>
<polygon fill="black" stroke="black" points="2564.88,-39.32 2574.3,-34.48 2563.92,-32.39 2564.88,-39.32"/>
</g>
</g>
</svg>
