<?xml version="1.0" encoding="UTF-8" standalone="no"?>
<!DOCTYPE svg PUBLIC "-//W3C//DTD SVG 1.1//EN"
 "http://www.w3.org/Graphics/SVG/1.1/DTD/svg11.dtd">
<!-- Generated by graphviz version 2.44.0 (0)
 -->
<!-- Pages: 1 -->
<svg width="542pt" height="1124pt"
 viewBox="0.00 0.00 542.00 1124.00" xmlns="http://www.w3.org/2000/svg" xmlns:xlink="http://www.w3.org/1999/xlink">
<g id="graph0" class="graph" transform="scale(1 1) rotate(0) translate(4 1120)">
<polygon fill="white" stroke="transparent" points="-4,4 -4,-1120 538,-1120 538,4 -4,4"/>
<!-- ProducerA -->
<g id="node1" class="node">
<title>ProducerA</title>
<polygon fill="none" stroke="black" points="310,-1116 222,-1116 222,-1080 310,-1080 310,-1116"/>
<text text-anchor="middle" x="266" y="-1094.3" font-family="Times-Roman" font-size="14.00">ProducerA</text>
</g>
<!-- a -->
<g id="node21" class="node DataObject">
<title>a</title>
<ellipse fill="none" stroke="black" cx="266" cy="-1026" rx="27" ry="18"/>
<text text-anchor="middle" x="266" y="-1022.3" font-family="Times-Roman" font-size="14.00">a</text>
</g>
<!-- ProducerA&#45;&gt;a -->
<g id="edge1" class="edge">
<title>ProducerA&#45;&gt;a</title>
<path fill="none" stroke="black" d="M266,-1079.7C266,-1071.98 266,-1062.71 266,-1054.11"/>
<polygon fill="black" stroke="black" points="269.5,-1054.1 266,-1044.1 262.5,-1054.1 269.5,-1054.1"/>
</g>
<!-- TransformerB -->
<g id="node2" class="node">
<title>TransformerB</title>
<polygon fill="none" stroke="black" points="321,-972 211,-972 211,-936 321,-936 321,-972"/>
<text text-anchor="middle" x="266" y="-950.3" font-family="Times-Roman" font-size="14.00">TransformerB</text>
</g>
<!-- b -->
<g id="node22" class="node DataObject">
<title>b</title>
<ellipse fill="none" stroke="black" cx="266" cy="-882" rx="27" ry="18"/>
<text text-anchor="middle" x="266" y="-878.3" font-family="Times-Roman" font-size="14.00">b</text>
</g>
<!-- TransformerB&#45;&gt;b -->
<g id="edge2" class="edge">
<title>TransformerB&#45;&gt;b</title>
<path fill="none" stroke="black" d="M266,-935.7C266,-927.98 266,-918.71 266,-910.11"/>
<polygon fill="black" stroke="black" points="269.5,-910.1 266,-900.1 262.5,-910.1 269.5,-910.1"/>
</g>
<!-- TransformerC1 -->
<g id="node3" class="node">
<title>TransformerC1</title>
<polygon fill="none" stroke="black" points="120.5,-828 1.5,-828 1.5,-792 120.5,-792 120.5,-828"/>
<text text-anchor="middle" x="61" y="-806.3" font-family="Times-Roman" font-size="14.00">TransformerC1</text>
</g>
<!-- c1 -->
<g id="node23" class="node DataObject">
<title>c1</title>
<ellipse fill="none" stroke="black" cx="61" cy="-738" rx="27" ry="18"/>
<text text-anchor="middle" x="61" y="-734.3" font-family="Times-Roman" font-size="14.00">c1</text>
</g>
<!-- TransformerC1&#45;&gt;c1 -->
<g id="edge3" class="edge">
<title>TransformerC1&#45;&gt;c1</title>
<path fill="none" stroke="black" d="M61,-791.7C61,-783.98 61,-774.71 61,-766.11"/>
<polygon fill="black" stroke="black" points="64.5,-766.1 61,-756.1 57.5,-766.1 64.5,-766.1"/>
</g>
<!-- TransformerD1 -->
<g id="node4" class="node">
<title>TransformerD1</title>
<polygon fill="none" stroke="black" points="120,-684 0,-684 0,-648 120,-648 120,-684"/>
<text text-anchor="middle" x="60" y="-662.3" font-family="Times-Roman" font-size="14.00">TransformerD1</text>
</g>
<!-- d1 -->
<g id="node27" class="node DataObject">
<title>d1</title>
<ellipse fill="none" stroke="black" cx="60" cy="-594" rx="27" ry="18"/>
<text text-anchor="middle" x="60" y="-590.3" font-family="Times-Roman" font-size="14.00">d1</text>
</g>
<!-- TransformerD1&#45;&gt;d1 -->
<g id="edge4" class="edge">
<title>TransformerD1&#45;&gt;d1</title>
<path fill="none" stroke="black" d="M60,-647.7C60,-639.98 60,-630.71 60,-622.11"/>
<polygon fill="black" stroke="black" points="63.5,-622.1 60,-612.1 56.5,-622.1 63.5,-622.1"/>
</g>
<!-- TransformerE1 -->
<g id="node5" class="node">
<title>TransformerE1</title>
<polygon fill="none" stroke="black" points="119.5,-540 0.5,-540 0.5,-504 119.5,-504 119.5,-540"/>
<text text-anchor="middle" x="60" y="-518.3" font-family="Times-Roman" font-size="14.00">TransformerE1</text>
</g>
<!-- e1 -->
<g id="node31" class="node DataObject">
<title>e1</title>
<ellipse fill="none" stroke="black" cx="60" cy="-450" rx="27" ry="18"/>
<text text-anchor="middle" x="60" y="-446.3" font-family="Times-Roman" font-size="14.00">e1</text>
</g>
<!-- TransformerE1&#45;&gt;e1 -->
<g id="edge5" class="edge">
<title>TransformerE1&#45;&gt;e1</title>
<path fill="none" stroke="black" d="M60,-503.7C60,-495.98 60,-486.71 60,-478.11"/>
<polygon fill="black" stroke="black" points="63.5,-478.1 60,-468.1 56.5,-478.1 63.5,-478.1"/>
</g>
<!-- TransformerF1 -->
<g id="node6" class="node">
<title>TransformerF1</title>
<polygon fill="none" stroke="black" points="119,-396 1,-396 1,-360 119,-360 119,-396"/>
<text text-anchor="middle" x="60" y="-374.3" font-family="Times-Roman" font-size="14.00">TransformerF1</text>
</g>
<!-- f1 -->
<g id="node35" class="node DataObject">
<title>f1</title>
<ellipse fill="none" stroke="black" cx="60" cy="-306" rx="27" ry="18"/>
<text text-anchor="middle" x="60" y="-302.3" font-family="Times-Roman" font-size="14.00">f1</text>
</g>
<!-- TransformerF1&#45;&gt;f1 -->
<g id="edge6" class="edge">
<title>TransformerF1&#45;&gt;f1</title>
<path fill="none" stroke="black" d="M60,-359.7C60,-351.98 60,-342.71 60,-334.11"/>
<polygon fill="black" stroke="black" points="63.5,-334.1 60,-324.1 56.5,-334.1 63.5,-334.1"/>
</g>
<!-- TransformerG1 -->
<g id="node7" class="node">
<title>TransformerG1</title>
<polygon fill="none" stroke="black" points="120,-252 0,-252 0,-216 120,-216 120,-252"/>
<text text-anchor="middle" x="60" y="-230.3" font-family="Times-Roman" font-size="14.00">TransformerG1</text>
</g>
<!-- g1 -->
<g id="node38" class="node DataObject">
<title>g1</title>
<ellipse fill="none" stroke="black" cx="60" cy="-162" rx="27" ry="18"/>
<text text-anchor="middle" x="60" y="-158.3" font-family="Times-Roman" font-size="14.00">g1</text>
</g>
<!-- TransformerG1&#45;&gt;g1 -->
<g id="edge7" class="edge">
<title>TransformerG1&#45;&gt;g1</title>
<path fill="none" stroke="black" d="M60,-215.7C60,-207.98 60,-198.71 60,-190.11"/>
<polygon fill="black" stroke="black" points="63.5,-190.1 60,-180.1 56.5,-190.1 63.5,-190.1"/>
</g>
<!-- TransformerH1 -->
<g id="node8" class="node">
<title>TransformerH1</title>
<polygon fill="none" stroke="black" points="120,-108 0,-108 0,-72 120,-72 120,-108"/>
<text text-anchor="middle" x="60" y="-86.3" font-family="Times-Roman" font-size="14.00">TransformerH1</text>
</g>
<!-- h1 -->
<g id="node40" class="node DataObject">
<title>h1</title>
<ellipse fill="none" stroke="black" cx="60" cy="-18" rx="27" ry="18"/>
<text text-anchor="middle" x="60" y="-14.3" font-family="Times-Roman" font-size="14.00">h1</text>
</g>
<!-- TransformerH1&#45;&gt;h1 -->
<g id="edge8" class="edge">
<title>TransformerH1&#45;&gt;h1</title>
<path fill="none" stroke="black" d="M60,-71.7C60,-63.98 60,-54.71 60,-46.11"/>
<polygon fill="black" stroke="black" points="63.5,-46.1 60,-36.1 56.5,-46.1 63.5,-46.1"/>
</g>
<!-- TransformerC2 -->
<g id="node9" class="node">
<title>TransformerC2</title>
<polygon fill="none" stroke="black" points="257.5,-828 138.5,-828 138.5,-792 257.5,-792 257.5,-828"/>
<text text-anchor="middle" x="198" y="-806.3" font-family="Times-Roman" font-size="14.00">TransformerC2</text>
</g>
<!-- c2 -->
<g id="node24" class="node DataObject">
<title>c2</title>
<ellipse fill="none" stroke="black" cx="198" cy="-738" rx="27" ry="18"/>
<text text-anchor="middle" x="198" y="-734.3" font-family="Times-Roman" font-size="14.00">c2</text>
</g>
<!-- TransformerC2&#45;&gt;c2 -->
<g id="edge9" class="edge">
<title>TransformerC2&#45;&gt;c2</title>
<path fill="none" stroke="black" d="M198,-791.7C198,-783.98 198,-774.71 198,-766.11"/>
<polygon fill="black" stroke="black" points="201.5,-766.1 198,-756.1 194.5,-766.1 201.5,-766.1"/>
</g>
<!-- TransformerD2 -->
<g id="node10" class="node">
<title>TransformerD2</title>
<polygon fill="none" stroke="black" points="258,-684 138,-684 138,-648 258,-648 258,-684"/>
<text text-anchor="middle" x="198" y="-662.3" font-family="Times-Roman" font-size="14.00">TransformerD2</text>
</g>
<!-- d2 -->
<g id="node28" class="node DataObject">
<title>d2</title>
<ellipse fill="none" stroke="black" cx="198" cy="-594" rx="27" ry="18"/>
<text text-anchor="middle" x="198" y="-590.3" font-family="Times-Roman" font-size="14.00">d2</text>
</g>
<!-- TransformerD2&#45;&gt;d2 -->
<g id="edge10" class="edge">
<title>TransformerD2&#45;&gt;d2</title>
<path fill="none" stroke="black" d="M198,-647.7C198,-639.98 198,-630.71 198,-622.11"/>
<polygon fill="black" stroke="black" points="201.5,-622.1 198,-612.1 194.5,-622.1 201.5,-622.1"/>
</g>
<!-- TransformerE2 -->
<g id="node11" class="node">
<title>TransformerE2</title>
<polygon fill="none" stroke="black" points="257.5,-540 138.5,-540 138.5,-504 257.5,-504 257.5,-540"/>
<text text-anchor="middle" x="198" y="-518.3" font-family="Times-Roman" font-size="14.00">TransformerE2</text>
</g>
<!-- e2 -->
<g id="node32" class="node DataObject">
<title>e2</title>
<ellipse fill="none" stroke="black" cx="198" cy="-450" rx="27" ry="18"/>
<text text-anchor="middle" x="198" y="-446.3" font-family="Times-Roman" font-size="14.00">e2</text>
</g>
<!-- TransformerE2&#45;&gt;e2 -->
<g id="edge11" class="edge">
<title>TransformerE2&#45;&gt;e2</title>
<path fill="none" stroke="black" d="M198,-503.7C198,-495.98 198,-486.71 198,-478.11"/>
<polygon fill="black" stroke="black" points="201.5,-478.1 198,-468.1 194.5,-478.1 201.5,-478.1"/>
</g>
<!-- TransformerF2 -->
<g id="node12" class="node">
<title>TransformerF2</title>
<polygon fill="none" stroke="black" points="257,-396 139,-396 139,-360 257,-360 257,-396"/>
<text text-anchor="middle" x="198" y="-374.3" font-family="Times-Roman" font-size="14.00">TransformerF2</text>
</g>
<!-- f2 -->
<g id="node36" class="node DataObject">
<title>f2</title>
<ellipse fill="none" stroke="black" cx="198" cy="-306" rx="27" ry="18"/>
<text text-anchor="middle" x="198" y="-302.3" font-family="Times-Roman" font-size="14.00">f2</text>
</g>
<!-- TransformerF2&#45;&gt;f2 -->
<g id="edge12" class="edge">
<title>TransformerF2&#45;&gt;f2</title>
<path fill="none" stroke="black" d="M198,-359.7C198,-351.98 198,-342.71 198,-334.11"/>
<polygon fill="black" stroke="black" points="201.5,-334.1 198,-324.1 194.5,-334.1 201.5,-334.1"/>
</g>
<!-- TransformerG2 -->
<g id="node13" class="node">
<title>TransformerG2</title>
<polygon fill="none" stroke="black" points="258,-252 138,-252 138,-216 258,-216 258,-252"/>
<text text-anchor="middle" x="198" y="-230.3" font-family="Times-Roman" font-size="14.00">TransformerG2</text>
</g>
<!-- g2 -->
<g id="node39" class="node DataObject">
<title>g2</title>
<ellipse fill="none" stroke="black" cx="198" cy="-162" rx="27" ry="18"/>
<text text-anchor="middle" x="198" y="-158.3" font-family="Times-Roman" font-size="14.00">g2</text>
</g>
<!-- TransformerG2&#45;&gt;g2 -->
<g id="edge13" class="edge">
<title>TransformerG2&#45;&gt;g2</title>
<path fill="none" stroke="black" d="M198,-215.7C198,-207.98 198,-198.71 198,-190.11"/>
<polygon fill="black" stroke="black" points="201.5,-190.1 198,-180.1 194.5,-190.1 201.5,-190.1"/>
</g>
<!-- TransformerC3 -->
<g id="node14" class="node">
<title>TransformerC3</title>
<polygon fill="none" stroke="black" points="394.5,-828 275.5,-828 275.5,-792 394.5,-792 394.5,-828"/>
<text text-anchor="middle" x="335" y="-806.3" font-family="Times-Roman" font-size="14.00">TransformerC3</text>
</g>
<!-- c3 -->
<g id="node25" class="node DataObject">
<title>c3</title>
<ellipse fill="none" stroke="black" cx="336" cy="-738" rx="27" ry="18"/>
<text text-anchor="middle" x="336" y="-734.3" font-family="Times-Roman" font-size="14.00">c3</text>
</g>
<!-- TransformerC3&#45;&gt;c3 -->
<g id="edge14" class="edge">
<title>TransformerC3&#45;&gt;c3</title>
<path fill="none" stroke="black" d="M335.25,-791.7C335.36,-783.98 335.49,-774.71 335.61,-766.11"/>
<polygon fill="black" stroke="black" points="339.11,-766.15 335.76,-756.1 332.11,-766.05 339.11,-766.15"/>
</g>
<!-- TransformerD3 -->
<g id="node15" class="node">
<title>TransformerD3</title>
<polygon fill="none" stroke="black" points="396,-684 276,-684 276,-648 396,-648 396,-684"/>
<text text-anchor="middle" x="336" y="-662.3" font-family="Times-Roman" font-size="14.00">TransformerD3</text>
</g>
<!-- d3 -->
<g id="node29" class="node DataObject">
<title>d3</title>
<ellipse fill="none" stroke="black" cx="336" cy="-594" rx="27" ry="18"/>
<text text-anchor="middle" x="336" y="-590.3" font-family="Times-Roman" font-size="14.00">d3</text>
</g>
<!-- TransformerD3&#45;&gt;d3 -->
<g id="edge15" class="edge">
<title>TransformerD3&#45;&gt;d3</title>
<path fill="none" stroke="black" d="M336,-647.7C336,-639.98 336,-630.71 336,-622.11"/>
<polygon fill="black" stroke="black" points="339.5,-622.1 336,-612.1 332.5,-622.1 339.5,-622.1"/>
</g>
<!-- TransformerE3 -->
<g id="node16" class="node">
<title>TransformerE3</title>
<polygon fill="none" stroke="black" points="395.5,-540 276.5,-540 276.5,-504 395.5,-504 395.5,-540"/>
<text text-anchor="middle" x="336" y="-518.3" font-family="Times-Roman" font-size="14.00">TransformerE3</text>
</g>
<!-- e3 -->
<g id="node33" class="node DataObject">
<title>e3</title>
<ellipse fill="none" stroke="black" cx="336" cy="-450" rx="27" ry="18"/>
<text text-anchor="middle" x="336" y="-446.3" font-family="Times-Roman" font-size="14.00">e3</text>
</g>
<!-- TransformerE3&#45;&gt;e3 -->
<g id="edge16" class="edge">
<title>TransformerE3&#45;&gt;e3</title>
<path fill="none" stroke="black" d="M336,-503.7C336,-495.98 336,-486.71 336,-478.11"/>
<polygon fill="black" stroke="black" points="339.5,-478.1 336,-468.1 332.5,-478.1 339.5,-478.1"/>
</g>
<!-- TransformerF3 -->
<g id="node17" class="node">
<title>TransformerF3</title>
<polygon fill="none" stroke="black" points="395,-396 277,-396 277,-360 395,-360 395,-396"/>
<text text-anchor="middle" x="336" y="-374.3" font-family="Times-Roman" font-size="14.00">TransformerF3</text>
</g>
<!-- f3 -->
<g id="node37" class="node DataObject">
<title>f3</title>
<ellipse fill="none" stroke="black" cx="336" cy="-306" rx="27" ry="18"/>
<text text-anchor="middle" x="336" y="-302.3" font-family="Times-Roman" font-size="14.00">f3</text>
</g>
<!-- TransformerF3&#45;&gt;f3 -->
<g id="edge17" class="edge">
<title>TransformerF3&#45;&gt;f3</title>
<path fill="none" stroke="black" d="M336,-359.7C336,-351.98 336,-342.71 336,-334.11"/>
<polygon fill="black" stroke="black" points="339.5,-334.1 336,-324.1 332.5,-334.1 339.5,-334.1"/>
</g>
<!-- TransformerC4 -->
<g id="node18" class="node">
<title>TransformerC4</title>
<polygon fill="none" stroke="black" points="532.5,-828 413.5,-828 413.5,-792 532.5,-792 532.5,-828"/>
<text text-anchor="middle" x="473" y="-806.3" font-family="Times-Roman" font-size="14.00">TransformerC4</text>
</g>
<!-- c4 -->
<g id="node26" class="node DataObject">
<title>c4</title>
<ellipse fill="none" stroke="black" cx="473" cy="-738" rx="27" ry="18"/>
<text text-anchor="middle" x="473" y="-734.3" font-family="Times-Roman" font-size="14.00">c4</text>
</g>
<!-- TransformerC4&#45;&gt;c4 -->
<g id="edge18" class="edge">
<title>TransformerC4&#45;&gt;c4</title>
<path fill="none" stroke="black" d="M473,-791.7C473,-783.98 473,-774.71 473,-766.11"/>
<polygon fill="black" stroke="black" points="476.5,-766.1 473,-756.1 469.5,-766.1 476.5,-766.1"/>
</g>
<!-- TransformerD4 -->
<g id="node19" class="node">
<title>TransformerD4</title>
<polygon fill="none" stroke="black" points="534,-684 414,-684 414,-648 534,-648 534,-684"/>
<text text-anchor="middle" x="474" y="-662.3" font-family="Times-Roman" font-size="14.00">TransformerD4</text>
</g>
<!-- d4 -->
<g id="node30" class="node DataObject">
<title>d4</title>
<ellipse fill="none" stroke="black" cx="474" cy="-594" rx="27" ry="18"/>
<text text-anchor="middle" x="474" y="-590.3" font-family="Times-Roman" font-size="14.00">d4</text>
</g>
<!-- TransformerD4&#45;&gt;d4 -->
<g id="edge19" class="edge">
<title>TransformerD4&#45;&gt;d4</title>
<path fill="none" stroke="black" d="M474,-647.7C474,-639.98 474,-630.71 474,-622.11"/>
<polygon fill="black" stroke="black" points="477.5,-622.1 474,-612.1 470.5,-622.1 477.5,-622.1"/>
</g>
<!-- TransformerE4 -->
<g id="node20" class="node">
<title>TransformerE4</title>
<polygon fill="none" stroke="black" points="533.5,-540 414.5,-540 414.5,-504 533.5,-504 533.5,-540"/>
<text text-anchor="middle" x="474" y="-518.3" font-family="Times-Roman" font-size="14.00">TransformerE4</text>
</g>
<!-- e4 -->
<g id="node34" class="node DataObject">
<title>e4</title>
<ellipse fill="none" stroke="black" cx="474" cy="-450" rx="27" ry="18"/>
<text text-anchor="middle" x="474" y="-446.3" font-family="Times-Roman" font-size="14.00">e4</text>
</g>
<!-- TransformerE4&#45;&gt;e4 -->
<g id="edge20" class="edge">
<title>TransformerE4&#45;&gt;e4</title>
<path fill="none" stroke="black" d="M474,-503.7C474,-495.98 474,-486.71 474,-478.11"/>
<polygon fill="black" stroke="black" points="477.5,-478.1 474,-468.1 470.5,-478.1 477.5,-478.1"/>
</g>
<!-- a&#45;&gt;TransformerB -->
<g id="edge21" class="edge">
<title>a&#45;&gt;TransformerB</title>
<path fill="none" stroke="black" d="M266,-1007.7C266,-999.98 266,-990.71 266,-982.11"/>
<polygon fill="black" stroke="black" points="269.5,-982.1 266,-972.1 262.5,-982.1 269.5,-982.1"/>
</g>
<!-- b&#45;&gt;TransformerC1 -->
<g id="edge22" class="edge">
<title>b&#45;&gt;TransformerC1</title>
<path fill="none" stroke="black" d="M242.48,-872.97C212.98,-862.9 161.33,-845.26 120.66,-831.37"/>
<polygon fill="black" stroke="black" points="121.7,-828.03 111.1,-828.11 119.44,-834.65 121.7,-828.03"/>
</g>
<!-- b&#45;&gt;TransformerC2 -->
<g id="edge23" class="edge">
<title>b&#45;&gt;TransformerC2</title>
<path fill="none" stroke="black" d="M251.91,-866.5C243.21,-857.54 231.82,-845.81 221.75,-835.45"/>
<polygon fill="black" stroke="black" points="224.19,-832.94 214.71,-828.2 219.17,-837.82 224.19,-832.94"/>
</g>
<!-- b&#45;&gt;TransformerC3 -->
<g id="edge24" class="edge">
<title>b&#45;&gt;TransformerC3</title>
<path fill="none" stroke="black" d="M280.3,-866.5C289.13,-857.54 300.68,-845.81 310.9,-835.45"/>
<polygon fill="black" stroke="black" points="313.51,-837.78 318.04,-828.2 308.53,-832.87 313.51,-837.78"/>
</g>
<!-- b&#45;&gt;TransformerC4 -->
<g id="edge25" class="edge">
<title>b&#45;&gt;TransformerC4</title>
<path fill="none" stroke="black" d="M289.75,-872.97C319.53,-862.9 371.69,-845.26 412.76,-831.37"/>
<polygon fill="black" stroke="black" points="414.06,-834.63 422.41,-828.11 411.81,-828 414.06,-834.63"/>
</g>
<!-- c1&#45;&gt;TransformerD1 -->
<g id="edge26" class="edge">
<title>c1&#45;&gt;TransformerD1</title>
<path fill="none" stroke="black" d="M60.75,-719.7C60.64,-711.98 60.51,-702.71 60.39,-694.11"/>
<polygon fill="black" stroke="black" points="63.89,-694.05 60.24,-684.1 56.89,-694.15 63.89,-694.05"/>
</g>
<!-- c2&#45;&gt;TransformerD2 -->
<g id="edge27" class="edge">
<title>c2&#45;&gt;TransformerD2</title>
<path fill="none" stroke="black" d="M198,-719.7C198,-711.98 198,-702.71 198,-694.11"/>
<polygon fill="black" stroke="black" points="201.5,-694.1 198,-684.1 194.5,-694.1 201.5,-694.1"/>
</g>
<!-- c3&#45;&gt;TransformerD3 -->
<g id="edge28" class="edge">
<title>c3&#45;&gt;TransformerD3</title>
<path fill="none" stroke="black" d="M336,-719.7C336,-711.98 336,-702.71 336,-694.11"/>
<polygon fill="black" stroke="black" points="339.5,-694.1 336,-684.1 332.5,-694.1 339.5,-694.1"/>
</g>
<!-- c4&#45;&gt;TransformerD4 -->
<g id="edge29" class="edge">
<title>c4&#45;&gt;TransformerD4</title>
<path fill="none" stroke="black" d="M473.25,-719.7C473.36,-711.98 473.49,-702.71 473.61,-694.11"/>
<polygon fill="black" stroke="black" points="477.11,-694.15 473.76,-684.1 470.11,-694.05 477.11,-694.15"/>
</g>
<!-- d1&#45;&gt;TransformerE1 -->
<g id="edge30" class="edge">
<title>d1&#45;&gt;TransformerE1</title>
<path fill="none" stroke="black" d="M60,-575.7C60,-567.98 60,-558.71 60,-550.11"/>
<polygon fill="black" stroke="black" points="63.5,-550.1 60,-540.1 56.5,-550.1 63.5,-550.1"/>
</g>
<!-- d2&#45;&gt;TransformerE2 -->
<g id="edge31" class="edge">
<title>d2&#45;&gt;TransformerE2</title>
<path fill="none" stroke="black" d="M198,-575.7C198,-567.98 198,-558.71 198,-550.11"/>
<polygon fill="black" stroke="black" points="201.5,-550.1 198,-540.1 194.5,-550.1 201.5,-550.1"/>
</g>
<!-- d3&#45;&gt;TransformerE3 -->
<g id="edge32" class="edge">
<title>d3&#45;&gt;TransformerE3</title>
<path fill="none" stroke="black" d="M336,-575.7C336,-567.98 336,-558.71 336,-550.11"/>
<polygon fill="black" stroke="black" points="339.5,-550.1 336,-540.1 332.5,-550.1 339.5,-550.1"/>
</g>
<!-- d4&#45;&gt;TransformerE4 -->
<g id="edge33" class="edge">
<title>d4&#45;&gt;TransformerE4</title>
<path fill="none" stroke="black" d="M474,-575.7C474,-567.98 474,-558.71 474,-550.11"/>
<polygon fill="black" stroke="black" points="477.5,-550.1 474,-540.1 470.5,-550.1 477.5,-550.1"/>
</g>
<!-- e1&#45;&gt;TransformerF1 -->
<g id="edge34" class="edge">
<title>e1&#45;&gt;TransformerF1</title>
<path fill="none" stroke="black" d="M60,-431.7C60,-423.98 60,-414.71 60,-406.11"/>
<polygon fill="black" stroke="black" points="63.5,-406.1 60,-396.1 56.5,-406.1 63.5,-406.1"/>
</g>
<!-- e2&#45;&gt;TransformerF2 -->
<g id="edge35" class="edge">
<title>e2&#45;&gt;TransformerF2</title>
<path fill="none" stroke="black" d="M198,-431.7C198,-423.98 198,-414.71 198,-406.11"/>
<polygon fill="black" stroke="black" points="201.5,-406.1 198,-396.1 194.5,-406.1 201.5,-406.1"/>
</g>
<!-- e3&#45;&gt;TransformerF3 -->
<g id="edge36" class="edge">
<title>e3&#45;&gt;TransformerF3</title>
<path fill="none" stroke="black" d="M336,-431.7C336,-423.98 336,-414.71 336,-406.11"/>
<polygon fill="black" stroke="black" points="339.5,-406.1 336,-396.1 332.5,-406.1 339.5,-406.1"/>
</g>
<!-- f1&#45;&gt;TransformerG1 -->
<g id="edge37" class="edge">
<title>f1&#45;&gt;TransformerG1</title>
<path fill="none" stroke="black" d="M60,-287.7C60,-279.98 60,-270.71 60,-262.11"/>
<polygon fill="black" stroke="black" points="63.5,-262.1 60,-252.1 56.5,-262.1 63.5,-262.1"/>
</g>
<!-- f2&#45;&gt;TransformerG2 -->
<g id="edge38" class="edge">
<title>f2&#45;&gt;TransformerG2</title>
<path fill="none" stroke="black" d="M198,-287.7C198,-279.98 198,-270.71 198,-262.11"/>
<polygon fill="black" stroke="black" points="201.5,-262.1 198,-252.1 194.5,-262.1 201.5,-262.1"/>
</g>
<!-- g1&#45;&gt;TransformerH1 -->
<g id="edge39" class="edge">
<title>g1&#45;&gt;TransformerH1</title>
<path fill="none" stroke="black" d="M60,-143.7C60,-135.98 60,-126.71 60,-118.11"/>
<polygon fill="black" stroke="black" points="63.5,-118.1 60,-108.1 56.5,-118.1 63.5,-118.1"/>
</g>
</g>
</svg>
