<?xml version="1.0" encoding="UTF-8" standalone="no"?>
<!DOCTYPE svg PUBLIC "-//W3C//DTD SVG 1.1//EN"
 "http://www.w3.org/Graphics/SVG/1.1/DTD/svg11.dtd">
<!-- Generated by graphviz version 2.44.0 (0)
 -->
<!-- Pages: 1 -->
<svg width="686pt" height="1124pt"
 viewBox="0.00 0.00 685.99 1124.00" xmlns="http://www.w3.org/2000/svg" xmlns:xlink="http://www.w3.org/1999/xlink">
<g id="graph0" class="graph" transform="scale(1 1) rotate(0) translate(4 1120)">
<polygon fill="white" stroke="transparent" points="-4,4 -4,-1120 681.99,-1120 681.99,4 -4,4"/>
<!-- ProducerA -->
<g id="node1" class="node">
<title>ProducerA</title>
<ellipse fill="none" stroke="black" cx="337.99" cy="-1098" rx="57.39" ry="18"/>
<text text-anchor="middle" x="337.99" y="-1094.3" font-family="Times-Roman" font-size="14.00">ProducerA</text>
</g>
<!-- a -->
<g id="node21" class="node DataObject">
<title>a</title>
<ellipse fill="none" stroke="black" cx="337.99" cy="-1026" rx="27" ry="18"/>
<text text-anchor="middle" x="337.99" y="-1022.3" font-family="Times-Roman" font-size="14.00">a</text>
</g>
<!-- ProducerA&#45;&gt;a -->
<g id="edge1" class="edge">
<title>ProducerA&#45;&gt;a</title>
<path fill="none" stroke="black" d="M337.99,-1079.7C337.99,-1071.98 337.99,-1062.71 337.99,-1054.11"/>
<polygon fill="black" stroke="black" points="341.49,-1054.1 337.99,-1044.1 334.49,-1054.1 341.49,-1054.1"/>
</g>
<!-- TransformerB -->
<g id="node2" class="node">
<title>TransformerB</title>
<ellipse fill="none" stroke="black" cx="337.99" cy="-954" rx="71.49" ry="18"/>
<text text-anchor="middle" x="337.99" y="-950.3" font-family="Times-Roman" font-size="14.00">TransformerB</text>
</g>
<!-- b -->
<g id="node22" class="node DataObject">
<title>b</title>
<ellipse fill="none" stroke="black" cx="337.99" cy="-882" rx="27" ry="18"/>
<text text-anchor="middle" x="337.99" y="-878.3" font-family="Times-Roman" font-size="14.00">b</text>
</g>
<!-- TransformerB&#45;&gt;b -->
<g id="edge2" class="edge">
<title>TransformerB&#45;&gt;b</title>
<path fill="none" stroke="black" d="M337.99,-935.7C337.99,-927.98 337.99,-918.71 337.99,-910.11"/>
<polygon fill="black" stroke="black" points="341.49,-910.1 337.99,-900.1 334.49,-910.1 341.49,-910.1"/>
</g>
<!-- TransformerC1 -->
<g id="node3" class="node">
<title>TransformerC1</title>
<ellipse fill="none" stroke="black" cx="78.99" cy="-810" rx="77.19" ry="18"/>
<text text-anchor="middle" x="78.99" y="-806.3" font-family="Times-Roman" font-size="14.00">TransformerC1</text>
</g>
<!-- c1 -->
<g id="node23" class="node DataObject">
<title>c1</title>
<ellipse fill="none" stroke="black" cx="78.99" cy="-738" rx="27" ry="18"/>
<text text-anchor="middle" x="78.99" y="-734.3" font-family="Times-Roman" font-size="14.00">c1</text>
</g>
<!-- TransformerC1&#45;&gt;c1 -->
<g id="edge3" class="edge">
<title>TransformerC1&#45;&gt;c1</title>
<path fill="none" stroke="black" d="M78.99,-791.7C78.99,-783.98 78.99,-774.71 78.99,-766.11"/>
<polygon fill="black" stroke="black" points="82.49,-766.1 78.99,-756.1 75.49,-766.1 82.49,-766.1"/>
</g>
<!-- TransformerD1 -->
<g id="node4" class="node">
<title>TransformerD1</title>
<ellipse fill="none" stroke="black" cx="77.99" cy="-666" rx="77.99" ry="18"/>
<text text-anchor="middle" x="77.99" y="-662.3" font-family="Times-Roman" font-size="14.00">TransformerD1</text>
</g>
<!-- d1 -->
<g id="node27" class="node DataObject">
<title>d1</title>
<ellipse fill="none" stroke="black" cx="77.99" cy="-594" rx="27" ry="18"/>
<text text-anchor="middle" x="77.99" y="-590.3" font-family="Times-Roman" font-size="14.00">d1</text>
</g>
<!-- TransformerD1&#45;&gt;d1 -->
<g id="edge4" class="edge">
<title>TransformerD1&#45;&gt;d1</title>
<path fill="none" stroke="black" d="M77.99,-647.7C77.99,-639.98 77.99,-630.71 77.99,-622.11"/>
<polygon fill="black" stroke="black" points="81.49,-622.1 77.99,-612.1 74.49,-622.1 81.49,-622.1"/>
</g>
<!-- TransformerE1 -->
<g id="node5" class="node">
<title>TransformerE1</title>
<ellipse fill="none" stroke="black" cx="77.99" cy="-522" rx="77.19" ry="18"/>
<text text-anchor="middle" x="77.99" y="-518.3" font-family="Times-Roman" font-size="14.00">TransformerE1</text>
</g>
<!-- e1 -->
<g id="node31" class="node DataObject">
<title>e1</title>
<ellipse fill="none" stroke="black" cx="77.99" cy="-450" rx="27" ry="18"/>
<text text-anchor="middle" x="77.99" y="-446.3" font-family="Times-Roman" font-size="14.00">e1</text>
</g>
<!-- TransformerE1&#45;&gt;e1 -->
<g id="edge5" class="edge">
<title>TransformerE1&#45;&gt;e1</title>
<path fill="none" stroke="black" d="M77.99,-503.7C77.99,-495.98 77.99,-486.71 77.99,-478.11"/>
<polygon fill="black" stroke="black" points="81.49,-478.1 77.99,-468.1 74.49,-478.1 81.49,-478.1"/>
</g>
<!-- TransformerF1 -->
<g id="node6" class="node">
<title>TransformerF1</title>
<ellipse fill="none" stroke="black" cx="77.99" cy="-378" rx="76.89" ry="18"/>
<text text-anchor="middle" x="77.99" y="-374.3" font-family="Times-Roman" font-size="14.00">TransformerF1</text>
</g>
<!-- f1 -->
<g id="node35" class="node DataObject">
<title>f1</title>
<ellipse fill="none" stroke="black" cx="77.99" cy="-306" rx="27" ry="18"/>
<text text-anchor="middle" x="77.99" y="-302.3" font-family="Times-Roman" font-size="14.00">f1</text>
</g>
<!-- TransformerF1&#45;&gt;f1 -->
<g id="edge6" class="edge">
<title>TransformerF1&#45;&gt;f1</title>
<path fill="none" stroke="black" d="M77.99,-359.7C77.99,-351.98 77.99,-342.71 77.99,-334.11"/>
<polygon fill="black" stroke="black" points="81.49,-334.1 77.99,-324.1 74.49,-334.1 81.49,-334.1"/>
</g>
<!-- TransformerG1 -->
<g id="node7" class="node">
<title>TransformerG1</title>
<ellipse fill="none" stroke="black" cx="77.99" cy="-234" rx="77.99" ry="18"/>
<text text-anchor="middle" x="77.99" y="-230.3" font-family="Times-Roman" font-size="14.00">TransformerG1</text>
</g>
<!-- g1 -->
<g id="node38" class="node DataObject">
<title>g1</title>
<ellipse fill="none" stroke="black" cx="77.99" cy="-162" rx="27" ry="18"/>
<text text-anchor="middle" x="77.99" y="-158.3" font-family="Times-Roman" font-size="14.00">g1</text>
</g>
<!-- TransformerG1&#45;&gt;g1 -->
<g id="edge7" class="edge">
<title>TransformerG1&#45;&gt;g1</title>
<path fill="none" stroke="black" d="M77.99,-215.7C77.99,-207.98 77.99,-198.71 77.99,-190.11"/>
<polygon fill="black" stroke="black" points="81.49,-190.1 77.99,-180.1 74.49,-190.1 81.49,-190.1"/>
</g>
<!-- TransformerH1 -->
<g id="node8" class="node">
<title>TransformerH1</title>
<ellipse fill="none" stroke="black" cx="77.99" cy="-90" rx="77.99" ry="18"/>
<text text-anchor="middle" x="77.99" y="-86.3" font-family="Times-Roman" font-size="14.00">TransformerH1</text>
</g>
<!-- h1 -->
<g id="node40" class="node DataObject">
<title>h1</title>
<ellipse fill="none" stroke="black" cx="77.99" cy="-18" rx="27" ry="18"/>
<text text-anchor="middle" x="77.99" y="-14.3" font-family="Times-Roman" font-size="14.00">h1</text>
</g>
<!-- TransformerH1&#45;&gt;h1 -->
<g id="edge8" class="edge">
<title>TransformerH1&#45;&gt;h1</title>
<path fill="none" stroke="black" d="M77.99,-71.7C77.99,-63.98 77.99,-54.71 77.99,-46.11"/>
<polygon fill="black" stroke="black" points="81.49,-46.1 77.99,-36.1 74.49,-46.1 81.49,-46.1"/>
</g>
<!-- TransformerC2 -->
<g id="node9" class="node">
<title>TransformerC2</title>
<ellipse fill="none" stroke="black" cx="251.99" cy="-810" rx="77.19" ry="18"/>
<text text-anchor="middle" x="251.99" y="-806.3" font-family="Times-Roman" font-size="14.00">TransformerC2</text>
</g>
<!-- c2 -->
<g id="node24" class="node DataObject">
<title>c2</title>
<ellipse fill="none" stroke="black" cx="251.99" cy="-738" rx="27" ry="18"/>
<text text-anchor="middle" x="251.99" y="-734.3" font-family="Times-Roman" font-size="14.00">c2</text>
</g>
<!-- TransformerC2&#45;&gt;c2 -->
<g id="edge9" class="edge">
<title>TransformerC2&#45;&gt;c2</title>
<path fill="none" stroke="black" d="M251.99,-791.7C251.99,-783.98 251.99,-774.71 251.99,-766.11"/>
<polygon fill="black" stroke="black" points="255.49,-766.1 251.99,-756.1 248.49,-766.1 255.49,-766.1"/>
</g>
<!-- TransformerD2 -->
<g id="node10" class="node">
<title>TransformerD2</title>
<ellipse fill="none" stroke="black" cx="251.99" cy="-666" rx="77.99" ry="18"/>
<text text-anchor="middle" x="251.99" y="-662.3" font-family="Times-Roman" font-size="14.00">TransformerD2</text>
</g>
<!-- d2 -->
<g id="node28" class="node DataObject">
<title>d2</title>
<ellipse fill="none" stroke="black" cx="251.99" cy="-594" rx="27" ry="18"/>
<text text-anchor="middle" x="251.99" y="-590.3" font-family="Times-Roman" font-size="14.00">d2</text>
</g>
<!-- TransformerD2&#45;&gt;d2 -->
<g id="edge10" class="edge">
<title>TransformerD2&#45;&gt;d2</title>
<path fill="none" stroke="black" d="M251.99,-647.7C251.99,-639.98 251.99,-630.71 251.99,-622.11"/>
<polygon fill="black" stroke="black" points="255.49,-622.1 251.99,-612.1 248.49,-622.1 255.49,-622.1"/>
</g>
<!-- TransformerE2 -->
<g id="node11" class="node">
<title>TransformerE2</title>
<ellipse fill="none" stroke="black" cx="251.99" cy="-522" rx="77.19" ry="18"/>
<text text-anchor="middle" x="251.99" y="-518.3" font-family="Times-Roman" font-size="14.00">TransformerE2</text>
</g>
<!-- e2 -->
<g id="node32" class="node DataObject">
<title>e2</title>
<ellipse fill="none" stroke="black" cx="251.99" cy="-450" rx="27" ry="18"/>
<text text-anchor="middle" x="251.99" y="-446.3" font-family="Times-Roman" font-size="14.00">e2</text>
</g>
<!-- TransformerE2&#45;&gt;e2 -->
<g id="edge11" class="edge">
<title>TransformerE2&#45;&gt;e2</title>
<path fill="none" stroke="black" d="M251.99,-503.7C251.99,-495.98 251.99,-486.71 251.99,-478.11"/>
<polygon fill="black" stroke="black" points="255.49,-478.1 251.99,-468.1 248.49,-478.1 255.49,-478.1"/>
</g>
<!-- TransformerF2 -->
<g id="node12" class="node">
<title>TransformerF2</title>
<ellipse fill="none" stroke="black" cx="251.99" cy="-378" rx="76.89" ry="18"/>
<text text-anchor="middle" x="251.99" y="-374.3" font-family="Times-Roman" font-size="14.00">TransformerF2</text>
</g>
<!-- f2 -->
<g id="node36" class="node DataObject">
<title>f2</title>
<ellipse fill="none" stroke="black" cx="251.99" cy="-306" rx="27" ry="18"/>
<text text-anchor="middle" x="251.99" y="-302.3" font-family="Times-Roman" font-size="14.00">f2</text>
</g>
<!-- TransformerF2&#45;&gt;f2 -->
<g id="edge12" class="edge">
<title>TransformerF2&#45;&gt;f2</title>
<path fill="none" stroke="black" d="M251.99,-359.7C251.99,-351.98 251.99,-342.71 251.99,-334.11"/>
<polygon fill="black" stroke="black" points="255.49,-334.1 251.99,-324.1 248.49,-334.1 255.49,-334.1"/>
</g>
<!-- TransformerG2 -->
<g id="node13" class="node">
<title>TransformerG2</title>
<ellipse fill="none" stroke="black" cx="251.99" cy="-234" rx="77.99" ry="18"/>
<text text-anchor="middle" x="251.99" y="-230.3" font-family="Times-Roman" font-size="14.00">TransformerG2</text>
</g>
<!-- g2 -->
<g id="node39" class="node DataObject">
<title>g2</title>
<ellipse fill="none" stroke="black" cx="251.99" cy="-162" rx="27" ry="18"/>
<text text-anchor="middle" x="251.99" y="-158.3" font-family="Times-Roman" font-size="14.00">g2</text>
</g>
<!-- TransformerG2&#45;&gt;g2 -->
<g id="edge13" class="edge">
<title>TransformerG2&#45;&gt;g2</title>
<path fill="none" stroke="black" d="M251.99,-215.7C251.99,-207.98 251.99,-198.71 251.99,-190.11"/>
<polygon fill="black" stroke="black" points="255.49,-190.1 251.99,-180.1 248.49,-190.1 255.49,-190.1"/>
</g>
<!-- TransformerC3 -->
<g id="node14" class="node">
<title>TransformerC3</title>
<ellipse fill="none" stroke="black" cx="424.99" cy="-810" rx="77.19" ry="18"/>
<text text-anchor="middle" x="424.99" y="-806.3" font-family="Times-Roman" font-size="14.00">TransformerC3</text>
</g>
<!-- c3 -->
<g id="node25" class="node DataObject">
<title>c3</title>
<ellipse fill="none" stroke="black" cx="424.99" cy="-738" rx="27" ry="18"/>
<text text-anchor="middle" x="424.99" y="-734.3" font-family="Times-Roman" font-size="14.00">c3</text>
</g>
<!-- TransformerC3&#45;&gt;c3 -->
<g id="edge14" class="edge">
<title>TransformerC3&#45;&gt;c3</title>
<path fill="none" stroke="black" d="M424.99,-791.7C424.99,-783.98 424.99,-774.71 424.99,-766.11"/>
<polygon fill="black" stroke="black" points="428.49,-766.1 424.99,-756.1 421.49,-766.1 428.49,-766.1"/>
</g>
<!-- TransformerD3 -->
<g id="node15" class="node">
<title>TransformerD3</title>
<ellipse fill="none" stroke="black" cx="425.99" cy="-666" rx="77.99" ry="18"/>
<text text-anchor="middle" x="425.99" y="-662.3" font-family="Times-Roman" font-size="14.00">TransformerD3</text>
</g>
<!-- d3 -->
<g id="node29" class="node DataObject">
<title>d3</title>
<ellipse fill="none" stroke="black" cx="425.99" cy="-594" rx="27" ry="18"/>
<text text-anchor="middle" x="425.99" y="-590.3" font-family="Times-Roman" font-size="14.00">d3</text>
</g>
<!-- TransformerD3&#45;&gt;d3 -->
<g id="edge15" class="edge">
<title>TransformerD3&#45;&gt;d3</title>
<path fill="none" stroke="black" d="M425.99,-647.7C425.99,-639.98 425.99,-630.71 425.99,-622.11"/>
<polygon fill="black" stroke="black" points="429.49,-622.1 425.99,-612.1 422.49,-622.1 429.49,-622.1"/>
</g>
<!-- TransformerE3 -->
<g id="node16" class="node">
<title>TransformerE3</title>
<ellipse fill="none" stroke="black" cx="425.99" cy="-522" rx="77.19" ry="18"/>
<text text-anchor="middle" x="425.99" y="-518.3" font-family="Times-Roman" font-size="14.00">TransformerE3</text>
</g>
<!-- e3 -->
<g id="node33" class="node DataObject">
<title>e3</title>
<ellipse fill="none" stroke="black" cx="425.99" cy="-450" rx="27" ry="18"/>
<text text-anchor="middle" x="425.99" y="-446.3" font-family="Times-Roman" font-size="14.00">e3</text>
</g>
<!-- TransformerE3&#45;&gt;e3 -->
<g id="edge16" class="edge">
<title>TransformerE3&#45;&gt;e3</title>
<path fill="none" stroke="black" d="M425.99,-503.7C425.99,-495.98 425.99,-486.71 425.99,-478.11"/>
<polygon fill="black" stroke="black" points="429.49,-478.1 425.99,-468.1 422.49,-478.1 429.49,-478.1"/>
</g>
<!-- TransformerF3 -->
<g id="node17" class="node">
<title>TransformerF3</title>
<ellipse fill="none" stroke="black" cx="425.99" cy="-378" rx="76.89" ry="18"/>
<text text-anchor="middle" x="425.99" y="-374.3" font-family="Times-Roman" font-size="14.00">TransformerF3</text>
</g>
<!-- f3 -->
<g id="node37" class="node DataObject">
<title>f3</title>
<ellipse fill="none" stroke="black" cx="425.99" cy="-306" rx="27" ry="18"/>
<text text-anchor="middle" x="425.99" y="-302.3" font-family="Times-Roman" font-size="14.00">f3</text>
</g>
<!-- TransformerF3&#45;&gt;f3 -->
<g id="edge17" class="edge">
<title>TransformerF3&#45;&gt;f3</title>
<path fill="none" stroke="black" d="M425.99,-359.7C425.99,-351.98 425.99,-342.71 425.99,-334.11"/>
<polygon fill="black" stroke="black" points="429.49,-334.1 425.99,-324.1 422.49,-334.1 429.49,-334.1"/>
</g>
<!-- TransformerC4 -->
<g id="node18" class="node">
<title>TransformerC4</title>
<ellipse fill="none" stroke="black" cx="598.99" cy="-810" rx="77.19" ry="18"/>
<text text-anchor="middle" x="598.99" y="-806.3" font-family="Times-Roman" font-size="14.00">TransformerC4</text>
</g>
<!-- c4 -->
<g id="node26" class="node DataObject">
<title>c4</title>
<ellipse fill="none" stroke="black" cx="598.99" cy="-738" rx="27" ry="18"/>
<text text-anchor="middle" x="598.99" y="-734.3" font-family="Times-Roman" font-size="14.00">c4</text>
</g>
<!-- TransformerC4&#45;&gt;c4 -->
<g id="edge18" class="edge">
<title>TransformerC4&#45;&gt;c4</title>
<path fill="none" stroke="black" d="M598.99,-791.7C598.99,-783.98 598.99,-774.71 598.99,-766.11"/>
<polygon fill="black" stroke="black" points="602.49,-766.1 598.99,-756.1 595.49,-766.1 602.49,-766.1"/>
</g>
<!-- TransformerD4 -->
<g id="node19" class="node">
<title>TransformerD4</title>
<ellipse fill="none" stroke="black" cx="599.99" cy="-666" rx="77.99" ry="18"/>
<text text-anchor="middle" x="599.99" y="-662.3" font-family="Times-Roman" font-size="14.00">TransformerD4</text>
</g>
<!-- d4 -->
<g id="node30" class="node DataObject">
<title>d4</title>
<ellipse fill="none" stroke="black" cx="599.99" cy="-594" rx="27" ry="18"/>
<text text-anchor="middle" x="599.99" y="-590.3" font-family="Times-Roman" font-size="14.00">d4</text>
</g>
<!-- TransformerD4&#45;&gt;d4 -->
<g id="edge19" class="edge">
<title>TransformerD4&#45;&gt;d4</title>
<path fill="none" stroke="black" d="M599.99,-647.7C599.99,-639.98 599.99,-630.71 599.99,-622.11"/>
<polygon fill="black" stroke="black" points="603.49,-622.1 599.99,-612.1 596.49,-622.1 603.49,-622.1"/>
</g>
<!-- TransformerE4 -->
<g id="node20" class="node">
<title>TransformerE4</title>
<ellipse fill="none" stroke="black" cx="599.99" cy="-522" rx="77.19" ry="18"/>
<text text-anchor="middle" x="599.99" y="-518.3" font-family="Times-Roman" font-size="14.00">TransformerE4</text>
</g>
<!-- e4 -->
<g id="node34" class="node DataObject">
<title>e4</title>
<ellipse fill="none" stroke="black" cx="599.99" cy="-450" rx="27" ry="18"/>
<text text-anchor="middle" x="599.99" y="-446.3" font-family="Times-Roman" font-size="14.00">e4</text>
</g>
<!-- TransformerE4&#45;&gt;e4 -->
<g id="edge20" class="edge">
<title>TransformerE4&#45;&gt;e4</title>
<path fill="none" stroke="black" d="M599.99,-503.7C599.99,-495.98 599.99,-486.71 599.99,-478.11"/>
<polygon fill="black" stroke="black" points="603.49,-478.1 599.99,-468.1 596.49,-478.1 603.49,-478.1"/>
</g>
<!-- a&#45;&gt;TransformerB -->
<g id="edge21" class="edge">
<title>a&#45;&gt;TransformerB</title>
<path fill="none" stroke="black" d="M337.99,-1007.7C337.99,-999.98 337.99,-990.71 337.99,-982.11"/>
<polygon fill="black" stroke="black" points="341.49,-982.1 337.99,-972.1 334.49,-982.1 341.49,-982.1"/>
</g>
<!-- b&#45;&gt;TransformerC1 -->
<g id="edge22" class="edge">
<title>b&#45;&gt;TransformerC1</title>
<path fill="none" stroke="black" d="M313.16,-874.29C272.91,-863.41 192.36,-841.64 137.08,-826.7"/>
<polygon fill="black" stroke="black" points="137.97,-823.32 127.41,-824.08 136.15,-830.07 137.97,-823.32"/>
</g>
<!-- b&#45;&gt;TransformerC2 -->
<g id="edge23" class="edge">
<title>b&#45;&gt;TransformerC2</title>
<path fill="none" stroke="black" d="M321.41,-867.5C309.77,-858.03 293.91,-845.12 280.29,-834.03"/>
<polygon fill="black" stroke="black" points="282.12,-831.01 272.16,-827.41 277.7,-836.44 282.12,-831.01"/>
</g>
<!-- b&#45;&gt;TransformerC3 -->
<g id="edge24" class="edge">
<title>b&#45;&gt;TransformerC3</title>
<path fill="none" stroke="black" d="M354.77,-867.5C366.66,-857.94 382.89,-844.88 396.76,-833.72"/>
<polygon fill="black" stroke="black" points="399,-836.41 404.6,-827.41 394.61,-830.95 399,-836.41"/>
</g>
<!-- b&#45;&gt;TransformerC4 -->
<g id="edge25" class="edge">
<title>b&#45;&gt;TransformerC4</title>
<path fill="none" stroke="black" d="M362.55,-874.41C402.89,-863.59 484.29,-841.76 540.21,-826.76"/>
<polygon fill="black" stroke="black" points="541.24,-830.11 550,-824.14 539.43,-823.35 541.24,-830.11"/>
</g>
<!-- c1&#45;&gt;TransformerD1 -->
<g id="edge26" class="edge">
<title>c1&#45;&gt;TransformerD1</title>
<path fill="none" stroke="black" d="M78.75,-719.7C78.64,-711.98 78.5,-702.71 78.38,-694.11"/>
<polygon fill="black" stroke="black" points="81.88,-694.05 78.24,-684.1 74.88,-694.15 81.88,-694.05"/>
</g>
<!-- c2&#45;&gt;TransformerD2 -->
<g id="edge27" class="edge">
<title>c2&#45;&gt;TransformerD2</title>
<path fill="none" stroke="black" d="M251.99,-719.7C251.99,-711.98 251.99,-702.71 251.99,-694.11"/>
<polygon fill="black" stroke="black" points="255.49,-694.1 251.99,-684.1 248.49,-694.1 255.49,-694.1"/>
</g>
<!-- c3&#45;&gt;TransformerD3 -->
<g id="edge28" class="edge">
<title>c3&#45;&gt;TransformerD3</title>
<path fill="none" stroke="black" d="M425.24,-719.7C425.35,-711.98 425.48,-702.71 425.61,-694.11"/>
<polygon fill="black" stroke="black" points="429.11,-694.15 425.75,-684.1 422.11,-694.05 429.11,-694.15"/>
</g>
<!-- c4&#45;&gt;TransformerD4 -->
<g id="edge29" class="edge">
<title>c4&#45;&gt;TransformerD4</title>
<path fill="none" stroke="black" d="M599.24,-719.7C599.35,-711.98 599.48,-702.71 599.61,-694.11"/>
<polygon fill="black" stroke="black" points="603.11,-694.15 599.75,-684.1 596.11,-694.05 603.11,-694.15"/>
</g>
<!-- d1&#45;&gt;TransformerE1 -->
<g id="edge30" class="edge">
<title>d1&#45;&gt;TransformerE1</title>
<path fill="none" stroke="black" d="M77.99,-575.7C77.99,-567.98 77.99,-558.71 77.99,-550.11"/>
<polygon fill="black" stroke="black" points="81.49,-550.1 77.99,-540.1 74.49,-550.1 81.49,-550.1"/>
</g>
<!-- d2&#45;&gt;TransformerE2 -->
<g id="edge31" class="edge">
<title>d2&#45;&gt;TransformerE2</title>
<path fill="none" stroke="black" d="M251.99,-575.7C251.99,-567.98 251.99,-558.71 251.99,-550.11"/>
<polygon fill="black" stroke="black" points="255.49,-550.1 251.99,-540.1 248.49,-550.1 255.49,-550.1"/>
</g>
<!-- d3&#45;&gt;TransformerE3 -->
<g id="edge32" class="edge">
<title>d3&#45;&gt;TransformerE3</title>
<path fill="none" stroke="black" d="M425.99,-575.7C425.99,-567.98 425.99,-558.71 425.99,-550.11"/>
<polygon fill="black" stroke="black" points="429.49,-550.1 425.99,-540.1 422.49,-550.1 429.49,-550.1"/>
</g>
<!-- d4&#45;&gt;TransformerE4 -->
<g id="edge33" class="edge">
<title>d4&#45;&gt;TransformerE4</title>
<path fill="none" stroke="black" d="M599.99,-575.7C599.99,-567.98 599.99,-558.71 599.99,-550.11"/>
<polygon fill="black" stroke="black" points="603.49,-550.1 599.99,-540.1 596.49,-550.1 603.49,-550.1"/>
</g>
<!-- e1&#45;&gt;TransformerF1 -->
<g id="edge34" class="edge">
<title>e1&#45;&gt;TransformerF1</title>
<path fill="none" stroke="black" d="M77.99,-431.7C77.99,-423.98 77.99,-414.71 77.99,-406.11"/>
<polygon fill="black" stroke="black" points="81.49,-406.1 77.99,-396.1 74.49,-406.1 81.49,-406.1"/>
</g>
<!-- e2&#45;&gt;TransformerF2 -->
<g id="edge35" class="edge">
<title>e2&#45;&gt;TransformerF2</title>
<path fill="none" stroke="black" d="M251.99,-431.7C251.99,-423.98 251.99,-414.71 251.99,-406.11"/>
<polygon fill="black" stroke="black" points="255.49,-406.1 251.99,-396.1 248.49,-406.1 255.49,-406.1"/>
</g>
<!-- e3&#45;&gt;TransformerF3 -->
<g id="edge36" class="edge">
<title>e3&#45;&gt;TransformerF3</title>
<path fill="none" stroke="black" d="M425.99,-431.7C425.99,-423.98 425.99,-414.71 425.99,-406.11"/>
<polygon fill="black" stroke="black" points="429.49,-406.1 425.99,-396.1 422.49,-406.1 429.49,-406.1"/>
</g>
<!-- f1&#45;&gt;TransformerG1 -->
<g id="edge37" class="edge">
<title>f1&#45;&gt;TransformerG1</title>
<path fill="none" stroke="black" d="M77.99,-287.7C77.99,-279.98 77.99,-270.71 77.99,-262.11"/>
<polygon fill="black" stroke="black" points="81.49,-262.1 77.99,-252.1 74.49,-262.1 81.49,-262.1"/>
</g>
<!-- f2&#45;&gt;TransformerG2 -->
<g id="edge38" class="edge">
<title>f2&#45;&gt;TransformerG2</title>
<path fill="none" stroke="black" d="M251.99,-287.7C251.99,-279.98 251.99,-270.71 251.99,-262.11"/>
<polygon fill="black" stroke="black" points="255.49,-262.1 251.99,-252.1 248.49,-262.1 255.49,-262.1"/>
</g>
<!-- g1&#45;&gt;TransformerH1 -->
<g id="edge39" class="edge">
<title>g1&#45;&gt;TransformerH1</title>
<path fill="none" stroke="black" d="M77.99,-143.7C77.99,-135.98 77.99,-126.71 77.99,-118.11"/>
<polygon fill="black" stroke="black" points="81.49,-118.1 77.99,-108.1 74.49,-118.1 81.49,-118.1"/>
</g>
</g>
</svg>
