<?xml version="1.0" encoding="UTF-8" standalone="no"?>
<!DOCTYPE svg PUBLIC "-//W3C//DTD SVG 1.1//EN"
 "http://www.w3.org/Graphics/SVG/1.1/DTD/svg11.dtd">
<!-- Generated by graphviz version 2.44.0 (0)
 -->
<!-- Pages: 1 -->
<svg width="846pt" height="116pt"
 viewBox="0.00 0.00 845.50 116.00" xmlns="http://www.w3.org/2000/svg" xmlns:xlink="http://www.w3.org/1999/xlink">
<g id="graph0" class="graph" transform="scale(1 1) rotate(0) translate(4 112)">
<polygon fill="white" stroke="transparent" points="-4,4 -4,-112 841.5,-112 841.5,4 -4,4"/>
<!-- RootDecisionHub -->
<g id="node1" class="node">
<title>RootDecisionHub</title>
<polygon fill="none" stroke="black" points="414,-108 290.67,-90 414,-72 537.33,-90 414,-108"/>
<text text-anchor="middle" x="414" y="-86.3" font-family="Times-Roman" font-size="14.00">RootDecisionHub</text>
</g>
<!-- ProducerA -->
<g id="node2" class="node">
<title>ProducerA</title>
<polygon fill="none" stroke="black" points="88,-36 0,-36 0,0 88,0 88,-36"/>
<text text-anchor="middle" x="44" y="-14.3" font-family="Times-Roman" font-size="14.00">ProducerA</text>
</g>
<!-- RootDecisionHub&#45;&gt;ProducerA -->
<g id="edge1" class="edge">
<title>RootDecisionHub&#45;&gt;ProducerA</title>
<path fill="none" stroke="black" d="M350.9,-81.19C288.74,-72.88 190.99,-58.17 97.97,-36.05"/>
<polygon fill="black" stroke="black" points="98.65,-32.62 88.11,-33.68 97.01,-39.42 98.65,-32.62"/>
</g>
<!-- ProducerBC -->
<g id="node3" class="node">
<title>ProducerBC</title>
<polygon fill="none" stroke="black" points="203.5,-36 106.5,-36 106.5,0 203.5,0 203.5,-36"/>
<text text-anchor="middle" x="155" y="-14.3" font-family="Times-Roman" font-size="14.00">ProducerBC</text>
</g>
<!-- RootDecisionHub&#45;&gt;ProducerBC -->
<g id="edge2" class="edge">
<title>RootDecisionHub&#45;&gt;ProducerBC</title>
<path fill="none" stroke="black" d="M371.56,-78.17C332.89,-68.22 273.95,-52.85 213.43,-36.08"/>
<polygon fill="black" stroke="black" points="214.28,-32.69 203.71,-33.38 212.4,-39.43 214.28,-32.69"/>
</g>
<!-- TransformerAB -->
<g id="node4" class="node">
<title>TransformerAB</title>
<polygon fill="none" stroke="black" points="342,-36 222,-36 222,0 342,0 342,-36"/>
<text text-anchor="middle" x="282" y="-14.3" font-family="Times-Roman" font-size="14.00">TransformerAB</text>
</g>
<!-- RootDecisionHub&#45;&gt;TransformerAB -->
<g id="edge3" class="edge">
<title>RootDecisionHub&#45;&gt;TransformerAB</title>
<path fill="none" stroke="black" d="M388.86,-75.67C370.27,-65.81 344.56,-52.17 323.01,-40.75"/>
<polygon fill="black" stroke="black" points="324.54,-37.6 314.06,-36 321.26,-43.78 324.54,-37.6"/>
</g>
<!-- ConsumerBC -->
<g id="node5" class="node">
<title>ConsumerBC</title>
<polygon fill="none" stroke="black" points="467.5,-36 360.5,-36 360.5,0 467.5,0 467.5,-36"/>
<text text-anchor="middle" x="414" y="-14.3" font-family="Times-Roman" font-size="14.00">ConsumerBC</text>
</g>
<!-- RootDecisionHub&#45;&gt;ConsumerBC -->
<g id="edge4" class="edge">
<title>RootDecisionHub&#45;&gt;ConsumerBC</title>
<path fill="none" stroke="black" d="M414,-71.7C414,-63.98 414,-54.71 414,-46.11"/>
<polygon fill="black" stroke="black" points="417.5,-46.1 414,-36.1 410.5,-46.1 417.5,-46.1"/>
</g>
<!-- TransformerC -->
<g id="node6" class="node">
<title>TransformerC</title>
<polygon fill="none" stroke="black" points="596,-36 486,-36 486,0 596,0 596,-36"/>
<text text-anchor="middle" x="541" y="-14.3" font-family="Times-Roman" font-size="14.00">TransformerC</text>
</g>
<!-- RootDecisionHub&#45;&gt;TransformerC -->
<g id="edge5" class="edge">
<title>RootDecisionHub&#45;&gt;TransformerC</title>
<path fill="none" stroke="black" d="M438.49,-75.5C456.19,-65.74 480.51,-52.34 501.01,-41.04"/>
<polygon fill="black" stroke="black" points="502.76,-44.07 509.83,-36.18 499.38,-37.94 502.76,-44.07"/>
</g>
<!-- ConsumerCD -->
<g id="node7" class="node">
<title>ConsumerCD</title>
<polygon fill="none" stroke="black" points="722,-36 614,-36 614,0 722,0 722,-36"/>
<text text-anchor="middle" x="668" y="-14.3" font-family="Times-Roman" font-size="14.00">ConsumerCD</text>
</g>
<!-- RootDecisionHub&#45;&gt;ConsumerCD -->
<g id="edge6" class="edge">
<title>RootDecisionHub&#45;&gt;ConsumerCD</title>
<path fill="none" stroke="black" d="M454.53,-77.83C494.8,-66.73 557.17,-49.54 604.11,-36.61"/>
<polygon fill="black" stroke="black" points="605.17,-39.95 613.88,-33.91 603.31,-33.2 605.17,-39.95"/>
</g>
<!-- ConsumerE -->
<g id="node8" class="node">
<title>ConsumerE</title>
<polygon fill="none" stroke="black" points="837.5,-36 740.5,-36 740.5,0 837.5,0 837.5,-36"/>
<text text-anchor="middle" x="789" y="-14.3" font-family="Times-Roman" font-size="14.00">ConsumerE</text>
</g>
<!-- RootDecisionHub&#45;&gt;ConsumerE -->
<g id="edge7" class="edge">
<title>RootDecisionHub&#45;&gt;ConsumerE</title>
<path fill="none" stroke="black" d="M475.49,-80.94C537.48,-72.32 636.01,-57.25 730.38,-35.99"/>
<polygon fill="black" stroke="black" points="731.4,-39.34 740.38,-33.71 729.85,-32.52 731.4,-39.34"/>
</g>
</g>
</svg>
