<?xml version="1.0" encoding="UTF-8" standalone="no"?>
<!DOCTYPE svg PUBLIC "-//W3C//DTD SVG 1.1//EN"
 "http://www.w3.org/Graphics/SVG/1.1/DTD/svg11.dtd">
<!-- Generated by graphviz version 2.44.0 (0)
 -->
<!-- Pages: 1 -->
<svg width="517pt" height="332pt"
 viewBox="0.00 0.00 517.25 332.00" xmlns="http://www.w3.org/2000/svg" xmlns:xlink="http://www.w3.org/1999/xlink">
<g id="graph0" class="graph" transform="scale(1 1) rotate(0) translate(4 328)">
<polygon fill="white" stroke="transparent" points="-4,4 -4,-328 513.25,-328 513.25,4 -4,4"/>
<!-- ProducerA -->
<g id="node1" class="node">
<title>ProducerA</title>
<ellipse fill="none" stroke="black" cx="99.04" cy="-306" rx="57.39" ry="18"/>
<text text-anchor="middle" x="99.04" y="-302.3" font-family="Times-Roman" font-size="14.00">ProducerA</text>
</g>
<!-- a -->
<g id="node8" class="node DataObject">
<title>a</title>
<ellipse fill="none" stroke="black" cx="99.04" cy="-234" rx="27" ry="18"/>
<text text-anchor="middle" x="99.04" y="-230.3" font-family="Times-Roman" font-size="14.00">a</text>
</g>
<!-- ProducerA&#45;&gt;a -->
<g id="edge1" class="edge">
<title>ProducerA&#45;&gt;a</title>
<path fill="none" stroke="black" d="M99.04,-287.7C99.04,-279.98 99.04,-270.71 99.04,-262.11"/>
<polygon fill="black" stroke="black" points="102.54,-262.1 99.04,-252.1 95.54,-262.1 102.54,-262.1"/>
</g>
<!-- ProducerBC -->
<g id="node2" class="node">
<title>ProducerBC</title>
<ellipse fill="none" stroke="black" cx="322.04" cy="-306" rx="63.09" ry="18"/>
<text text-anchor="middle" x="322.04" y="-302.3" font-family="Times-Roman" font-size="14.00">ProducerBC</text>
</g>
<!-- b -->
<g id="node9" class="node DataObject">
<title>b</title>
<ellipse fill="none" stroke="black" cx="265.04" cy="-234" rx="27" ry="18"/>
<text text-anchor="middle" x="265.04" y="-230.3" font-family="Times-Roman" font-size="14.00">b</text>
</g>
<!-- ProducerBC&#45;&gt;b -->
<g id="edge2" class="edge">
<title>ProducerBC&#45;&gt;b</title>
<path fill="none" stroke="black" d="M308.54,-288.41C301.23,-279.44 292.09,-268.21 284.08,-258.37"/>
<polygon fill="black" stroke="black" points="286.7,-256.06 277.67,-250.51 281.27,-260.48 286.7,-256.06"/>
</g>
<!-- c -->
<g id="node10" class="node DataObject">
<title>c</title>
<ellipse fill="none" stroke="black" cx="380.04" cy="-234" rx="27" ry="18"/>
<text text-anchor="middle" x="380.04" y="-230.3" font-family="Times-Roman" font-size="14.00">c</text>
</g>
<!-- ProducerBC&#45;&gt;c -->
<g id="edge3" class="edge">
<title>ProducerBC&#45;&gt;c</title>
<path fill="none" stroke="black" d="M335.79,-288.41C343.33,-279.31 352.79,-267.9 361.02,-257.96"/>
<polygon fill="black" stroke="black" points="363.9,-259.97 367.58,-250.04 358.51,-255.51 363.9,-259.97"/>
</g>
<!-- TransformerAB -->
<g id="node3" class="node">
<title>TransformerAB</title>
<ellipse fill="none" stroke="black" cx="99.04" cy="-162" rx="77.99" ry="18"/>
<text text-anchor="middle" x="99.04" y="-158.3" font-family="Times-Roman" font-size="14.00">TransformerAB</text>
</g>
<!-- f -->
<g id="node11" class="node DataObject">
<title>f</title>
<ellipse fill="none" stroke="black" cx="135.04" cy="-90" rx="27" ry="18"/>
<text text-anchor="middle" x="135.04" y="-86.3" font-family="Times-Roman" font-size="14.00">f</text>
</g>
<!-- TransformerAB&#45;&gt;f -->
<g id="edge4" class="edge">
<title>TransformerAB&#45;&gt;f</title>
<path fill="none" stroke="black" d="M107.76,-144.05C112.02,-135.77 117.24,-125.62 121.97,-116.42"/>
<polygon fill="black" stroke="black" points="125.2,-117.8 126.66,-107.31 118.97,-114.6 125.2,-117.8"/>
</g>
<!-- d -->
<g id="node12" class="node DataObject">
<title>d</title>
<ellipse fill="none" stroke="black" cx="281.04" cy="-90" rx="27" ry="18"/>
<text text-anchor="middle" x="281.04" y="-86.3" font-family="Times-Roman" font-size="14.00">d</text>
</g>
<!-- TransformerAB&#45;&gt;d -->
<g id="edge5" class="edge">
<title>TransformerAB&#45;&gt;d</title>
<path fill="none" stroke="black" d="M137.64,-146.15C170.69,-133.44 217.73,-115.35 248.8,-103.4"/>
<polygon fill="black" stroke="black" points="250.21,-106.61 258.29,-99.75 247.7,-100.08 250.21,-106.61"/>
</g>
<!-- e -->
<g id="node13" class="node DataObject">
<title>e</title>
<ellipse fill="none" stroke="black" cx="63.04" cy="-90" rx="27" ry="18"/>
<text text-anchor="middle" x="63.04" y="-86.3" font-family="Times-Roman" font-size="14.00">e</text>
</g>
<!-- TransformerAB&#45;&gt;e -->
<g id="edge6" class="edge">
<title>TransformerAB&#45;&gt;e</title>
<path fill="none" stroke="black" d="M90.33,-144.05C86.07,-135.77 80.85,-125.62 76.12,-116.42"/>
<polygon fill="black" stroke="black" points="79.12,-114.6 71.43,-107.31 72.89,-117.8 79.12,-114.6"/>
</g>
<!-- ConsumerBC -->
<g id="node4" class="node">
<title>ConsumerBC</title>
<ellipse fill="none" stroke="black" cx="265.04" cy="-162" rx="69.59" ry="18"/>
<text text-anchor="middle" x="265.04" y="-158.3" font-family="Times-Roman" font-size="14.00">ConsumerBC</text>
</g>
<!-- TransformerC -->
<g id="node5" class="node">
<title>TransformerC</title>
<ellipse fill="none" stroke="black" cx="424.04" cy="-162" rx="71.49" ry="18"/>
<text text-anchor="middle" x="424.04" y="-158.3" font-family="Times-Roman" font-size="14.00">TransformerC</text>
</g>
<!-- g -->
<g id="node14" class="node DataObject">
<title>g</title>
<ellipse fill="none" stroke="black" cx="424.04" cy="-90" rx="27" ry="18"/>
<text text-anchor="middle" x="424.04" y="-86.3" font-family="Times-Roman" font-size="14.00">g</text>
</g>
<!-- TransformerC&#45;&gt;g -->
<g id="edge7" class="edge">
<title>TransformerC&#45;&gt;g</title>
<path fill="none" stroke="black" d="M424.04,-143.7C424.04,-135.98 424.04,-126.71 424.04,-118.11"/>
<polygon fill="black" stroke="black" points="427.54,-118.1 424.04,-108.1 420.54,-118.1 427.54,-118.1"/>
</g>
<!-- ConsumerCD -->
<g id="node6" class="node">
<title>ConsumerCD</title>
<ellipse fill="none" stroke="black" cx="284.04" cy="-18" rx="70.39" ry="18"/>
<text text-anchor="middle" x="284.04" y="-14.3" font-family="Times-Roman" font-size="14.00">ConsumerCD</text>
</g>
<!-- ConsumerE -->
<g id="node7" class="node">
<title>ConsumerE</title>
<ellipse fill="none" stroke="black" cx="63.04" cy="-18" rx="63.09" ry="18"/>
<text text-anchor="middle" x="63.04" y="-14.3" font-family="Times-Roman" font-size="14.00">ConsumerE</text>
</g>
<!-- a&#45;&gt;TransformerAB -->
<g id="edge8" class="edge">
<title>a&#45;&gt;TransformerAB</title>
<path fill="none" stroke="black" d="M99.04,-215.7C99.04,-207.98 99.04,-198.71 99.04,-190.11"/>
<polygon fill="black" stroke="black" points="102.54,-190.1 99.04,-180.1 95.54,-190.1 102.54,-190.1"/>
</g>
<!-- b&#45;&gt;TransformerAB -->
<g id="edge10" class="edge">
<title>b&#45;&gt;TransformerAB</title>
<path fill="none" stroke="black" d="M242.66,-223.56C217.55,-212.97 176.19,-195.53 144.28,-182.08"/>
<polygon fill="black" stroke="black" points="145.29,-178.7 134.71,-178.04 142.57,-185.15 145.29,-178.7"/>
</g>
<!-- b&#45;&gt;ConsumerBC -->
<g id="edge9" class="edge">
<title>b&#45;&gt;ConsumerBC</title>
<path fill="none" stroke="black" d="M265.04,-215.7C265.04,-207.98 265.04,-198.71 265.04,-190.11"/>
<polygon fill="black" stroke="black" points="268.54,-190.1 265.04,-180.1 261.54,-190.1 268.54,-190.1"/>
</g>
<!-- c&#45;&gt;ConsumerBC -->
<g id="edge11" class="edge">
<title>c&#45;&gt;ConsumerBC</title>
<path fill="none" stroke="black" d="M360.8,-221.28C344.2,-211.18 319.82,-196.34 299.81,-184.16"/>
<polygon fill="black" stroke="black" points="301.62,-181.17 291.26,-178.96 297.98,-187.15 301.62,-181.17"/>
</g>
<!-- c&#45;&gt;TransformerC -->
<g id="edge13" class="edge">
<title>c&#45;&gt;TransformerC</title>
<path fill="none" stroke="black" d="M390.03,-217.12C395.26,-208.8 401.79,-198.41 407.72,-188.96"/>
<polygon fill="black" stroke="black" points="410.82,-190.62 413.18,-180.29 404.89,-186.9 410.82,-190.62"/>
</g>
<!-- c&#45;&gt;ConsumerCD -->
<g id="edge12" class="edge">
<title>c&#45;&gt;ConsumerCD</title>
<path fill="none" stroke="black" d="M406.51,-230.11C436.02,-225.32 482.44,-212.73 504.04,-180 512.86,-166.65 508.38,-159.4 504.04,-144 493.89,-107.9 489.73,-94.92 460.04,-72 430.16,-48.93 390.3,-35.86 356.07,-28.48"/>
<polygon fill="black" stroke="black" points="356.61,-25.02 346.12,-26.46 355.22,-31.88 356.61,-25.02"/>
</g>
<!-- d&#45;&gt;ConsumerCD -->
<g id="edge14" class="edge">
<title>d&#45;&gt;ConsumerCD</title>
<path fill="none" stroke="black" d="M281.79,-71.7C282.12,-63.98 282.51,-54.71 282.88,-46.11"/>
<polygon fill="black" stroke="black" points="286.38,-46.25 283.31,-36.1 279.39,-45.95 286.38,-46.25"/>
</g>
<!-- e&#45;&gt;ConsumerE -->
<g id="edge15" class="edge">
<title>e&#45;&gt;ConsumerE</title>
<path fill="none" stroke="black" d="M63.04,-71.7C63.04,-63.98 63.04,-54.71 63.04,-46.11"/>
<polygon fill="black" stroke="black" points="66.54,-46.1 63.04,-36.1 59.54,-46.1 66.54,-46.1"/>
</g>
</g>
</svg>
