<?xml version="1.0" encoding="UTF-8" standalone="no"?>
<!DOCTYPE svg PUBLIC "-//W3C//DTD SVG 1.1//EN"
 "http://www.w3.org/Graphics/SVG/1.1/DTD/svg11.dtd">
<!-- Generated by graphviz version 2.44.0 (0)
 -->
<!-- Pages: 1 -->
<svg width="424pt" height="332pt"
 viewBox="0.00 0.00 423.96 332.00" xmlns="http://www.w3.org/2000/svg" xmlns:xlink="http://www.w3.org/1999/xlink">
<g id="graph0" class="graph" transform="scale(1 1) rotate(0) translate(4 328)">
<polygon fill="white" stroke="transparent" points="-4,4 -4,-328 419.96,-328 419.96,4 -4,4"/>
<!-- ProducerA -->
<g id="node1" class="node">
<title>ProducerA</title>
<polygon fill="none" stroke="black" points="128.5,-324 40.5,-324 40.5,-288 128.5,-288 128.5,-324"/>
<text text-anchor="middle" x="84.5" y="-302.3" font-family="Times-Roman" font-size="14.00">ProducerA</text>
</g>
<!-- a -->
<g id="node8" class="node DataObject">
<title>a</title>
<ellipse fill="none" stroke="black" cx="84.5" cy="-234" rx="27" ry="18"/>
<text text-anchor="middle" x="84.5" y="-230.3" font-family="Times-Roman" font-size="14.00">a</text>
</g>
<!-- ProducerA&#45;&gt;a -->
<g id="edge1" class="edge">
<title>ProducerA&#45;&gt;a</title>
<path fill="none" stroke="black" d="M84.5,-287.7C84.5,-279.98 84.5,-270.71 84.5,-262.11"/>
<polygon fill="black" stroke="black" points="88,-262.1 84.5,-252.1 81,-262.1 88,-262.1"/>
</g>
<!-- ProducerBC -->
<g id="node2" class="node">
<title>ProducerBC</title>
<polygon fill="none" stroke="black" points="301,-324 204,-324 204,-288 301,-288 301,-324"/>
<text text-anchor="middle" x="252.5" y="-302.3" font-family="Times-Roman" font-size="14.00">ProducerBC</text>
</g>
<!-- b -->
<g id="node9" class="node DataObject">
<title>b</title>
<ellipse fill="none" stroke="black" cx="216.5" cy="-234" rx="27" ry="18"/>
<text text-anchor="middle" x="216.5" y="-230.3" font-family="Times-Roman" font-size="14.00">b</text>
</g>
<!-- ProducerBC&#45;&gt;b -->
<g id="edge2" class="edge">
<title>ProducerBC&#45;&gt;b</title>
<path fill="none" stroke="black" d="M243.6,-287.7C239.34,-279.4 234.15,-269.31 229.45,-260.19"/>
<polygon fill="black" stroke="black" points="232.49,-258.44 224.8,-251.14 226.26,-261.64 232.49,-258.44"/>
</g>
<!-- c -->
<g id="node10" class="node DataObject">
<title>c</title>
<ellipse fill="none" stroke="black" cx="315.5" cy="-234" rx="27" ry="18"/>
<text text-anchor="middle" x="315.5" y="-230.3" font-family="Times-Roman" font-size="14.00">c</text>
</g>
<!-- ProducerBC&#45;&gt;c -->
<g id="edge3" class="edge">
<title>ProducerBC&#45;&gt;c</title>
<path fill="none" stroke="black" d="M268.07,-287.7C276.35,-278.5 286.63,-267.08 295.49,-257.23"/>
<polygon fill="black" stroke="black" points="298.15,-259.51 302.24,-249.74 292.94,-254.83 298.15,-259.51"/>
</g>
<!-- TransformerAB -->
<g id="node3" class="node">
<title>TransformerAB</title>
<polygon fill="none" stroke="black" points="144.5,-180 24.5,-180 24.5,-144 144.5,-144 144.5,-180"/>
<text text-anchor="middle" x="84.5" y="-158.3" font-family="Times-Roman" font-size="14.00">TransformerAB</text>
</g>
<!-- f -->
<g id="node11" class="node DataObject">
<title>f</title>
<ellipse fill="none" stroke="black" cx="120.5" cy="-90" rx="27" ry="18"/>
<text text-anchor="middle" x="120.5" y="-86.3" font-family="Times-Roman" font-size="14.00">f</text>
</g>
<!-- TransformerAB&#45;&gt;f -->
<g id="edge4" class="edge">
<title>TransformerAB&#45;&gt;f</title>
<path fill="none" stroke="black" d="M93.4,-143.7C97.66,-135.4 102.85,-125.31 107.55,-116.19"/>
<polygon fill="black" stroke="black" points="110.74,-117.64 112.2,-107.14 104.51,-114.44 110.74,-117.64"/>
</g>
<!-- d -->
<g id="node12" class="node DataObject">
<title>d</title>
<ellipse fill="none" stroke="black" cx="231.5" cy="-90" rx="27" ry="18"/>
<text text-anchor="middle" x="231.5" y="-86.3" font-family="Times-Roman" font-size="14.00">d</text>
</g>
<!-- TransformerAB&#45;&gt;d -->
<g id="edge5" class="edge">
<title>TransformerAB&#45;&gt;d</title>
<path fill="none" stroke="black" d="M120.46,-143.88C145.11,-132.14 177.47,-116.73 200.89,-105.58"/>
<polygon fill="black" stroke="black" points="202.49,-108.69 210.02,-101.23 199.48,-102.37 202.49,-108.69"/>
</g>
<!-- e -->
<g id="node13" class="node DataObject">
<title>e</title>
<ellipse fill="none" stroke="black" cx="48.5" cy="-90" rx="27" ry="18"/>
<text text-anchor="middle" x="48.5" y="-86.3" font-family="Times-Roman" font-size="14.00">e</text>
</g>
<!-- TransformerAB&#45;&gt;e -->
<g id="edge6" class="edge">
<title>TransformerAB&#45;&gt;e</title>
<path fill="none" stroke="black" d="M75.6,-143.7C71.34,-135.4 66.15,-125.31 61.45,-116.19"/>
<polygon fill="black" stroke="black" points="64.49,-114.44 56.8,-107.14 58.26,-117.64 64.49,-114.44"/>
</g>
<!-- ConsumerBC -->
<g id="node4" class="node">
<title>ConsumerBC</title>
<polygon fill="none" stroke="black" points="270,-180 163,-180 163,-144 270,-144 270,-180"/>
<text text-anchor="middle" x="216.5" y="-158.3" font-family="Times-Roman" font-size="14.00">ConsumerBC</text>
</g>
<!-- TransformerC -->
<g id="node5" class="node">
<title>TransformerC</title>
<polygon fill="none" stroke="black" points="398.5,-180 288.5,-180 288.5,-144 398.5,-144 398.5,-180"/>
<text text-anchor="middle" x="343.5" y="-158.3" font-family="Times-Roman" font-size="14.00">TransformerC</text>
</g>
<!-- g -->
<g id="node14" class="node DataObject">
<title>g</title>
<ellipse fill="none" stroke="black" cx="343.5" cy="-90" rx="27" ry="18"/>
<text text-anchor="middle" x="343.5" y="-86.3" font-family="Times-Roman" font-size="14.00">g</text>
</g>
<!-- TransformerC&#45;&gt;g -->
<g id="edge7" class="edge">
<title>TransformerC&#45;&gt;g</title>
<path fill="none" stroke="black" d="M343.5,-143.7C343.5,-135.98 343.5,-126.71 343.5,-118.11"/>
<polygon fill="black" stroke="black" points="347,-118.1 343.5,-108.1 340,-118.1 347,-118.1"/>
</g>
<!-- ConsumerCD -->
<g id="node6" class="node">
<title>ConsumerCD</title>
<polygon fill="none" stroke="black" points="382.5,-36 274.5,-36 274.5,0 382.5,0 382.5,-36"/>
<text text-anchor="middle" x="328.5" y="-14.3" font-family="Times-Roman" font-size="14.00">ConsumerCD</text>
</g>
<!-- ConsumerE -->
<g id="node7" class="node">
<title>ConsumerE</title>
<polygon fill="none" stroke="black" points="97,-36 0,-36 0,0 97,0 97,-36"/>
<text text-anchor="middle" x="48.5" y="-14.3" font-family="Times-Roman" font-size="14.00">ConsumerE</text>
</g>
<!-- a&#45;&gt;TransformerAB -->
<g id="edge8" class="edge">
<title>a&#45;&gt;TransformerAB</title>
<path fill="none" stroke="black" d="M84.5,-215.7C84.5,-207.98 84.5,-198.71 84.5,-190.11"/>
<polygon fill="black" stroke="black" points="88,-190.1 84.5,-180.1 81,-190.1 88,-190.1"/>
</g>
<!-- b&#45;&gt;TransformerAB -->
<g id="edge10" class="edge">
<title>b&#45;&gt;TransformerAB</title>
<path fill="none" stroke="black" d="M195.88,-222.06C177.18,-212.15 149.08,-197.25 125.78,-184.89"/>
<polygon fill="black" stroke="black" points="127.27,-181.72 116.79,-180.12 123.99,-187.9 127.27,-181.72"/>
</g>
<!-- b&#45;&gt;ConsumerBC -->
<g id="edge9" class="edge">
<title>b&#45;&gt;ConsumerBC</title>
<path fill="none" stroke="black" d="M216.5,-215.7C216.5,-207.98 216.5,-198.71 216.5,-190.11"/>
<polygon fill="black" stroke="black" points="220,-190.1 216.5,-180.1 213,-190.1 220,-190.1"/>
</g>
<!-- c&#45;&gt;ConsumerBC -->
<g id="edge11" class="edge">
<title>c&#45;&gt;ConsumerBC</title>
<path fill="none" stroke="black" d="M297.34,-220.16C283.97,-210.7 265.4,-197.58 249.44,-186.29"/>
<polygon fill="black" stroke="black" points="251.07,-183.16 240.88,-180.24 247.03,-188.87 251.07,-183.16"/>
</g>
<!-- c&#45;&gt;TransformerC -->
<g id="edge13" class="edge">
<title>c&#45;&gt;TransformerC</title>
<path fill="none" stroke="black" d="M322.14,-216.41C325.32,-208.45 329.21,-198.72 332.8,-189.76"/>
<polygon fill="black" stroke="black" points="336.06,-191.03 336.52,-180.45 329.56,-188.43 336.06,-191.03"/>
</g>
<!-- c&#45;&gt;ConsumerCD -->
<g id="edge12" class="edge">
<title>c&#45;&gt;ConsumerCD</title>
<path fill="none" stroke="black" d="M340.06,-226.45C362.1,-219.13 393.11,-204.9 407.5,-180 434.69,-132.96 388.1,-75.24 355.68,-43.26"/>
<polygon fill="black" stroke="black" points="357.84,-40.48 348.21,-36.08 353,-45.53 357.84,-40.48"/>
</g>
<!-- d&#45;&gt;ConsumerCD -->
<g id="edge14" class="edge">
<title>d&#45;&gt;ConsumerCD</title>
<path fill="none" stroke="black" d="M249.29,-76.16C262.4,-66.7 280.59,-53.58 296.23,-42.29"/>
<polygon fill="black" stroke="black" points="298.55,-44.93 304.61,-36.24 294.45,-39.26 298.55,-44.93"/>
</g>
<!-- e&#45;&gt;ConsumerE -->
<g id="edge15" class="edge">
<title>e&#45;&gt;ConsumerE</title>
<path fill="none" stroke="black" d="M48.5,-71.7C48.5,-63.98 48.5,-54.71 48.5,-46.11"/>
<polygon fill="black" stroke="black" points="52,-46.1 48.5,-36.1 45,-46.1 52,-46.1"/>
</g>
</g>
</svg>
