<?xml version="1.0" encoding="UTF-8" standalone="no"?>
<!DOCTYPE svg PUBLIC "-//W3C//DTD SVG 1.1//EN"
 "http://www.w3.org/Graphics/SVG/1.1/DTD/svg11.dtd">
<!-- Generated by graphviz version 2.44.0 (0)
 -->
<!-- Pages: 1 -->
<svg width="1061pt" height="116pt"
 viewBox="0.00 0.00 1061.24 116.00" xmlns="http://www.w3.org/2000/svg" xmlns:xlink="http://www.w3.org/1999/xlink">
<g id="graph0" class="graph" transform="scale(1 1) rotate(0) translate(4 112)">
<polygon fill="white" stroke="transparent" points="-4,4 -4,-112 1057.24,-112 1057.24,4 -4,4"/>
<!-- RootDecisionHub -->
<g id="node1" class="node">
<title>RootDecisionHub</title>
<ellipse fill="none" stroke="black" cx="520.19" cy="-90" rx="87.18" ry="18"/>
<text text-anchor="middle" x="520.19" y="-86.3" font-family="Times-Roman" font-size="14.00">RootDecisionHub</text>
</g>
<!-- ProducerA -->
<g id="node2" class="node">
<title>ProducerA</title>
<ellipse fill="none" stroke="black" cx="57.19" cy="-18" rx="57.39" ry="18"/>
<text text-anchor="middle" x="57.19" y="-14.3" font-family="Times-Roman" font-size="14.00">ProducerA</text>
</g>
<!-- RootDecisionHub&#45;&gt;ProducerA -->
<g id="edge1" class="edge">
<title>RootDecisionHub&#45;&gt;ProducerA</title>
<path fill="none" stroke="black" d="M443.28,-81.48C362.97,-72.99 233.59,-57.51 123.19,-36 118.44,-35.07 113.51,-34.01 108.59,-32.87"/>
<polygon fill="black" stroke="black" points="109.11,-29.4 98.57,-30.46 107.47,-36.2 109.11,-29.4"/>
</g>
<!-- ProducerBC -->
<g id="node3" class="node">
<title>ProducerBC</title>
<ellipse fill="none" stroke="black" cx="195.19" cy="-18" rx="63.09" ry="18"/>
<text text-anchor="middle" x="195.19" y="-14.3" font-family="Times-Roman" font-size="14.00">ProducerBC</text>
</g>
<!-- RootDecisionHub&#45;&gt;ProducerBC -->
<g id="edge2" class="edge">
<title>RootDecisionHub&#45;&gt;ProducerBC</title>
<path fill="none" stroke="black" d="M460.29,-76.9C408.97,-66.42 333.12,-50.69 267.19,-36 262.23,-34.89 257.08,-33.72 251.91,-32.53"/>
<polygon fill="black" stroke="black" points="252.55,-29.09 242.02,-30.24 250.97,-35.91 252.55,-29.09"/>
</g>
<!-- TransformerAB -->
<g id="node4" class="node">
<title>TransformerAB</title>
<ellipse fill="none" stroke="black" cx="354.19" cy="-18" rx="77.99" ry="18"/>
<text text-anchor="middle" x="354.19" y="-14.3" font-family="Times-Roman" font-size="14.00">TransformerAB</text>
</g>
<!-- RootDecisionHub&#45;&gt;TransformerAB -->
<g id="edge3" class="edge">
<title>RootDecisionHub&#45;&gt;TransformerAB</title>
<path fill="none" stroke="black" d="M483.77,-73.64C458.95,-63.17 425.91,-49.24 399.41,-38.07"/>
<polygon fill="black" stroke="black" points="400.54,-34.75 389.97,-34.09 397.82,-41.2 400.54,-34.75"/>
</g>
<!-- ConsumerBC -->
<g id="node5" class="node">
<title>ConsumerBC</title>
<ellipse fill="none" stroke="black" cx="520.19" cy="-18" rx="69.59" ry="18"/>
<text text-anchor="middle" x="520.19" y="-14.3" font-family="Times-Roman" font-size="14.00">ConsumerBC</text>
</g>
<!-- RootDecisionHub&#45;&gt;ConsumerBC -->
<g id="edge4" class="edge">
<title>RootDecisionHub&#45;&gt;ConsumerBC</title>
<path fill="none" stroke="black" d="M520.19,-71.7C520.19,-63.98 520.19,-54.71 520.19,-46.11"/>
<polygon fill="black" stroke="black" points="523.7,-46.1 520.19,-36.1 516.7,-46.1 523.7,-46.1"/>
</g>
<!-- TransformerC -->
<g id="node6" class="node">
<title>TransformerC</title>
<ellipse fill="none" stroke="black" cx="679.19" cy="-18" rx="71.49" ry="18"/>
<text text-anchor="middle" x="679.19" y="-14.3" font-family="Times-Roman" font-size="14.00">TransformerC</text>
</g>
<!-- RootDecisionHub&#45;&gt;TransformerC -->
<g id="edge5" class="edge">
<title>RootDecisionHub&#45;&gt;TransformerC</title>
<path fill="none" stroke="black" d="M555.48,-73.46C579.25,-63 610.75,-49.13 636.02,-38.01"/>
<polygon fill="black" stroke="black" points="637.63,-41.12 645.37,-33.89 634.81,-34.72 637.63,-41.12"/>
</g>
<!-- ConsumerCD -->
<g id="node7" class="node">
<title>ConsumerCD</title>
<ellipse fill="none" stroke="black" cx="839.19" cy="-18" rx="70.39" ry="18"/>
<text text-anchor="middle" x="839.19" y="-14.3" font-family="Times-Roman" font-size="14.00">ConsumerCD</text>
</g>
<!-- RootDecisionHub&#45;&gt;ConsumerCD -->
<g id="edge6" class="edge">
<title>RootDecisionHub&#45;&gt;ConsumerCD</title>
<path fill="none" stroke="black" d="M577.59,-76.4C634.03,-64.02 719.88,-45.18 777.69,-32.5"/>
<polygon fill="black" stroke="black" points="778.77,-35.84 787.79,-30.28 777.27,-29 778.77,-35.84"/>
</g>
<!-- ConsumerE -->
<g id="node8" class="node">
<title>ConsumerE</title>
<ellipse fill="none" stroke="black" cx="990.19" cy="-18" rx="63.09" ry="18"/>
<text text-anchor="middle" x="990.19" y="-14.3" font-family="Times-Roman" font-size="14.00">ConsumerE</text>
</g>
<!-- RootDecisionHub&#45;&gt;ConsumerE -->
<g id="edge7" class="edge">
<title>RootDecisionHub&#45;&gt;ConsumerE</title>
<path fill="none" stroke="black" d="M596.11,-81.16C676.46,-72.34 806.79,-56.52 918.19,-36 923.56,-35.01 929.13,-33.88 934.69,-32.69"/>
<polygon fill="black" stroke="black" points="935.63,-36.06 944.63,-30.48 934.11,-29.23 935.63,-36.06"/>
</g>
</g>
</svg>
