<?xml version="1.0" encoding="UTF-8" standalone="no"?>
<!DOCTYPE svg PUBLIC "-//W3C//DTD SVG 1.1//EN"
 "http://www.w3.org/Graphics/SVG/1.1/DTD/svg11.dtd">
<!-- Generated by graphviz version 2.44.0 (0)
 -->
<!-- Title: G Pages: 1 -->
<svg width="248pt" height="836pt"
 viewBox="0.00 0.00 248.00 836.00" xmlns="http://www.w3.org/2000/svg" xmlns:xlink="http://www.w3.org/1999/xlink">
<g id="graph0" class="graph" transform="scale(1 1) rotate(0) translate(4 832)">
<title>G</title>
<polygon fill="white" stroke="transparent" points="-4,4 -4,-832 244,-832 244,4 -4,4"/>
<!-- ProducerA -->
<g id="node1" class="node MicroProducer">
<title>ProducerA</title>
<polygon fill="none" stroke="black" points="163.5,-828 75.5,-828 75.5,-792 163.5,-792 163.5,-828"/>
<text text-anchor="middle" x="119.5" y="-806.3" font-family="Times-Roman" font-size="14.00">ProducerA</text>
</g>
<!-- A -->
<g id="node2" class="node">
<title>A</title>
<ellipse fill="none" stroke="black" cx="119.5" cy="-738" rx="27" ry="18"/>
<text text-anchor="middle" x="119.5" y="-734.3" font-family="Times-Roman" font-size="14.00">A</text>
</g>
<!-- ProducerA&#45;&gt;A -->
<g id="edge1" class="edge">
<title>ProducerA&#45;&gt;A</title>
<path fill="none" stroke="black" d="M119.5,-791.7C119.5,-783.98 119.5,-774.71 119.5,-766.11"/>
<polygon fill="black" stroke="black" points="123,-766.1 119.5,-756.1 116,-766.1 123,-766.1"/>
</g>
<!-- TransformerB -->
<g id="node3" class="node MicroTransformer">
<title>TransformerB</title>
<polygon fill="none" stroke="black" points="174.5,-684 64.5,-684 64.5,-648 174.5,-648 174.5,-684"/>
<text text-anchor="middle" x="119.5" y="-662.3" font-family="Times-Roman" font-size="14.00">TransformerB</text>
</g>
<!-- A&#45;&gt;TransformerB -->
<g id="edge2" class="edge">
<title>A&#45;&gt;TransformerB</title>
<path fill="none" stroke="black" d="M119.5,-719.7C119.5,-711.98 119.5,-702.71 119.5,-694.11"/>
<polygon fill="black" stroke="black" points="123,-694.1 119.5,-684.1 116,-694.1 123,-694.1"/>
</g>
<!-- B -->
<g id="node4" class="node">
<title>B</title>
<ellipse fill="none" stroke="black" cx="119.5" cy="-594" rx="27" ry="18"/>
<text text-anchor="middle" x="119.5" y="-590.3" font-family="Times-Roman" font-size="14.00">B</text>
</g>
<!-- TransformerB&#45;&gt;B -->
<g id="edge3" class="edge">
<title>TransformerB&#45;&gt;B</title>
<path fill="none" stroke="black" d="M119.5,-647.7C119.5,-639.98 119.5,-630.71 119.5,-622.11"/>
<polygon fill="black" stroke="black" points="123,-622.1 119.5,-612.1 116,-622.1 123,-622.1"/>
</g>
<!-- TransformerC -->
<g id="node5" class="node MicroTransformer">
<title>TransformerC</title>
<polygon fill="none" stroke="black" points="110.5,-540 0.5,-540 0.5,-504 110.5,-504 110.5,-540"/>
<text text-anchor="middle" x="55.5" y="-518.3" font-family="Times-Roman" font-size="14.00">TransformerC</text>
</g>
<!-- B&#45;&gt;TransformerC -->
<g id="edge4" class="edge">
<title>B&#45;&gt;TransformerC</title>
<path fill="none" stroke="black" d="M105.93,-578.15C97.8,-569.26 87.26,-557.74 77.93,-547.53"/>
<polygon fill="black" stroke="black" points="80.41,-545.06 71.08,-540.04 75.24,-549.78 80.41,-545.06"/>
</g>
<!-- TransformerG -->
<g id="node13" class="node MicroTransformer">
<title>TransformerG</title>
<polygon fill="none" stroke="black" points="240,-540 129,-540 129,-504 240,-504 240,-540"/>
<text text-anchor="middle" x="184.5" y="-518.3" font-family="Times-Roman" font-size="14.00">TransformerG</text>
</g>
<!-- B&#45;&gt;TransformerG -->
<g id="edge5" class="edge">
<title>B&#45;&gt;TransformerG</title>
<path fill="none" stroke="black" d="M133.28,-578.15C141.54,-569.26 152.24,-557.74 161.72,-547.53"/>
<polygon fill="black" stroke="black" points="164.44,-549.75 168.68,-540.04 159.31,-544.99 164.44,-549.75"/>
</g>
<!-- C -->
<g id="node6" class="node">
<title>C</title>
<ellipse fill="none" stroke="black" cx="55.5" cy="-450" rx="27" ry="18"/>
<text text-anchor="middle" x="55.5" y="-446.3" font-family="Times-Roman" font-size="14.00">C</text>
</g>
<!-- TransformerC&#45;&gt;C -->
<g id="edge6" class="edge">
<title>TransformerC&#45;&gt;C</title>
<path fill="none" stroke="black" d="M55.5,-503.7C55.5,-495.98 55.5,-486.71 55.5,-478.11"/>
<polygon fill="black" stroke="black" points="59,-478.1 55.5,-468.1 52,-478.1 59,-478.1"/>
</g>
<!-- TransformerD -->
<g id="node7" class="node MicroTransformer">
<title>TransformerD</title>
<polygon fill="none" stroke="black" points="111,-396 0,-396 0,-360 111,-360 111,-396"/>
<text text-anchor="middle" x="55.5" y="-374.3" font-family="Times-Roman" font-size="14.00">TransformerD</text>
</g>
<!-- C&#45;&gt;TransformerD -->
<g id="edge7" class="edge">
<title>C&#45;&gt;TransformerD</title>
<path fill="none" stroke="black" d="M55.5,-431.7C55.5,-423.98 55.5,-414.71 55.5,-406.11"/>
<polygon fill="black" stroke="black" points="59,-406.1 55.5,-396.1 52,-406.1 59,-406.1"/>
</g>
<!-- D -->
<g id="node8" class="node">
<title>D</title>
<ellipse fill="none" stroke="black" cx="55.5" cy="-306" rx="27" ry="18"/>
<text text-anchor="middle" x="55.5" y="-302.3" font-family="Times-Roman" font-size="14.00">D</text>
</g>
<!-- TransformerD&#45;&gt;D -->
<g id="edge8" class="edge">
<title>TransformerD&#45;&gt;D</title>
<path fill="none" stroke="black" d="M55.5,-359.7C55.5,-351.98 55.5,-342.71 55.5,-334.11"/>
<polygon fill="black" stroke="black" points="59,-334.1 55.5,-324.1 52,-334.1 59,-334.1"/>
</g>
<!-- TransformerE -->
<g id="node9" class="node MicroTransformer">
<title>TransformerE</title>
<polygon fill="none" stroke="black" points="110.5,-252 0.5,-252 0.5,-216 110.5,-216 110.5,-252"/>
<text text-anchor="middle" x="55.5" y="-230.3" font-family="Times-Roman" font-size="14.00">TransformerE</text>
</g>
<!-- D&#45;&gt;TransformerE -->
<g id="edge9" class="edge">
<title>D&#45;&gt;TransformerE</title>
<path fill="none" stroke="black" d="M55.5,-287.7C55.5,-279.98 55.5,-270.71 55.5,-262.11"/>
<polygon fill="black" stroke="black" points="59,-262.1 55.5,-252.1 52,-262.1 59,-262.1"/>
</g>
<!-- E -->
<g id="node10" class="node">
<title>E</title>
<ellipse fill="none" stroke="black" cx="55.5" cy="-162" rx="27" ry="18"/>
<text text-anchor="middle" x="55.5" y="-158.3" font-family="Times-Roman" font-size="14.00">E</text>
</g>
<!-- TransformerE&#45;&gt;E -->
<g id="edge10" class="edge">
<title>TransformerE&#45;&gt;E</title>
<path fill="none" stroke="black" d="M55.5,-215.7C55.5,-207.98 55.5,-198.71 55.5,-190.11"/>
<polygon fill="black" stroke="black" points="59,-190.1 55.5,-180.1 52,-190.1 59,-190.1"/>
</g>
<!-- TransformerF -->
<g id="node11" class="node MicroTransformer">
<title>TransformerF</title>
<polygon fill="none" stroke="black" points="110,-108 1,-108 1,-72 110,-72 110,-108"/>
<text text-anchor="middle" x="55.5" y="-86.3" font-family="Times-Roman" font-size="14.00">TransformerF</text>
</g>
<!-- E&#45;&gt;TransformerF -->
<g id="edge11" class="edge">
<title>E&#45;&gt;TransformerF</title>
<path fill="none" stroke="black" d="M55.5,-143.7C55.5,-135.98 55.5,-126.71 55.5,-118.11"/>
<polygon fill="black" stroke="black" points="59,-118.1 55.5,-108.1 52,-118.1 59,-118.1"/>
</g>
<!-- F -->
<g id="node12" class="node">
<title>F</title>
<ellipse fill="none" stroke="black" cx="55.5" cy="-18" rx="27" ry="18"/>
<text text-anchor="middle" x="55.5" y="-14.3" font-family="Times-Roman" font-size="14.00">F</text>
</g>
<!-- TransformerF&#45;&gt;F -->
<g id="edge12" class="edge">
<title>TransformerF&#45;&gt;F</title>
<path fill="none" stroke="black" d="M55.5,-71.7C55.5,-63.98 55.5,-54.71 55.5,-46.11"/>
<polygon fill="black" stroke="black" points="59,-46.1 55.5,-36.1 52,-46.1 59,-46.1"/>
</g>
<!-- G -->
<g id="node14" class="node">
<title>G</title>
<ellipse fill="none" stroke="black" cx="184.5" cy="-450" rx="27" ry="18"/>
<text text-anchor="middle" x="184.5" y="-446.3" font-family="Times-Roman" font-size="14.00">G</text>
</g>
<!-- TransformerG&#45;&gt;G -->
<g id="edge13" class="edge">
<title>TransformerG&#45;&gt;G</title>
<path fill="none" stroke="black" d="M184.5,-503.7C184.5,-495.98 184.5,-486.71 184.5,-478.11"/>
<polygon fill="black" stroke="black" points="188,-478.1 184.5,-468.1 181,-478.1 188,-478.1"/>
</g>
</g>
</svg>
