<?xml version="1.0" encoding="UTF-8" standalone="no"?>
<!DOCTYPE svg PUBLIC "-//W3C//DTD SVG 1.1//EN"
 "http://www.w3.org/Graphics/SVG/1.1/DTD/svg11.dtd">
<!-- Generated by graphviz version 2.44.0 (0)
 -->
<!-- Title: G Pages: 1 -->
<svg width="610pt" height="116pt"
 viewBox="0.00 0.00 609.50 116.00" xmlns="http://www.w3.org/2000/svg" xmlns:xlink="http://www.w3.org/1999/xlink">
<g id="graph0" class="graph" transform="scale(1 1) rotate(0) translate(4 112)">
<title>G</title>
<polygon fill="white" stroke="transparent" points="-4,4 -4,-112 605.5,-112 605.5,4 -4,4"/>
<!-- RootDecisionHub -->
<g id="node1" class="node">
<title>RootDecisionHub</title>
<polygon fill="none" stroke="black" points="289,-108 165.67,-90 289,-72 412.33,-90 289,-108"/>
<text text-anchor="middle" x="289" y="-86.3" font-family="Times-Roman" font-size="14.00">RootDecisionHub</text>
</g>
<!-- ProducerA -->
<g id="node2" class="node CPUCruncher">
<title>ProducerA</title>
<polygon fill="none" stroke="black" points="88,-36 0,-36 0,0 88,0 88,-36"/>
<text text-anchor="middle" x="44" y="-14.3" font-family="Times-Roman" font-size="14.00">ProducerA</text>
</g>
<!-- RootDecisionHub&#45;&gt;ProducerA -->
<g id="edge1" class="edge">
<title>RootDecisionHub&#45;&gt;ProducerA</title>
<path fill="none" stroke="black" d="M247.29,-78.01C210.43,-68.19 155,-53.13 98.09,-36.27"/>
<polygon fill="black" stroke="black" points="98.79,-32.83 88.2,-33.33 96.79,-39.54 98.79,-32.83"/>
</g>
<!-- TransformerA -->
<g id="node3" class="node CPUCruncher">
<title>TransformerA</title>
<polygon fill="none" stroke="black" points="216,-36 106,-36 106,0 216,0 216,-36"/>
<text text-anchor="middle" x="161" y="-14.3" font-family="Times-Roman" font-size="14.00">TransformerA</text>
</g>
<!-- RootDecisionHub&#45;&gt;TransformerA -->
<g id="edge2" class="edge">
<title>RootDecisionHub&#45;&gt;TransformerA</title>
<path fill="none" stroke="black" d="M264.32,-75.5C246.47,-65.74 221.97,-52.34 201.3,-41.04"/>
<polygon fill="black" stroke="black" points="202.87,-37.91 192.41,-36.18 199.51,-44.05 202.87,-37.91"/>
</g>
<!-- TransformerB -->
<g id="node4" class="node CPUCruncher">
<title>TransformerB</title>
<polygon fill="none" stroke="black" points="344,-36 234,-36 234,0 344,0 344,-36"/>
<text text-anchor="middle" x="289" y="-14.3" font-family="Times-Roman" font-size="14.00">TransformerB</text>
</g>
<!-- RootDecisionHub&#45;&gt;TransformerB -->
<g id="edge3" class="edge">
<title>RootDecisionHub&#45;&gt;TransformerB</title>
<path fill="none" stroke="black" d="M289,-71.7C289,-63.98 289,-54.71 289,-46.11"/>
<polygon fill="black" stroke="black" points="292.5,-46.1 289,-36.1 285.5,-46.1 292.5,-46.1"/>
</g>
<!-- TransformerC -->
<g id="node5" class="node CPUCruncher">
<title>TransformerC</title>
<polygon fill="none" stroke="black" points="472,-36 362,-36 362,0 472,0 472,-36"/>
<text text-anchor="middle" x="417" y="-14.3" font-family="Times-Roman" font-size="14.00">TransformerC</text>
</g>
<!-- RootDecisionHub&#45;&gt;TransformerC -->
<g id="edge4" class="edge">
<title>RootDecisionHub&#45;&gt;TransformerC</title>
<path fill="none" stroke="black" d="M313.68,-75.5C331.53,-65.74 356.03,-52.34 376.7,-41.04"/>
<polygon fill="black" stroke="black" points="378.49,-44.05 385.59,-36.18 375.13,-37.91 378.49,-44.05"/>
</g>
<!-- TransformerD -->
<g id="node6" class="node CPUCruncher">
<title>TransformerD</title>
<polygon fill="none" stroke="black" points="601.5,-36 490.5,-36 490.5,0 601.5,0 601.5,-36"/>
<text text-anchor="middle" x="546" y="-14.3" font-family="Times-Roman" font-size="14.00">TransformerD</text>
</g>
<!-- RootDecisionHub&#45;&gt;TransformerD -->
<g id="edge5" class="edge">
<title>RootDecisionHub&#45;&gt;TransformerD</title>
<path fill="none" stroke="black" d="M329.72,-77.91C370.16,-66.9 432.8,-49.83 480.28,-36.9"/>
<polygon fill="black" stroke="black" points="481.44,-40.21 490.17,-34.21 479.6,-33.46 481.44,-40.21"/>
</g>
</g>
</svg>
