<?xml version="1.0" encoding="UTF-8" standalone="no"?>
<!DOCTYPE svg PUBLIC "-//W3C//DTD SVG 1.1//EN"
 "http://www.w3.org/Graphics/SVG/1.1/DTD/svg11.dtd">
<!-- Generated by graphviz version 2.44.0 (0)
 -->
<!-- Pages: 1 -->
<svg width="768pt" height="116pt"
 viewBox="0.00 0.00 768.34 116.00" xmlns="http://www.w3.org/2000/svg" xmlns:xlink="http://www.w3.org/1999/xlink">
<g id="graph0" class="graph" transform="scale(1 1) rotate(0) translate(4 112)">
<polygon fill="white" stroke="transparent" points="-4,4 -4,-112 764.34,-112 764.34,4 -4,4"/>
<!-- RootDecisionHub -->
<g id="node1" class="node">
<title>RootDecisionHub</title>
<ellipse fill="none" stroke="black" cx="365.19" cy="-90" rx="87.18" ry="18"/>
<text text-anchor="middle" x="365.19" y="-86.3" font-family="Times-Roman" font-size="14.00">RootDecisionHub</text>
</g>
<!-- ProducerA -->
<g id="node2" class="node">
<title>ProducerA</title>
<ellipse fill="none" stroke="black" cx="57.19" cy="-18" rx="57.39" ry="18"/>
<text text-anchor="middle" x="57.19" y="-14.3" font-family="Times-Roman" font-size="14.00">ProducerA</text>
</g>
<!-- RootDecisionHub&#45;&gt;ProducerA -->
<g id="edge1" class="edge">
<title>RootDecisionHub&#45;&gt;ProducerA</title>
<path fill="none" stroke="black" d="M306.64,-76.67C257.76,-66.25 186.31,-50.71 124.19,-36 119.55,-34.9 114.73,-33.73 109.9,-32.54"/>
<polygon fill="black" stroke="black" points="110.58,-29.11 100.04,-30.09 108.89,-35.9 110.58,-29.11"/>
</g>
<!-- TransformerA -->
<g id="node3" class="node">
<title>TransformerA</title>
<ellipse fill="none" stroke="black" cx="204.19" cy="-18" rx="71.49" ry="18"/>
<text text-anchor="middle" x="204.19" y="-14.3" font-family="Times-Roman" font-size="14.00">TransformerA</text>
</g>
<!-- RootDecisionHub&#45;&gt;TransformerA -->
<g id="edge2" class="edge">
<title>RootDecisionHub&#45;&gt;TransformerA</title>
<path fill="none" stroke="black" d="M329.46,-73.46C305.4,-63 273.5,-49.13 247.91,-38.01"/>
<polygon fill="black" stroke="black" points="249.01,-34.67 238.45,-33.89 246.22,-41.09 249.01,-34.67"/>
</g>
<!-- TransformerB -->
<g id="node4" class="node">
<title>TransformerB</title>
<ellipse fill="none" stroke="black" cx="365.19" cy="-18" rx="71.49" ry="18"/>
<text text-anchor="middle" x="365.19" y="-14.3" font-family="Times-Roman" font-size="14.00">TransformerB</text>
</g>
<!-- RootDecisionHub&#45;&gt;TransformerB -->
<g id="edge3" class="edge">
<title>RootDecisionHub&#45;&gt;TransformerB</title>
<path fill="none" stroke="black" d="M365.19,-71.7C365.19,-63.98 365.19,-54.71 365.19,-46.11"/>
<polygon fill="black" stroke="black" points="368.7,-46.1 365.19,-36.1 361.7,-46.1 368.7,-46.1"/>
</g>
<!-- TransformerC -->
<g id="node5" class="node">
<title>TransformerC</title>
<ellipse fill="none" stroke="black" cx="526.19" cy="-18" rx="71.49" ry="18"/>
<text text-anchor="middle" x="526.19" y="-14.3" font-family="Times-Roman" font-size="14.00">TransformerC</text>
</g>
<!-- RootDecisionHub&#45;&gt;TransformerC -->
<g id="edge4" class="edge">
<title>RootDecisionHub&#45;&gt;TransformerC</title>
<path fill="none" stroke="black" d="M400.93,-73.46C424.99,-63 456.89,-49.13 482.48,-38.01"/>
<polygon fill="black" stroke="black" points="484.17,-41.09 491.94,-33.89 481.38,-34.67 484.17,-41.09"/>
</g>
<!-- TransformerD -->
<g id="node6" class="node">
<title>TransformerD</title>
<ellipse fill="none" stroke="black" cx="688.19" cy="-18" rx="72.29" ry="18"/>
<text text-anchor="middle" x="688.19" y="-14.3" font-family="Times-Roman" font-size="14.00">TransformerD</text>
</g>
<!-- RootDecisionHub&#45;&gt;TransformerD -->
<g id="edge5" class="edge">
<title>RootDecisionHub&#45;&gt;TransformerD</title>
<path fill="none" stroke="black" d="M422.94,-76.49C480.06,-64.11 567.21,-45.22 625.87,-32.51"/>
<polygon fill="black" stroke="black" points="626.73,-35.9 635.76,-30.36 625.24,-29.06 626.73,-35.9"/>
</g>
</g>
</svg>
