<?xml version="1.0" encoding="UTF-8" standalone="no"?>
<!DOCTYPE svg PUBLIC "-//W3C//DTD SVG 1.1//EN"
 "http://www.w3.org/Graphics/SVG/1.1/DTD/svg11.dtd">
<!-- Generated by graphviz version 2.44.0 (0)
 -->
<!-- Pages: 1 -->
<svg width="152pt" height="692pt"
 viewBox="0.00 0.00 152.29 692.00" xmlns="http://www.w3.org/2000/svg" xmlns:xlink="http://www.w3.org/1999/xlink">
<g id="graph0" class="graph" transform="scale(1 1) rotate(0) translate(4 688)">
<polygon fill="white" stroke="transparent" points="-4,4 -4,-688 148.29,-688 148.29,4 -4,4"/>
<!-- ProducerA -->
<g id="node1" class="node">
<title>ProducerA</title>
<ellipse fill="none" stroke="black" cx="72.14" cy="-666" rx="57.39" ry="18"/>
<text text-anchor="middle" x="72.14" y="-662.3" font-family="Times-Roman" font-size="14.00">ProducerA</text>
</g>
<!-- a -->
<g id="node6" class="node DataObject">
<title>a</title>
<ellipse fill="none" stroke="black" cx="72.14" cy="-594" rx="27" ry="18"/>
<text text-anchor="middle" x="72.14" y="-590.3" font-family="Times-Roman" font-size="14.00">a</text>
</g>
<!-- ProducerA&#45;&gt;a -->
<g id="edge1" class="edge">
<title>ProducerA&#45;&gt;a</title>
<path fill="none" stroke="black" d="M72.14,-647.7C72.14,-639.98 72.14,-630.71 72.14,-622.11"/>
<polygon fill="black" stroke="black" points="75.64,-622.1 72.14,-612.1 68.64,-622.1 75.64,-622.1"/>
</g>
<!-- TransformerA -->
<g id="node2" class="node">
<title>TransformerA</title>
<ellipse fill="none" stroke="black" cx="72.14" cy="-522" rx="71.49" ry="18"/>
<text text-anchor="middle" x="72.14" y="-518.3" font-family="Times-Roman" font-size="14.00">TransformerA</text>
</g>
<!-- b -->
<g id="node7" class="node DataObject">
<title>b</title>
<ellipse fill="none" stroke="black" cx="72.14" cy="-450" rx="27" ry="18"/>
<text text-anchor="middle" x="72.14" y="-446.3" font-family="Times-Roman" font-size="14.00">b</text>
</g>
<!-- TransformerA&#45;&gt;b -->
<g id="edge2" class="edge">
<title>TransformerA&#45;&gt;b</title>
<path fill="none" stroke="black" d="M72.14,-503.7C72.14,-495.98 72.14,-486.71 72.14,-478.11"/>
<polygon fill="black" stroke="black" points="75.64,-478.1 72.14,-468.1 68.64,-478.1 75.64,-478.1"/>
</g>
<!-- TransformerB -->
<g id="node3" class="node">
<title>TransformerB</title>
<ellipse fill="none" stroke="black" cx="72.14" cy="-378" rx="71.49" ry="18"/>
<text text-anchor="middle" x="72.14" y="-374.3" font-family="Times-Roman" font-size="14.00">TransformerB</text>
</g>
<!-- c -->
<g id="node8" class="node DataObject">
<title>c</title>
<ellipse fill="none" stroke="black" cx="72.14" cy="-306" rx="27" ry="18"/>
<text text-anchor="middle" x="72.14" y="-302.3" font-family="Times-Roman" font-size="14.00">c</text>
</g>
<!-- TransformerB&#45;&gt;c -->
<g id="edge3" class="edge">
<title>TransformerB&#45;&gt;c</title>
<path fill="none" stroke="black" d="M72.14,-359.7C72.14,-351.98 72.14,-342.71 72.14,-334.11"/>
<polygon fill="black" stroke="black" points="75.64,-334.1 72.14,-324.1 68.64,-334.1 75.64,-334.1"/>
</g>
<!-- TransformerC -->
<g id="node4" class="node">
<title>TransformerC</title>
<ellipse fill="none" stroke="black" cx="72.14" cy="-234" rx="71.49" ry="18"/>
<text text-anchor="middle" x="72.14" y="-230.3" font-family="Times-Roman" font-size="14.00">TransformerC</text>
</g>
<!-- d -->
<g id="node9" class="node DataObject">
<title>d</title>
<ellipse fill="none" stroke="black" cx="72.14" cy="-162" rx="27" ry="18"/>
<text text-anchor="middle" x="72.14" y="-158.3" font-family="Times-Roman" font-size="14.00">d</text>
</g>
<!-- TransformerC&#45;&gt;d -->
<g id="edge4" class="edge">
<title>TransformerC&#45;&gt;d</title>
<path fill="none" stroke="black" d="M72.14,-215.7C72.14,-207.98 72.14,-198.71 72.14,-190.11"/>
<polygon fill="black" stroke="black" points="75.64,-190.1 72.14,-180.1 68.64,-190.1 75.64,-190.1"/>
</g>
<!-- TransformerD -->
<g id="node5" class="node">
<title>TransformerD</title>
<ellipse fill="none" stroke="black" cx="72.14" cy="-90" rx="72.29" ry="18"/>
<text text-anchor="middle" x="72.14" y="-86.3" font-family="Times-Roman" font-size="14.00">TransformerD</text>
</g>
<!-- e -->
<g id="node10" class="node DataObject">
<title>e</title>
<ellipse fill="none" stroke="black" cx="72.14" cy="-18" rx="27" ry="18"/>
<text text-anchor="middle" x="72.14" y="-14.3" font-family="Times-Roman" font-size="14.00">e</text>
</g>
<!-- TransformerD&#45;&gt;e -->
<g id="edge5" class="edge">
<title>TransformerD&#45;&gt;e</title>
<path fill="none" stroke="black" d="M72.14,-71.7C72.14,-63.98 72.14,-54.71 72.14,-46.11"/>
<polygon fill="black" stroke="black" points="75.64,-46.1 72.14,-36.1 68.64,-46.1 75.64,-46.1"/>
</g>
<!-- a&#45;&gt;TransformerA -->
<g id="edge6" class="edge">
<title>a&#45;&gt;TransformerA</title>
<path fill="none" stroke="black" d="M72.14,-575.7C72.14,-567.98 72.14,-558.71 72.14,-550.11"/>
<polygon fill="black" stroke="black" points="75.64,-550.1 72.14,-540.1 68.64,-550.1 75.64,-550.1"/>
</g>
<!-- b&#45;&gt;TransformerB -->
<g id="edge7" class="edge">
<title>b&#45;&gt;TransformerB</title>
<path fill="none" stroke="black" d="M72.14,-431.7C72.14,-423.98 72.14,-414.71 72.14,-406.11"/>
<polygon fill="black" stroke="black" points="75.64,-406.1 72.14,-396.1 68.64,-406.1 75.64,-406.1"/>
</g>
<!-- c&#45;&gt;TransformerC -->
<g id="edge8" class="edge">
<title>c&#45;&gt;TransformerC</title>
<path fill="none" stroke="black" d="M72.14,-287.7C72.14,-279.98 72.14,-270.71 72.14,-262.11"/>
<polygon fill="black" stroke="black" points="75.64,-262.1 72.14,-252.1 68.64,-262.1 75.64,-262.1"/>
</g>
<!-- d&#45;&gt;TransformerD -->
<g id="edge9" class="edge">
<title>d&#45;&gt;TransformerD</title>
<path fill="none" stroke="black" d="M72.14,-143.7C72.14,-135.98 72.14,-126.71 72.14,-118.11"/>
<polygon fill="black" stroke="black" points="75.64,-118.1 72.14,-108.1 68.64,-118.1 75.64,-118.1"/>
</g>
</g>
</svg>
