<?xml version="1.0" encoding="UTF-8" standalone="no"?>
<!DOCTYPE svg PUBLIC "-//W3C//DTD SVG 1.1//EN"
 "http://www.w3.org/Graphics/SVG/1.1/DTD/svg11.dtd">
<!-- Generated by graphviz version 2.50.0 (20211204.2007)
 -->
<!-- Title: G Pages: 1 -->
<svg width="256pt" height="3500pt"
 viewBox="0.00 0.00 256.00 3500.00" xmlns="http://www.w3.org/2000/svg" xmlns:xlink="http://www.w3.org/1999/xlink">
<g id="graph0" class="graph" transform="scale(1 1) rotate(0) translate(4 3496)">
<title>G</title>
<polygon fill="white" stroke="transparent" points="-4,4 -4,-3496 252,-3496 252,4 -4,4"/>
<!-- 1 -->
<g id="node1" class="node">
<title>1</title>
<polygon fill="none" stroke="black" points="180.5,-3492 67.5,-3492 67.5,-3456 180.5,-3456 180.5,-3492"/>
<text text-anchor="middle" x="124" y="-3470.3" font-family="Times,serif" font-size="14.00">CondInputLoader</text>
</g>
<!-- 2 -->
<g id="node2" class="node">
<title>2</title>
<polygon fill="none" stroke="black" points="178,-3420 70,-3420 70,-3384 178,-3384 178,-3420"/>
<text text-anchor="middle" x="124" y="-3398.3" font-family="Times,serif" font-size="14.00">LArHVCondAlg</text>
</g>
<!-- 1&#45;&gt;2 -->
<g id="edge1" class="edge">
<title>1&#45;&gt;2</title>
<path fill="none" stroke="black" d="M124,-3455.7C124,-3447.98 124,-3438.71 124,-3430.11"/>
<polygon fill="black" stroke="black" points="127.5,-3430.1 124,-3420.1 120.5,-3430.1 127.5,-3430.1"/>
</g>
<!-- 3 -->
<g id="node3" class="node">
<title>3</title>
<polygon fill="none" stroke="black" points="174.5,-3348 73.5,-3348 73.5,-3312 174.5,-3312 174.5,-3348"/>
<text text-anchor="middle" x="124" y="-3326.3" font-family="Times,serif" font-size="14.00">CaloCellMaker</text>
</g>
<!-- 2&#45;&gt;3 -->
<g id="edge2" class="edge">
<title>2&#45;&gt;3</title>
<path fill="none" stroke="black" d="M124,-3383.7C124,-3375.98 124,-3366.71 124,-3358.11"/>
<polygon fill="black" stroke="black" points="127.5,-3358.1 124,-3348.1 120.5,-3358.1 127.5,-3358.1"/>
</g>
<!-- 4 -->
<g id="node4" class="node">
<title>4</title>
<polygon fill="none" stroke="black" points="208.5,-3276 39.5,-3276 39.5,-3240 208.5,-3240 208.5,-3276"/>
<text text-anchor="middle" x="124" y="-3254.3" font-family="Times,serif" font-size="14.00">CaloCalTopoClustersMaker</text>
</g>
<!-- 3&#45;&gt;4 -->
<g id="edge3" class="edge">
<title>3&#45;&gt;4</title>
<path fill="none" stroke="black" d="M124,-3311.7C124,-3303.98 124,-3294.71 124,-3286.11"/>
<polygon fill="black" stroke="black" points="127.5,-3286.1 124,-3276.1 120.5,-3286.1 127.5,-3286.1"/>
</g>
<!-- 5 -->
<g id="node5" class="node">
<title>5</title>
<polygon fill="none" stroke="black" points="210.5,-3204 37.5,-3204 37.5,-3168 210.5,-3168 210.5,-3204"/>
<text text-anchor="middle" x="124" y="-3182.3" font-family="Times,serif" font-size="14.00">egammaTopoClustersCopier</text>
</g>
<!-- 4&#45;&gt;5 -->
<g id="edge4" class="edge">
<title>4&#45;&gt;5</title>
<path fill="none" stroke="black" d="M124,-3239.7C124,-3231.98 124,-3222.71 124,-3214.11"/>
<polygon fill="black" stroke="black" points="127.5,-3214.1 124,-3204.1 120.5,-3214.1 127.5,-3214.1"/>
</g>
<!-- 6 -->
<g id="node6" class="node">
<title>6</title>
<polygon fill="none" stroke="black" points="238.5,-3132 9.5,-3132 9.5,-3096 238.5,-3096 238.5,-3132"/>
<text text-anchor="middle" x="124" y="-3110.3" font-family="Times,serif" font-size="14.00">CaloClusterROIPhiRZContainerMaker</text>
</g>
<!-- 5&#45;&gt;6 -->
<g id="edge5" class="edge">
<title>5&#45;&gt;6</title>
<path fill="none" stroke="black" d="M124,-3167.7C124,-3159.98 124,-3150.71 124,-3142.11"/>
<polygon fill="black" stroke="black" points="127.5,-3142.1 124,-3132.1 120.5,-3142.1 127.5,-3142.1"/>
</g>
<!-- 7 -->
<g id="node7" class="node">
<title>7</title>
<polygon fill="none" stroke="black" points="194,-3060 54,-3060 54,-3024 194,-3024 194,-3060"/>
<text text-anchor="middle" x="124" y="-3038.3" font-family="Times,serif" font-size="14.00">InDetSiSpTrackFinder</text>
</g>
<!-- 6&#45;&gt;7 -->
<g id="edge6" class="edge">
<title>6&#45;&gt;7</title>
<path fill="none" stroke="black" d="M124,-3095.7C124,-3087.98 124,-3078.71 124,-3070.11"/>
<polygon fill="black" stroke="black" points="127.5,-3070.1 124,-3060.1 120.5,-3070.1 127.5,-3070.1"/>
</g>
<!-- 8 -->
<g id="node8" class="node">
<title>8</title>
<polygon fill="none" stroke="black" points="192.5,-2988 55.5,-2988 55.5,-2952 192.5,-2952 192.5,-2988"/>
<text text-anchor="middle" x="124" y="-2966.3" font-family="Times,serif" font-size="14.00">InDetAmbiguityScore</text>
</g>
<!-- 7&#45;&gt;8 -->
<g id="edge7" class="edge">
<title>7&#45;&gt;8</title>
<path fill="none" stroke="black" d="M124,-3023.7C124,-3015.98 124,-3006.71 124,-2998.11"/>
<polygon fill="black" stroke="black" points="127.5,-2998.1 124,-2988.1 120.5,-2998.1 127.5,-2998.1"/>
</g>
<!-- 9 -->
<g id="node9" class="node">
<title>9</title>
<polygon fill="none" stroke="black" points="195,-2916 53,-2916 53,-2880 195,-2880 195,-2916"/>
<text text-anchor="middle" x="124" y="-2894.3" font-family="Times,serif" font-size="14.00">InDetAmbiguitySolver</text>
</g>
<!-- 8&#45;&gt;9 -->
<g id="edge8" class="edge">
<title>8&#45;&gt;9</title>
<path fill="none" stroke="black" d="M124,-2951.7C124,-2943.98 124,-2934.71 124,-2926.11"/>
<polygon fill="black" stroke="black" points="127.5,-2926.1 124,-2916.1 120.5,-2926.1 127.5,-2926.1"/>
</g>
<!-- 10 -->
<g id="node10" class="node">
<title>10</title>
<polygon fill="none" stroke="black" points="190.5,-2844 57.5,-2844 57.5,-2808 190.5,-2808 190.5,-2844"/>
<text text-anchor="middle" x="124" y="-2822.3" font-family="Times,serif" font-size="14.00">InDetTRT_Extension</text>
</g>
<!-- 9&#45;&gt;10 -->
<g id="edge9" class="edge">
<title>9&#45;&gt;10</title>
<path fill="none" stroke="black" d="M124,-2879.7C124,-2871.98 124,-2862.71 124,-2854.11"/>
<polygon fill="black" stroke="black" points="127.5,-2854.1 124,-2844.1 120.5,-2854.1 127.5,-2854.1"/>
</g>
<!-- 11 -->
<g id="node11" class="node">
<title>11</title>
<polygon fill="none" stroke="black" points="201,-2772 47,-2772 47,-2736 201,-2736 201,-2772"/>
<text text-anchor="middle" x="124" y="-2750.3" font-family="Times,serif" font-size="14.00">InDetExtensionProcessor</text>
</g>
<!-- 10&#45;&gt;11 -->
<g id="edge10" class="edge">
<title>10&#45;&gt;11</title>
<path fill="none" stroke="black" d="M124,-2807.7C124,-2799.98 124,-2790.71 124,-2782.11"/>
<polygon fill="black" stroke="black" points="127.5,-2782.1 124,-2772.1 120.5,-2782.1 127.5,-2782.1"/>
</g>
<!-- 12 -->
<g id="node12" class="node">
<title>12</title>
<polygon fill="none" stroke="black" points="236,-2700 12,-2700 12,-2664 236,-2664 236,-2700"/>
<text text-anchor="middle" x="124" y="-2678.3" font-family="Times,serif" font-size="14.00">InDetSegmentTrackPRD_Association</text>
</g>
<!-- 11&#45;&gt;12 -->
<g id="edge11" class="edge">
<title>11&#45;&gt;12</title>
<path fill="none" stroke="black" d="M124,-2735.7C124,-2727.98 124,-2718.71 124,-2710.11"/>
<polygon fill="black" stroke="black" points="127.5,-2710.1 124,-2700.1 120.5,-2710.1 127.5,-2710.1"/>
</g>
<!-- 13 -->
<g id="node13" class="node">
<title>13</title>
<polygon fill="none" stroke="black" points="223.5,-2628 24.5,-2628 24.5,-2592 223.5,-2592 223.5,-2628"/>
<text text-anchor="middle" x="124" y="-2606.3" font-family="Times,serif" font-size="14.00">InDetTRT_TrackSegmentsFinder</text>
</g>
<!-- 12&#45;&gt;13 -->
<g id="edge12" class="edge">
<title>12&#45;&gt;13</title>
<path fill="none" stroke="black" d="M124,-2663.7C124,-2655.98 124,-2646.71 124,-2638.11"/>
<polygon fill="black" stroke="black" points="127.5,-2638.1 124,-2628.1 120.5,-2638.1 127.5,-2638.1"/>
</g>
<!-- 14 -->
<g id="node14" class="node">
<title>14</title>
<polygon fill="none" stroke="black" points="216.5,-2556 31.5,-2556 31.5,-2520 216.5,-2520 216.5,-2556"/>
<text text-anchor="middle" x="124" y="-2534.3" font-family="Times,serif" font-size="14.00">InDetTRT_SeededTrackFinder</text>
</g>
<!-- 13&#45;&gt;14 -->
<g id="edge13" class="edge">
<title>13&#45;&gt;14</title>
<path fill="none" stroke="black" d="M124,-2591.7C124,-2583.98 124,-2574.71 124,-2566.11"/>
<polygon fill="black" stroke="black" points="127.5,-2566.1 124,-2556.1 120.5,-2566.1 127.5,-2566.1"/>
</g>
<!-- 15 -->
<g id="node15" class="node">
<title>15</title>
<polygon fill="none" stroke="black" points="228,-2484 20,-2484 20,-2448 228,-2448 228,-2484"/>
<text text-anchor="middle" x="124" y="-2462.3" font-family="Times,serif" font-size="14.00">InDetTRT_SeededAmbiguityScore</text>
</g>
<!-- 14&#45;&gt;15 -->
<g id="edge14" class="edge">
<title>14&#45;&gt;15</title>
<path fill="none" stroke="black" d="M124,-2519.7C124,-2511.98 124,-2502.71 124,-2494.11"/>
<polygon fill="black" stroke="black" points="127.5,-2494.1 124,-2484.1 120.5,-2494.1 127.5,-2494.1"/>
</g>
<!-- 16 -->
<g id="node16" class="node">
<title>16</title>
<polygon fill="none" stroke="black" points="230,-2412 18,-2412 18,-2376 230,-2376 230,-2412"/>
<text text-anchor="middle" x="124" y="-2390.3" font-family="Times,serif" font-size="14.00">InDetTRT_SeededAmbiguitySolver</text>
</g>
<!-- 15&#45;&gt;16 -->
<g id="edge15" class="edge">
<title>15&#45;&gt;16</title>
<path fill="none" stroke="black" d="M124,-2447.7C124,-2439.98 124,-2430.71 124,-2422.11"/>
<polygon fill="black" stroke="black" points="127.5,-2422.1 124,-2412.1 120.5,-2422.1 127.5,-2422.1"/>
</g>
<!-- 17 -->
<g id="node17" class="node">
<title>17</title>
<polygon fill="none" stroke="black" points="243.5,-2340 4.5,-2340 4.5,-2304 243.5,-2304 243.5,-2340"/>
<text text-anchor="middle" x="124" y="-2318.3" font-family="Times,serif" font-size="14.00">InDetTrackPRD_AssociationR3LargeD0</text>
</g>
<!-- 16&#45;&gt;17 -->
<g id="edge16" class="edge">
<title>16&#45;&gt;17</title>
<path fill="none" stroke="black" d="M124,-2375.7C124,-2367.98 124,-2358.71 124,-2350.11"/>
<polygon fill="black" stroke="black" points="127.5,-2350.1 124,-2340.1 120.5,-2350.1 127.5,-2350.1"/>
</g>
<!-- 18 -->
<g id="node18" class="node">
<title>18</title>
<polygon fill="none" stroke="black" points="225.5,-2268 22.5,-2268 22.5,-2232 225.5,-2232 225.5,-2268"/>
<text text-anchor="middle" x="124" y="-2246.3" font-family="Times,serif" font-size="14.00">InDetSiSpTrackFinderR3LargeD0</text>
</g>
<!-- 17&#45;&gt;18 -->
<g id="edge17" class="edge">
<title>17&#45;&gt;18</title>
<path fill="none" stroke="black" d="M124,-2303.7C124,-2295.98 124,-2286.71 124,-2278.11"/>
<polygon fill="black" stroke="black" points="127.5,-2278.1 124,-2268.1 120.5,-2278.1 127.5,-2278.1"/>
</g>
<!-- 19 -->
<g id="node19" class="node">
<title>19</title>
<polygon fill="none" stroke="black" points="224.5,-2196 23.5,-2196 23.5,-2160 224.5,-2160 224.5,-2196"/>
<text text-anchor="middle" x="124" y="-2174.3" font-family="Times,serif" font-size="14.00">InDetAmbiguityScoreR3LargeD0</text>
</g>
<!-- 18&#45;&gt;19 -->
<g id="edge18" class="edge">
<title>18&#45;&gt;19</title>
<path fill="none" stroke="black" d="M124,-2231.7C124,-2223.98 124,-2214.71 124,-2206.11"/>
<polygon fill="black" stroke="black" points="127.5,-2206.1 124,-2196.1 120.5,-2206.1 127.5,-2206.1"/>
</g>
<!-- 20 -->
<g id="node20" class="node">
<title>20</title>
<polygon fill="none" stroke="black" points="227,-2124 21,-2124 21,-2088 227,-2088 227,-2124"/>
<text text-anchor="middle" x="124" y="-2102.3" font-family="Times,serif" font-size="14.00">InDetAmbiguitySolverR3LargeD0</text>
</g>
<!-- 19&#45;&gt;20 -->
<g id="edge19" class="edge">
<title>19&#45;&gt;20</title>
<path fill="none" stroke="black" d="M124,-2159.7C124,-2151.98 124,-2142.71 124,-2134.11"/>
<polygon fill="black" stroke="black" points="127.5,-2134.1 124,-2124.1 120.5,-2134.1 127.5,-2134.1"/>
</g>
<!-- 21 -->
<g id="node21" class="node">
<title>21</title>
<polygon fill="none" stroke="black" points="222.5,-2052 25.5,-2052 25.5,-2016 222.5,-2016 222.5,-2052"/>
<text text-anchor="middle" x="124" y="-2030.3" font-family="Times,serif" font-size="14.00">InDetTRT_ExtensionR3LargeD0</text>
</g>
<!-- 20&#45;&gt;21 -->
<g id="edge20" class="edge">
<title>20&#45;&gt;21</title>
<path fill="none" stroke="black" d="M124,-2087.7C124,-2079.98 124,-2070.71 124,-2062.11"/>
<polygon fill="black" stroke="black" points="127.5,-2062.1 124,-2052.1 120.5,-2062.1 127.5,-2062.1"/>
</g>
<!-- 22 -->
<g id="node22" class="node">
<title>22</title>
<polygon fill="none" stroke="black" points="233,-1980 15,-1980 15,-1944 233,-1944 233,-1980"/>
<text text-anchor="middle" x="124" y="-1958.3" font-family="Times,serif" font-size="14.00">InDetExtensionProcessorR3LargeD0</text>
</g>
<!-- 21&#45;&gt;22 -->
<g id="edge21" class="edge">
<title>21&#45;&gt;22</title>
<path fill="none" stroke="black" d="M124,-2015.7C124,-2007.98 124,-1998.71 124,-1990.11"/>
<polygon fill="black" stroke="black" points="127.5,-1990.1 124,-1980.1 120.5,-1990.1 127.5,-1990.1"/>
</g>
<!-- 23 -->
<g id="node23" class="node">
<title>23</title>
<polygon fill="none" stroke="black" points="234.5,-1908 13.5,-1908 13.5,-1872 234.5,-1872 234.5,-1908"/>
<text text-anchor="middle" x="124" y="-1886.3" font-family="Times,serif" font-size="14.00">InDetTrackPRD_AssociationForward</text>
</g>
<!-- 22&#45;&gt;23 -->
<g id="edge22" class="edge">
<title>22&#45;&gt;23</title>
<path fill="none" stroke="black" d="M124,-1943.7C124,-1935.98 124,-1926.71 124,-1918.11"/>
<polygon fill="black" stroke="black" points="127.5,-1918.1 124,-1908.1 120.5,-1918.1 127.5,-1918.1"/>
</g>
<!-- 24 -->
<g id="node24" class="node">
<title>24</title>
<polygon fill="none" stroke="black" points="216.5,-1836 31.5,-1836 31.5,-1800 216.5,-1800 216.5,-1836"/>
<text text-anchor="middle" x="124" y="-1814.3" font-family="Times,serif" font-size="14.00">InDetSiSpTrackFinderForward</text>
</g>
<!-- 23&#45;&gt;24 -->
<g id="edge23" class="edge">
<title>23&#45;&gt;24</title>
<path fill="none" stroke="black" d="M124,-1871.7C124,-1863.98 124,-1854.71 124,-1846.11"/>
<polygon fill="black" stroke="black" points="127.5,-1846.1 124,-1836.1 120.5,-1846.1 127.5,-1846.1"/>
</g>
<!-- 25 -->
<g id="node25" class="node">
<title>25</title>
<polygon fill="none" stroke="black" points="215.5,-1764 32.5,-1764 32.5,-1728 215.5,-1728 215.5,-1764"/>
<text text-anchor="middle" x="124" y="-1742.3" font-family="Times,serif" font-size="14.00">InDetAmbiguityScoreForward</text>
</g>
<!-- 24&#45;&gt;25 -->
<g id="edge24" class="edge">
<title>24&#45;&gt;25</title>
<path fill="none" stroke="black" d="M124,-1799.7C124,-1791.98 124,-1782.71 124,-1774.11"/>
<polygon fill="black" stroke="black" points="127.5,-1774.1 124,-1764.1 120.5,-1774.1 127.5,-1774.1"/>
</g>
<!-- 26 -->
<g id="node26" class="node">
<title>26</title>
<polygon fill="none" stroke="black" points="218,-1692 30,-1692 30,-1656 218,-1656 218,-1692"/>
<text text-anchor="middle" x="124" y="-1670.3" font-family="Times,serif" font-size="14.00">InDetAmbiguitySolverForward</text>
</g>
<!-- 25&#45;&gt;26 -->
<g id="edge25" class="edge">
<title>25&#45;&gt;26</title>
<path fill="none" stroke="black" d="M124,-1727.7C124,-1719.98 124,-1710.71 124,-1702.11"/>
<polygon fill="black" stroke="black" points="127.5,-1702.1 124,-1692.1 120.5,-1702.1 127.5,-1702.1"/>
</g>
<!-- 27 -->
<g id="node27" class="node">
<title>27</title>
<polygon fill="none" stroke="black" points="248,-1620 0,-1620 0,-1584 248,-1584 248,-1620"/>
<text text-anchor="middle" x="124" y="-1598.3" font-family="Times,serif" font-size="14.00">InDetTrackPRD_AssociationDisappearing</text>
</g>
<!-- 26&#45;&gt;27 -->
<g id="edge26" class="edge">
<title>26&#45;&gt;27</title>
<path fill="none" stroke="black" d="M124,-1655.7C124,-1647.98 124,-1638.71 124,-1630.11"/>
<polygon fill="black" stroke="black" points="127.5,-1630.1 124,-1620.1 120.5,-1630.1 127.5,-1630.1"/>
</g>
<!-- 28 -->
<g id="node28" class="node">
<title>28</title>
<polygon fill="none" stroke="black" points="230,-1548 18,-1548 18,-1512 230,-1512 230,-1548"/>
<text text-anchor="middle" x="124" y="-1526.3" font-family="Times,serif" font-size="14.00">InDetSiSpTrackFinderDisappearing</text>
</g>
<!-- 27&#45;&gt;28 -->
<g id="edge27" class="edge">
<title>27&#45;&gt;28</title>
<path fill="none" stroke="black" d="M124,-1583.7C124,-1575.98 124,-1566.71 124,-1558.11"/>
<polygon fill="black" stroke="black" points="127.5,-1558.1 124,-1548.1 120.5,-1558.1 127.5,-1558.1"/>
</g>
<!-- 29 -->
<g id="node29" class="node">
<title>29</title>
<polygon fill="none" stroke="black" points="228.5,-1476 19.5,-1476 19.5,-1440 228.5,-1440 228.5,-1476"/>
<text text-anchor="middle" x="124" y="-1454.3" font-family="Times,serif" font-size="14.00">InDetAmbiguityScoreDisappearing</text>
</g>
<!-- 28&#45;&gt;29 -->
<g id="edge28" class="edge">
<title>28&#45;&gt;29</title>
<path fill="none" stroke="black" d="M124,-1511.7C124,-1503.98 124,-1494.71 124,-1486.11"/>
<polygon fill="black" stroke="black" points="127.5,-1486.1 124,-1476.1 120.5,-1486.1 127.5,-1486.1"/>
</g>
<!-- 30 -->
<g id="node30" class="node">
<title>30</title>
<polygon fill="none" stroke="black" points="231,-1404 17,-1404 17,-1368 231,-1368 231,-1404"/>
<text text-anchor="middle" x="124" y="-1382.3" font-family="Times,serif" font-size="14.00">InDetAmbiguitySolverDisappearing</text>
</g>
<!-- 29&#45;&gt;30 -->
<g id="edge29" class="edge">
<title>29&#45;&gt;30</title>
<path fill="none" stroke="black" d="M124,-1439.7C124,-1431.98 124,-1422.71 124,-1414.11"/>
<polygon fill="black" stroke="black" points="127.5,-1414.1 124,-1404.1 120.5,-1414.1 127.5,-1414.1"/>
</g>
<!-- 31 -->
<g id="node31" class="node">
<title>31</title>
<polygon fill="none" stroke="black" points="190,-1332 58,-1332 58,-1296 190,-1296 190,-1332"/>
<text text-anchor="middle" x="124" y="-1310.3" font-family="Times,serif" font-size="14.00">TrackParticleCnvAlg</text>
</g>
<!-- 30&#45;&gt;31 -->
<g id="edge30" class="edge">
<title>30&#45;&gt;31</title>
<path fill="none" stroke="black" d="M124,-1367.7C124,-1359.98 124,-1350.71 124,-1342.11"/>
<polygon fill="black" stroke="black" points="127.5,-1342.1 124,-1332.1 120.5,-1342.1 127.5,-1342.1"/>
</g>
<!-- 32 -->
<g id="node32" class="node">
<title>32</title>
<polygon fill="none" stroke="black" points="202.5,-1260 45.5,-1260 45.5,-1224 202.5,-1224 202.5,-1260"/>
<text text-anchor="middle" x="124" y="-1238.3" font-family="Times,serif" font-size="14.00">CaloExtensionBuilderAlg</text>
</g>
<!-- 31&#45;&gt;32 -->
<g id="edge31" class="edge">
<title>31&#45;&gt;32</title>
<path fill="none" stroke="black" d="M124,-1295.7C124,-1287.98 124,-1278.71 124,-1270.11"/>
<polygon fill="black" stroke="black" points="127.5,-1270.1 124,-1260.1 120.5,-1270.1 127.5,-1270.1"/>
</g>
<!-- 33 -->
<g id="node33" class="node">
<title>33</title>
<polygon fill="none" stroke="black" points="230,-1188 18,-1188 18,-1152 230,-1152 230,-1188"/>
<text text-anchor="middle" x="124" y="-1166.3" font-family="Times,serif" font-size="14.00">MuonCombinedInDetCandidateAlg</text>
</g>
<!-- 32&#45;&gt;33 -->
<g id="edge32" class="edge">
<title>32&#45;&gt;33</title>
<path fill="none" stroke="black" d="M124,-1223.7C124,-1215.98 124,-1206.71 124,-1198.11"/>
<polygon fill="black" stroke="black" points="127.5,-1198.1 124,-1188.1 120.5,-1198.1 127.5,-1198.1"/>
</g>
<!-- 34 -->
<g id="node34" class="node">
<title>34</title>
<polygon fill="none" stroke="black" points="187.5,-1116 60.5,-1116 60.5,-1080 187.5,-1080 187.5,-1116"/>
<text text-anchor="middle" x="124" y="-1094.3" font-family="Times,serif" font-size="14.00">MuonCombinedAlg</text>
</g>
<!-- 33&#45;&gt;34 -->
<g id="edge33" class="edge">
<title>33&#45;&gt;34</title>
<path fill="none" stroke="black" d="M124,-1151.7C124,-1143.98 124,-1134.71 124,-1126.11"/>
<polygon fill="black" stroke="black" points="127.5,-1126.1 124,-1116.1 120.5,-1126.1 127.5,-1126.1"/>
</g>
<!-- 35 -->
<g id="node35" class="node">
<title>35</title>
<polygon fill="none" stroke="black" points="245,-1044 3,-1044 3,-1008 245,-1008 245,-1044"/>
<text text-anchor="middle" x="124" y="-1022.3" font-family="Times,serif" font-size="14.00">MuonInDetToMuonSystemExtensionAlg</text>
</g>
<!-- 34&#45;&gt;35 -->
<g id="edge34" class="edge">
<title>34&#45;&gt;35</title>
<path fill="none" stroke="black" d="M124,-1079.7C124,-1071.98 124,-1062.71 124,-1054.11"/>
<polygon fill="black" stroke="black" points="127.5,-1054.1 124,-1044.1 120.5,-1054.1 127.5,-1054.1"/>
</g>
<!-- 36 -->
<g id="node36" class="node">
<title>36</title>
<polygon fill="none" stroke="black" points="199.5,-972 48.5,-972 48.5,-936 199.5,-936 199.5,-972"/>
<text text-anchor="middle" x="124" y="-950.3" font-family="Times,serif" font-size="14.00">MuonInsideOutRecoAlg</text>
</g>
<!-- 35&#45;&gt;36 -->
<g id="edge35" class="edge">
<title>35&#45;&gt;36</title>
<path fill="none" stroke="black" d="M124,-1007.7C124,-999.98 124,-990.71 124,-982.11"/>
<polygon fill="black" stroke="black" points="127.5,-982.1 124,-972.1 120.5,-982.1 127.5,-982.1"/>
</g>
<!-- 37 -->
<g id="node37" class="node">
<title>37</title>
<polygon fill="none" stroke="black" points="216,-900 32,-900 32,-864 216,-864 216,-900"/>
<text text-anchor="middle" x="124" y="-878.3" font-family="Times,serif" font-size="14.00">MuonSegContainerMergerAlg</text>
</g>
<!-- 36&#45;&gt;37 -->
<g id="edge36" class="edge">
<title>36&#45;&gt;37</title>
<path fill="none" stroke="black" d="M124,-935.7C124,-927.98 124,-918.71 124,-910.11"/>
<polygon fill="black" stroke="black" points="127.5,-910.1 124,-900.1 120.5,-910.1 127.5,-910.1"/>
</g>
<!-- 38 -->
<g id="node38" class="node">
<title>38</title>
<polygon fill="none" stroke="black" points="194,-828 54,-828 54,-792 194,-792 194,-828"/>
<text text-anchor="middle" x="124" y="-806.3" font-family="Times,serif" font-size="14.00">MuonSegmentCnvAlg</text>
</g>
<!-- 37&#45;&gt;38 -->
<g id="edge37" class="edge">
<title>37&#45;&gt;38</title>
<path fill="none" stroke="black" d="M124,-863.7C124,-855.98 124,-846.71 124,-838.11"/>
<polygon fill="black" stroke="black" points="127.5,-838.1 124,-828.1 120.5,-838.1 127.5,-838.1"/>
</g>
<!-- 39 -->
<g id="node39" class="node">
<title>39</title>
<polygon fill="none" stroke="black" points="231.5,-756 16.5,-756 16.5,-720 231.5,-720 231.5,-756"/>
<text text-anchor="middle" x="124" y="-734.3" font-family="Times,serif" font-size="14.00">pjgalg_GhostMuonSegment_default</text>
</g>
<!-- 38&#45;&gt;39 -->
<g id="edge38" class="edge">
<title>38&#45;&gt;39</title>
<path fill="none" stroke="black" d="M124,-791.7C124,-783.98 124,-774.71 124,-766.11"/>
<polygon fill="black" stroke="black" points="127.5,-766.1 124,-756.1 120.5,-766.1 127.5,-766.1"/>
</g>
<!-- 40 -->
<g id="node40" class="node">
<title>40</title>
<polygon fill="none" stroke="black" points="171,-684 77,-684 77,-648 171,-648 171,-684"/>
<text text-anchor="middle" x="124" y="-662.3" font-family="Times,serif" font-size="14.00">PJMerger_id2</text>
</g>
<!-- 39&#45;&gt;40 -->
<g id="edge39" class="edge">
<title>39&#45;&gt;40</title>
<path fill="none" stroke="black" d="M124,-719.7C124,-711.98 124,-702.71 124,-694.11"/>
<polygon fill="black" stroke="black" points="127.5,-694.1 124,-684.1 120.5,-694.1 127.5,-694.1"/>
</g>
<!-- 41 -->
<g id="node41" class="node">
<title>41</title>
<polygon fill="none" stroke="black" points="213.5,-612 34.5,-612 34.5,-576 213.5,-576 213.5,-612"/>
<text text-anchor="middle" x="124" y="-590.3" font-family="Times,serif" font-size="14.00">jetrecalg_AntiKt4LCTopoJets</text>
</g>
<!-- 40&#45;&gt;41 -->
<g id="edge40" class="edge">
<title>40&#45;&gt;41</title>
<path fill="none" stroke="black" d="M124,-647.7C124,-639.98 124,-630.71 124,-622.11"/>
<polygon fill="black" stroke="black" points="127.5,-622.1 124,-612.1 120.5,-622.1 127.5,-622.1"/>
</g>
<!-- 42 -->
<g id="node42" class="node">
<title>42</title>
<polygon fill="none" stroke="black" points="186,-540 62,-540 62,-504 186,-504 186,-540"/>
<text text-anchor="middle" x="124" y="-518.3" font-family="Times,serif" font-size="14.00">TauCoreBuilderAlg</text>
</g>
<!-- 41&#45;&gt;42 -->
<g id="edge41" class="edge">
<title>41&#45;&gt;42</title>
<path fill="none" stroke="black" d="M124,-575.7C124,-567.98 124,-558.71 124,-550.11"/>
<polygon fill="black" stroke="black" points="127.5,-550.1 124,-540.1 120.5,-550.1 127.5,-550.1"/>
</g>
<!-- 43 -->
<g id="node43" class="node">
<title>43</title>
<polygon fill="none" stroke="black" points="218,-468 30,-468 30,-432 218,-432 218,-468"/>
<text text-anchor="middle" x="124" y="-446.3" font-family="Times,serif" font-size="14.00">TauPi0SubtractedClusterMaker</text>
</g>
<!-- 42&#45;&gt;43 -->
<g id="edge42" class="edge">
<title>42&#45;&gt;43</title>
<path fill="none" stroke="black" d="M124,-503.7C124,-495.98 124,-486.71 124,-478.11"/>
<polygon fill="black" stroke="black" points="127.5,-478.1 124,-468.1 120.5,-478.1 127.5,-478.1"/>
</g>
<!-- 44 -->
<g id="node44" class="node">
<title>44</title>
<polygon fill="none" stroke="black" points="191,-396 57,-396 57,-360 191,-360 191,-396"/>
<text text-anchor="middle" x="124" y="-374.3" font-family="Times,serif" font-size="14.00">ClusterCellRelinkAlg</text>
</g>
<!-- 43&#45;&gt;44 -->
<g id="edge43" class="edge">
<title>43&#45;&gt;44</title>
<path fill="none" stroke="black" d="M124,-431.7C124,-423.98 124,-414.71 124,-406.11"/>
<polygon fill="black" stroke="black" points="127.5,-406.1 124,-396.1 120.5,-406.1 127.5,-406.1"/>
</g>
<!-- 45 -->
<g id="node45" class="node">
<title>45</title>
<polygon fill="none" stroke="black" points="183,-324 65,-324 65,-288 183,-288 183,-324"/>
<text text-anchor="middle" x="124" y="-302.3" font-family="Times,serif" font-size="14.00">TauRecRunnerAlg</text>
</g>
<!-- 44&#45;&gt;45 -->
<g id="edge44" class="edge">
<title>44&#45;&gt;45</title>
<path fill="none" stroke="black" d="M124,-359.7C124,-351.98 124,-342.71 124,-334.11"/>
<polygon fill="black" stroke="black" points="127.5,-334.1 124,-324.1 120.5,-334.1 127.5,-334.1"/>
</g>
<!-- 46 -->
<g id="node46" class="node">
<title>46</title>
<polygon fill="none" stroke="black" points="221.5,-252 26.5,-252 26.5,-216 221.5,-216 221.5,-252"/>
<text text-anchor="middle" x="124" y="-230.3" font-family="Times,serif" font-size="14.00">PFTauGlobalFlowElementAssoc</text>
</g>
<!-- 45&#45;&gt;46 -->
<g id="edge45" class="edge">
<title>45&#45;&gt;46</title>
<path fill="none" stroke="black" d="M124,-287.7C124,-279.98 124,-270.71 124,-262.11"/>
<polygon fill="black" stroke="black" points="127.5,-262.1 124,-252.1 120.5,-262.1 127.5,-262.1"/>
</g>
<!-- 47 -->
<g id="node47" class="node">
<title>47</title>
<polygon fill="none" stroke="black" points="232,-180 16,-180 16,-144 232,-144 232,-180"/>
<text text-anchor="middle" x="124" y="-158.3" font-family="Times,serif" font-size="14.00">METAssociation_AntiKt4EMPFlow</text>
</g>
<!-- 46&#45;&gt;47 -->
<g id="edge46" class="edge">
<title>46&#45;&gt;47</title>
<path fill="none" stroke="black" d="M124,-215.7C124,-207.98 124,-198.71 124,-190.11"/>
<polygon fill="black" stroke="black" points="127.5,-190.1 124,-180.1 120.5,-190.1 127.5,-190.1"/>
</g>
<!-- 48 -->
<g id="node48" class="node">
<title>48</title>
<polygon fill="none" stroke="black" points="228.5,-108 19.5,-108 19.5,-72 228.5,-72 228.5,-108"/>
<text text-anchor="middle" x="124" y="-86.3" font-family="Times,serif" font-size="14.00">METMakerAlg_AntiKt4EMPFlow</text>
</g>
<!-- 47&#45;&gt;48 -->
<g id="edge47" class="edge">
<title>47&#45;&gt;48</title>
<path fill="none" stroke="black" d="M124,-143.7C124,-135.98 124,-126.71 124,-118.11"/>
<polygon fill="black" stroke="black" points="127.5,-118.1 124,-108.1 120.5,-118.1 127.5,-118.1"/>
</g>
<!-- 49 -->
<g id="node49" class="node">
<title>49</title>
<polygon fill="none" stroke="black" points="201.5,-36 46.5,-36 46.5,0 201.5,0 201.5,-36"/>
<text text-anchor="middle" x="124" y="-14.3" font-family="Times,serif" font-size="14.00">TrigMETMonChain1Alg</text>
</g>
<!-- 48&#45;&gt;49 -->
<g id="edge48" class="edge">
<title>48&#45;&gt;49</title>
<path fill="none" stroke="black" d="M124,-71.7C124,-63.98 124,-54.71 124,-46.11"/>
<polygon fill="black" stroke="black" points="127.5,-46.1 124,-36.1 120.5,-46.1 127.5,-46.1"/>
</g>
</g>
</svg>
